<svg width="123" height="45" viewBox="0 0 123 45" fill="none" xmlns="http://www.w3.org/2000/svg">
<g filter="url(#filter0_d)">
<rect x="7" y="7" width="109" height="31" rx="14" fill="white"/>
<path d="M29.5 25.44V27H22.996V18.6H29.344V20.16H24.928V21.984H28.828V23.496H24.928V25.44H29.5ZM39.5308 18.6V27H37.9348L33.7468 21.9V27H31.8268V18.6H33.4348L37.6108 23.7V18.6H39.5308ZM44.0382 20.184H41.3502V18.6H48.6702V20.184H45.9822V27H44.0382V20.184ZM57.0002 25.44V27H50.4962V18.6H56.8442V20.16H52.4282V21.984H56.3282V23.496H52.4282V25.44H57.0002ZM64.6789 27L63.0589 24.66H62.9629H61.2709V27H59.3269V18.6H62.9629C63.7069 18.6 64.3509 18.724 64.8949 18.972C65.4469 19.22 65.8709 19.572 66.1669 20.028C66.4629 20.484 66.6109 21.024 66.6109 21.648C66.6109 22.272 66.4589 22.812 66.1549 23.268C65.8589 23.716 65.4349 24.06 64.8829 24.3L66.7669 27H64.6789ZM64.6429 21.648C64.6429 21.176 64.4909 20.816 64.1869 20.568C63.8829 20.312 63.4389 20.184 62.8549 20.184H61.2709V23.112H62.8549C63.4389 23.112 63.8829 22.984 64.1869 22.728C64.4909 22.472 64.6429 22.112 64.6429 21.648ZM78.6416 25.2H74.7416L73.9976 27H72.0056L75.7496 18.6H77.6696L81.4256 27H79.3856L78.6416 25.2ZM78.0296 23.724L76.6976 20.508L75.3656 23.724H78.0296ZM86.7131 18.6C87.4571 18.6 88.1011 18.724 88.6451 18.972C89.1971 19.22 89.6211 19.572 89.9171 20.028C90.2131 20.484 90.3611 21.024 90.3611 21.648C90.3611 22.264 90.2131 22.804 89.9171 23.268C89.6211 23.724 89.1971 24.076 88.6451 24.324C88.1011 24.564 87.4571 24.684 86.7131 24.684H85.0211V27H83.0771V18.6H86.7131ZM86.6051 23.1C87.1891 23.1 87.6331 22.976 87.9371 22.728C88.2411 22.472 88.3931 22.112 88.3931 21.648C88.3931 21.176 88.2411 20.816 87.9371 20.568C87.6331 20.312 87.1891 20.184 86.6051 20.184H85.0211V23.1H86.6051ZM96.165 18.6C96.909 18.6 97.553 18.724 98.097 18.972C98.649 19.22 99.073 19.572 99.369 20.028C99.665 20.484 99.813 21.024 99.813 21.648C99.813 22.264 99.665 22.804 99.369 23.268C99.073 23.724 98.649 24.076 98.097 24.324C97.553 24.564 96.909 24.684 96.165 24.684H94.473V27H92.529V18.6H96.165ZM96.057 23.1C96.641 23.1 97.085 22.976 97.389 22.728C97.693 22.472 97.845 22.112 97.845 21.648C97.845 21.176 97.693 20.816 97.389 20.568C97.085 20.312 96.641 20.184 96.057 20.184H94.473V23.1H96.057Z" fill="black"/>
</g>
<defs>
<filter id="filter0_d" x="0" y="0" width="123" height="45" filterUnits="userSpaceOnUse" color-interpolation-filters="sRGB">
<feFlood flood-opacity="0" result="BackgroundImageFix"/>
<feColorMatrix in="SourceAlpha" type="matrix" values="0 0 0 0 0 0 0 0 0 0 0 0 0 0 0 0 0 0 127 0" result="hardAlpha"/>
<feMorphology radius="2" operator="erode" in="SourceAlpha" result="effect1_dropShadow"/>
<feOffset/>
<feGaussianBlur stdDeviation="4.5"/>
<feComposite in2="hardAlpha" operator="out"/>
<feColorMatrix type="matrix" values="0 0 0 0 1 0 0 0 0 1 0 0 0 0 1 0 0 0 1 0"/>
<feBlend mode="normal" in2="BackgroundImageFix" result="effect1_dropShadow"/>
<feBlend mode="normal" in="SourceGraphic" in2="effect1_dropShadow" result="shape"/>
</filter>
</defs>
</svg>
