<svg width="257" height="56" viewBox="0 0 257 56" fill="none" xmlns="http://www.w3.org/2000/svg">
<g filter="url(#filter0_d)">
<rect x="8" y="8" width="241" height="40" rx="8" fill="#DFF0FF"/>
<path d="M28.4318 37.3C27.2485 37.3 26.1568 37.0833 25.1568 36.65C24.1735 36.2 23.3652 35.5667 22.7318 34.75L24.9818 32.05C25.9318 33.3333 27.0152 33.975 28.2318 33.975C29.8818 33.975 30.7068 33.0083 30.7068 31.075V22.75H24.5568V19.5H34.7318V30.85C34.7318 33 34.1985 34.6167 33.1318 35.7C32.0652 36.7667 30.4985 37.3 28.4318 37.3ZM48.8322 37.3C47.0156 37.3 45.3739 36.9083 43.9072 36.125C42.4572 35.3417 41.3156 34.2667 40.4822 32.9C39.6656 31.5167 39.2572 29.9667 39.2572 28.25C39.2572 26.5333 39.6656 24.9917 40.4822 23.625C41.3156 22.2417 42.4572 21.1583 43.9072 20.375C45.3739 19.5917 47.0156 19.2 48.8322 19.2C50.6489 19.2 52.2822 19.5917 53.7322 20.375C55.1822 21.1583 56.3239 22.2417 57.1572 23.625C57.9906 24.9917 58.4072 26.5333 58.4072 28.25C58.4072 29.9667 57.9906 31.5167 57.1572 32.9C56.3239 34.2667 55.1822 35.3417 53.7322 36.125C52.2822 36.9083 50.6489 37.3 48.8322 37.3ZM48.8322 33.85C49.8656 33.85 50.7989 33.6167 51.6322 33.15C52.4656 32.6667 53.1156 32 53.5822 31.15C54.0656 30.3 54.3072 29.3333 54.3072 28.25C54.3072 27.1667 54.0656 26.2 53.5822 25.35C53.1156 24.5 52.4656 23.8417 51.6322 23.375C50.7989 22.8917 49.8656 22.65 48.8322 22.65C47.7989 22.65 46.8656 22.8917 46.0322 23.375C45.1989 23.8417 44.5406 24.5 44.0572 25.35C43.5906 26.2 43.3572 27.1667 43.3572 28.25C43.3572 29.3333 43.5906 30.3 44.0572 31.15C44.5406 32 45.1989 32.6667 46.0322 33.15C46.8656 33.6167 47.7989 33.85 48.8322 33.85ZM63.076 19.5H67.126V37H63.076V19.5ZM88.9541 19.5V37H85.6291L76.9041 26.375V37H72.9041V19.5H76.2541L84.9541 30.125V19.5H88.9541ZM103.425 19.5H111.375C113.275 19.5 114.95 19.8667 116.4 20.6C117.866 21.3167 119 22.3333 119.8 23.65C120.616 24.9667 121.025 26.5 121.025 28.25C121.025 30 120.616 31.5333 119.8 32.85C119 34.1667 117.866 35.1917 116.4 35.925C114.95 36.6417 113.275 37 111.375 37H103.425V19.5ZM111.175 33.675C112.925 33.675 114.316 33.1917 115.35 32.225C116.4 31.2417 116.925 29.9167 116.925 28.25C116.925 26.5833 116.4 25.2667 115.35 24.3C114.316 23.3167 112.925 22.825 111.175 22.825H107.475V33.675H111.175ZM125.704 19.5H129.754V37H125.704V19.5ZM141.282 37.3C139.899 37.3 138.557 37.1167 137.257 36.75C135.974 36.3667 134.94 35.875 134.157 35.275L135.532 32.225C136.282 32.775 137.174 33.2167 138.207 33.55C139.24 33.8833 140.274 34.05 141.307 34.05C142.457 34.05 143.307 33.8833 143.857 33.55C144.407 33.2 144.682 32.7417 144.682 32.175C144.682 31.7583 144.515 31.4167 144.182 31.15C143.865 30.8667 143.449 30.6417 142.932 30.475C142.432 30.3083 141.749 30.125 140.882 29.925C139.549 29.6083 138.457 29.2917 137.607 28.975C136.757 28.6583 136.024 28.15 135.407 27.45C134.807 26.75 134.507 25.8167 134.507 24.65C134.507 23.6333 134.782 22.7167 135.332 21.9C135.882 21.0667 136.707 20.4083 137.807 19.925C138.924 19.4417 140.282 19.2 141.882 19.2C142.999 19.2 144.09 19.3333 145.157 19.6C146.224 19.8667 147.157 20.25 147.957 20.75L146.707 23.825C145.09 22.9083 143.474 22.45 141.857 22.45C140.724 22.45 139.882 22.6333 139.332 23C138.799 23.3667 138.532 23.85 138.532 24.45C138.532 25.05 138.84 25.5 139.457 25.8C140.09 26.0833 141.049 26.3667 142.332 26.65C143.665 26.9667 144.757 27.2833 145.607 27.6C146.457 27.9167 147.182 28.4167 147.782 29.1C148.399 29.7833 148.707 30.7083 148.707 31.875C148.707 32.875 148.424 33.7917 147.857 34.625C147.307 35.4417 146.474 36.0917 145.357 36.575C144.24 37.0583 142.882 37.3 141.282 37.3ZM161.474 37.3C159.691 37.3 158.074 36.9167 156.624 36.15C155.191 35.3667 154.058 34.2917 153.224 32.925C152.408 31.5417 151.999 29.9833 151.999 28.25C151.999 26.5167 152.408 24.9667 153.224 23.6C154.058 22.2167 155.191 21.1417 156.624 20.375C158.074 19.5917 159.699 19.2 161.499 19.2C163.016 19.2 164.383 19.4667 165.599 20C166.833 20.5333 167.866 21.3 168.699 22.3L166.099 24.7C164.916 23.3333 163.449 22.65 161.699 22.65C160.616 22.65 159.649 22.8917 158.799 23.375C157.949 23.8417 157.283 24.5 156.799 25.35C156.333 26.2 156.099 27.1667 156.099 28.25C156.099 29.3333 156.333 30.3 156.799 31.15C157.283 32 157.949 32.6667 158.799 33.15C159.649 33.6167 160.616 33.85 161.699 33.85C163.449 33.85 164.916 33.1583 166.099 31.775L168.699 34.175C167.866 35.1917 166.833 35.9667 165.599 36.5C164.366 37.0333 162.991 37.3 161.474 37.3ZM181.168 37.3C179.351 37.3 177.71 36.9083 176.243 36.125C174.793 35.3417 173.651 34.2667 172.818 32.9C172.001 31.5167 171.593 29.9667 171.593 28.25C171.593 26.5333 172.001 24.9917 172.818 23.625C173.651 22.2417 174.793 21.1583 176.243 20.375C177.71 19.5917 179.351 19.2 181.168 19.2C182.985 19.2 184.618 19.5917 186.068 20.375C187.518 21.1583 188.66 22.2417 189.493 23.625C190.326 24.9917 190.743 26.5333 190.743 28.25C190.743 29.9667 190.326 31.5167 189.493 32.9C188.66 34.2667 187.518 35.3417 186.068 36.125C184.618 36.9083 182.985 37.3 181.168 37.3ZM181.168 33.85C182.201 33.85 183.135 33.6167 183.968 33.15C184.801 32.6667 185.451 32 185.918 31.15C186.401 30.3 186.643 29.3333 186.643 28.25C186.643 27.1667 186.401 26.2 185.918 25.35C185.451 24.5 184.801 23.8417 183.968 23.375C183.135 22.8917 182.201 22.65 181.168 22.65C180.135 22.65 179.201 22.8917 178.368 23.375C177.535 23.8417 176.876 24.5 176.393 25.35C175.926 26.2 175.693 27.1667 175.693 28.25C175.693 29.3333 175.926 30.3 176.393 31.15C176.876 32 177.535 32.6667 178.368 33.15C179.201 33.6167 180.135 33.85 181.168 33.85ZM206.562 37L203.187 32.125H202.987H199.462V37H195.412V19.5H202.987C204.537 19.5 205.879 19.7583 207.012 20.275C208.162 20.7917 209.045 21.525 209.662 22.475C210.279 23.425 210.587 24.55 210.587 25.85C210.587 27.15 210.27 28.275 209.637 29.225C209.02 30.1583 208.137 30.875 206.987 31.375L210.912 37H206.562ZM206.487 25.85C206.487 24.8667 206.17 24.1167 205.537 23.6C204.904 23.0667 203.979 22.8 202.762 22.8H199.462V28.9H202.762C203.979 28.9 204.904 28.6333 205.537 28.1C206.17 27.5667 206.487 26.8167 206.487 25.85ZM215.421 19.5H223.371C225.271 19.5 226.946 19.8667 228.396 20.6C229.862 21.3167 230.996 22.3333 231.796 23.65C232.612 24.9667 233.021 26.5 233.021 28.25C233.021 30 232.612 31.5333 231.796 32.85C230.996 34.1667 229.862 35.1917 228.396 35.925C226.946 36.6417 225.271 37 223.371 37H215.421V19.5ZM223.171 33.675C224.921 33.675 226.312 33.1917 227.346 32.225C228.396 31.2417 228.921 29.9167 228.921 28.25C228.921 26.5833 228.396 25.2667 227.346 24.3C226.312 23.3167 224.921 22.825 223.171 22.825H219.471V33.675H223.171Z" fill="black"/>
</g>
<defs>
<filter id="filter0_d" x="0" y="0" width="257" height="56" filterUnits="userSpaceOnUse" color-interpolation-filters="sRGB">
<feFlood flood-opacity="0" result="BackgroundImageFix"/>
<feColorMatrix in="SourceAlpha" type="matrix" values="0 0 0 0 0 0 0 0 0 0 0 0 0 0 0 0 0 0 127 0" result="hardAlpha"/>
<feOffset/>
<feGaussianBlur stdDeviation="4"/>
<feComposite in2="hardAlpha" operator="out"/>
<feColorMatrix type="matrix" values="0 0 0 0 0.807843 0 0 0 0 0.847059 0 0 0 0 0.968627 0 0 0 1 0"/>
<feBlend mode="normal" in2="BackgroundImageFix" result="effect1_dropShadow"/>
<feBlend mode="normal" in="SourceGraphic" in2="effect1_dropShadow" result="shape"/>
</filter>
</defs>
</svg>
