<svg width="1920" height="399" viewBox="0 0 1920 399" fill="none" xmlns="http://www.w3.org/2000/svg">
<path d="M-526 326.48C-410.383 326.157 -284.392 330.186 -170.709 320.778C18.4789 305.088 194.19 266.401 381.465 247.291C448.68 240.439 515.002 236.334 580.027 248.954C635.296 259.702 680.276 278.907 722.598 297.6C797.551 330.708 876.691 375.135 989.843 379.279C1062.88 381.949 1134.11 364.539 1195.82 349.22C1265.76 331.849 1332.38 311.968 1402.29 294.587C1465.02 278.983 1539.36 260.538 1613.87 264.529C1678.06 267.969 1731.95 287.118 1777.74 306.086C1867.38 343.233 1959.36 402.856 2097.25 397.315C2255.79 390.967 2374.02 330.87 2535.02 326.479" stroke="url(#paint0_linear)" stroke-miterlimit="10"/>
<path d="M-525.984 315.332C-409.877 314.743 -284.269 319.827 -170.182 309.763C15.647 293.37 187.404 254.047 371.257 234.261C439.279 226.934 503.858 223.124 569.819 235.829C626.087 246.653 672.661 265.659 716.536 284.19C793.975 316.938 876.453 361.811 989.604 367.466C1062.2 371.096 1133.68 353.639 1194.86 338.329C1263.95 321.043 1329.57 301.144 1398.63 283.839C1461.23 268.149 1535.57 249.846 1609.97 254.588C1673.98 258.665 1728.65 278.089 1775.07 296.848C1865.18 333.245 1959.82 391.746 2096.06 386.367C2254.97 380.086 2373.59 319.646 2534.97 315.332" stroke="url(#paint1_linear)" stroke-miterlimit="10"/>
<path d="M-525.938 304.376C-409.173 303.672 -283.905 310.172 -169.117 299.519C12.9291 282.623 180.201 242.786 360.185 222.545C428.781 214.809 491.851 211.36 558.556 223.904C615.695 234.652 664.14 253.163 709.651 271.552C789.684 303.862 875.967 348.574 989.012 355.597C1060.95 360.073 1131.88 342.977 1192.51 327.734C1260.42 310.628 1324.66 290.853 1392.54 273.757C1454.95 258.038 1528.58 240.258 1602.64 245.675C1666.71 250.37 1722.36 269.879 1769.83 288.439C1861.13 324.075 1958.87 381.113 2094.06 375.81C2253.68 369.557 2372.95 308.728 2535.04 304.432" stroke="url(#paint2_linear)" stroke-miterlimit="10"/>
<path d="M-525.9 293.627C-408.327 292.952 -283.123 301.172 -167.527 289.978C10.3526 272.768 172.757 232.522 348.51 211.929C417.383 203.861 479.263 200.83 546.52 213.013C604.679 223.542 654.931 241.522 702.207 259.577C785.577 291.308 874.878 335.374 988.242 343.689C1059.33 348.897 1129.01 332.542 1189.04 317.404C1255.47 300.64 1318.07 281.035 1384.45 264.253C1446.63 248.525 1518.84 231.629 1592.45 237.644C1656.82 242.919 1713.62 262.352 1762.51 280.655C1855.64 315.503 1956.86 370.792 2091.34 365.517C2251.93 359.217 2372.12 297.979 2535.18 293.655" stroke="url(#paint3_linear)" stroke-miterlimit="10"/>
<path d="M-525.883 283.088C-407.353 282.556 -282.192 292.752 -165.554 281.073C7.86136 263.711 165.1 223.104 336.326 202.397C405.156 194.054 466.185 191.459 533.783 203.11C592.984 213.316 645 230.669 694.21 248.173C781.364 279.182 873.386 322.193 987.175 331.705C1124.5 343.194 1263.26 283.401 1374.54 255.215C1436.49 239.516 1506.74 223.789 1579.72 230.374C1644.59 236.238 1702.58 255.481 1753.15 273.509C1848.64 307.539 1953.65 360.851 2087.78 355.548C2249.57 349.162 2370.9 287.478 2535.14 283.088" stroke="url(#paint4_linear)" stroke-miterlimit="10"/>
<path d="M-525.828 272.768C-406.257 272.474 -281.074 284.856 -163.225 272.768C5.53477 255.397 157.353 214.6 323.817 193.827C392.414 185.274 452.848 183.145 520.636 194.121C580.921 203.9 634.744 220.483 685.889 237.436C776.827 267.561 871.591 309.137 985.954 319.828C1121.19 332.448 1253.98 274.384 1363.2 246.654C1423.59 231.344 1494 215.912 1564.98 223.799C1630.87 231.116 1688.93 248.859 1742.37 266.914C1840.59 300.08 1949.64 351.235 2083.78 345.875C2246.95 339.366 2369.58 277.216 2535.19 272.702" stroke="url(#paint5_linear)" stroke-miterlimit="10"/>
<path d="M-525.79 262.648C-405.092 262.648 -279.782 277.406 -160.614 264.872C3.34151 247.623 149.59 206.656 311.144 185.996C591.738 150.084 738.114 282.661 984.59 308.034C1117.45 321.728 1243.52 265.755 1350.76 238.586C1410.88 223.381 1478.56 209.535 1548.65 217.869C1615.37 225.804 1674.79 243.157 1730.37 260.871C1831.66 293.181 1944.94 342.008 2079.35 336.562C2244.03 329.91 2368.11 267.276 2535.25 262.648" stroke="url(#paint6_linear)" stroke-miterlimit="10"/>
<path d="M-525.75 252.746C-403.883 253.145 -278.36 270.326 -157.768 257.421C1.29868 240.401 141.957 199.338 298.473 178.859C573.263 142.919 740.62 269.138 983.121 296.326C1113.68 310.98 1232.19 257.487 1337.48 230.841C1397.34 215.693 1462.06 203.672 1531.15 212.386C1598.77 220.939 1659.69 237.854 1717.51 255.197C1822.05 286.557 1939.65 333.037 2074.63 327.468C2240.92 320.616 2366.55 257.525 2535.31 252.745" stroke="url(#paint7_linear)" stroke-miterlimit="10"/>
<path d="M-525.704 243.053C-402.626 243.86 -276.847 263.551 -154.747 250.322C-0.54786 233.616 134.35 192.506 286.019 172.302C554.985 136.466 743.046 255.787 981.614 284.79C1109.84 300.375 1220.29 249.515 1323.73 223.391C1383.37 208.328 1444.89 198.236 1512.91 207.235C1581.47 216.349 1643.96 232.894 1704.08 249.809C1811.98 280.219 1933.91 324.275 2069.57 318.583C2237.5 311.522 2364.79 247.956 2535.23 243.014" stroke="url(#paint8_linear)" stroke-miterlimit="10"/>
<path d="M-525.664 233.568C-401.396 234.794 -275.256 257.003 -151.54 243.499C-2.10251 227.173 127.226 186.044 274.006 166.182C537.253 130.555 745.424 242.71 980.081 273.453C1105.99 289.95 1208.15 241.798 1309.82 216.178C1369.21 201.21 1427.73 193.104 1494.63 202.427C1564.14 212.12 1628.27 228.246 1690.64 244.744C1801.92 274.203 1928.15 315.827 2064.66 309.992C2234.35 302.731 2363.22 238.719 2535.36 233.568" stroke="url(#paint9_linear)" stroke-miterlimit="10"/>
<path d="M-525.625 224.303C-400.208 225.937 -273.643 250.607 -148.503 236.875C-3.65706 220.977 120.208 179.857 262.312 160.385C520.351 125.034 747.823 229.89 978.675 262.353C1102.29 279.743 1196.14 234.3 1296.15 209.136C1355.29 194.263 1410.94 188.143 1476.56 197.732C1547.03 208.014 1612.77 223.77 1677.37 239.812C1791.93 268.264 1922.36 307.54 2059.81 301.581C2231.21 294.121 2361.66 229.586 2535.48 224.321" stroke="url(#paint10_linear)" stroke-miterlimit="10"/>
<path d="M-525.579 215.237C-398.908 217.261 -272.045 244.297 -145.374 230.375C-4.88636 214.933 113.749 173.841 251.432 154.788C504.518 119.76 750.187 217.337 977.17 251.519C1098.72 269.822 1184.17 226.897 1282.8 202.237C1341.75 187.507 1394.49 183.23 1459 193.095C1530.39 203.966 1597.73 219.409 1664.43 234.984C1782.13 262.457 1916.58 299.424 2054.99 293.314C2228 285.664 2359.99 220.663 2535.4 215.237" stroke="url(#paint11_linear)" stroke-miterlimit="10"/>
<path d="M-525.539 206.39C-397.678 208.746 -270.454 238.006 -142.359 223.942C-5.88835 208.965 107.837 167.874 241.395 149.267C370.957 131.211 508.788 151.595 629.805 173.376C746.506 194.387 857.447 221.946 975.891 241C1095.91 260.31 1172.46 219.409 1270.34 195.385C1400.33 163.502 1533.46 203.938 1652.44 230.156C1772.99 256.689 1911.22 291.451 2050.54 285.208C2225.08 277.396 2358.52 211.939 2535.48 206.38" stroke="url(#paint12_linear)" stroke-miterlimit="10"/>
<path d="M-525.493 197.742C-396.442 200.374 -269.197 231.658 -139.465 217.489C-6.62927 202.968 102.568 161.906 232.534 143.707C360.906 125.708 502.372 145.256 623.962 165.203C743.023 184.741 856.345 210.542 974.768 230.841C1093.19 251.139 1162.36 212.243 1259 188.562C1386.03 157.439 1524.71 200.916 1641.62 225.291C1764.7 250.949 1906.44 283.602 2046.53 277.273C2222.43 269.319 2357.18 203.424 2535.44 197.742" stroke="url(#paint13_linear)" stroke-miterlimit="10"/>
<path d="M-525.453 189.313C-395.189 192.164 -268.051 225.196 -136.809 210.942C-7.14116 196.868 98.0389 155.824 224.561 137.977C351.955 120.064 496.652 138.813 618.795 157.107C739.96 175.267 855.556 199.519 973.788 221.062C1029.57 231.221 1070.44 231.639 1124.37 218.534C1168.21 207.882 1205.28 192.411 1249.05 181.682C1307.44 167.351 1353.95 167.75 1415.11 178.403C1488.59 191.223 1560.19 205.962 1632.29 220.283C1757.43 245.067 1902.26 275.819 2042.98 269.433C2220.09 261.393 2355.97 195.062 2535.5 189.312" stroke="url(#paint14_linear)" stroke-miterlimit="10"/>
<path d="M-525.409 181.083C-393.934 183.934 -267.178 218.544 -134.406 204.242C-7.31015 190.548 94.2774 149.352 218.249 131.961C344.983 114.181 492.338 132.151 614.97 149.067C737.602 165.982 855.345 188.98 973.194 211.787C1027.65 222.326 1067.47 223.818 1120.93 210.78C1163.32 200.44 1198.69 185.178 1240.97 174.763C1299.04 160.451 1344.83 161.972 1404.93 172.976C1478.77 186.499 1551.47 201.21 1624.94 215.132C1751.65 239.137 1899.3 268.178 2040.24 261.773C2218.33 253.686 2355.12 186.955 2535.53 181.168" stroke="url(#paint15_linear)" stroke-miterlimit="10"/>
<path d="M-525.367 173.081C-392.659 175.856 -266.626 211.664 -132.366 197.324C-7.16227 183.934 91.258 142.424 213.508 125.547C340.072 108.052 489.021 125.205 612.418 140.913C736.814 156.736 855.578 178.774 972.938 202.835C1026.29 213.764 1065.66 216.064 1118.72 203.025C1159.96 192.905 1193.91 177.738 1235.02 167.522C1292.81 153.163 1338.56 155.491 1397.74 166.914C1471.69 181.168 1545.24 195.917 1619.83 209.544C1747.38 232.855 1897.49 260.395 2038.32 254.038C2217.12 245.96 2354.56 178.849 2535.74 173.081" stroke="url(#paint16_linear)" stroke-miterlimit="10"/>
<path d="M-525.328 165.279C-391.408 167.798 -266.459 204.47 -130.711 190.092C-6.80374 176.968 89.4908 135.278 210.274 118.6C336.434 101.191 487.338 117.973 611.055 132.703C736.726 147.67 856.021 169.109 972.829 194.473C1025.31 205.876 1064.89 208.632 1117.67 195.508C1158.06 185.464 1190.95 170.287 1231.27 160.147C1288.86 145.665 1335.24 148.402 1393.72 160.347C1467.52 175.419 1541.63 190.272 1617.05 203.671C1744.97 226.393 1896.83 252.698 2037.09 246.435C2216.3 238.443 2354.09 170.971 2535.69 165.279" stroke="url(#paint17_linear)" stroke-miterlimit="10"/>
<path d="M-525.266 157.677C-390.666 159.939 -266.588 197.01 -130.012 182.499C-6.52922 169.385 89.1915 127.733 209.592 111.15C335.625 93.7973 487.209 110.922 610.968 125.338C737.086 140.03 855.998 161.307 972.955 186.785C1025.25 198.188 1065.38 200.564 1117.8 187.526C1157.91 177.548 1190.58 162.504 1230.7 152.498C1288.09 138.186 1335.32 140.847 1393.25 153.134C1466.74 168.719 1540.92 183.687 1616.66 196.953C1743.97 219.257 1897.81 245.266 2036.98 238.766C2215.94 230.423 2354.62 164.091 2535.75 157.705" stroke="url(#paint18_linear)" stroke-miterlimit="10"/>
<path d="M-525.212 150.198C-390.315 152.346 -266.599 189.664 -129.703 174.982C-6.41197 161.754 89.7976 120.454 210.283 103.975C336.316 86.7367 487.56 104.612 611.128 119.123C736.842 133.891 855.244 155.13 973.008 179.401C1084.48 202.37 1139.73 167.047 1231.54 145.019C1288.93 131.249 1336.46 133.758 1393.86 146.093C1467.02 161.82 1541.08 176.75 1616.8 189.864C1743.37 211.778 1899.2 237.911 2037.37 230.86C2215.57 221.756 2355.95 158.124 2535.87 150.34" stroke="url(#paint19_linear)" stroke-miterlimit="10"/>
<path d="M-525.173 142.834C-389.871 144.905 -266.453 182.499 -129.132 167.694C-5.84098 154.389 90.7512 113.526 211.3 97.1999C337.333 80.0944 488.131 98.6538 611.507 113.213C736.733 127.99 854.688 149.134 973.133 172.179C1083.67 193.694 1140.89 158.998 1232.77 137.968C1290.16 124.797 1338.12 127.229 1395 139.583C1467.83 155.397 1541.67 170.212 1617.37 183.098C1743.43 204.565 1900.81 230.423 2037.84 222.897C2215.14 213.166 2357.24 152.298 2535.85 143.28" stroke="url(#paint20_linear)" stroke-miterlimit="10"/>
<path d="M-525.127 135.602C-389.358 137.616 -266.131 175.514 -128.3 160.642C-5.15763 147.357 92.0085 106.959 212.642 90.8041C338.676 73.9837 488.985 93.0088 612.127 107.577C736.757 122.307 854.458 143.289 973.327 165.061C1083.08 185.141 1142.26 151.215 1234.36 131.164C1291.91 118.648 1340.22 121.081 1396.68 133.425C1469.11 149.267 1542.8 163.911 1618.37 176.493C1744.11 197.447 1902.45 222.668 2038.54 214.752C2214.98 204.499 2358.72 146.492 2535.96 136.362" stroke="url(#paint21_linear)" stroke-miterlimit="10"/>
<path d="M-525.088 128.493C-388.745 130.489 -265.751 168.682 -127.219 153.8C-4.18272 140.591 93.5786 100.649 214.319 84.8172C340.309 68.2913 489.853 87.7441 612.953 102.265C736.903 116.899 854.242 137.664 973.601 158.124C1082.52 176.797 1143.78 143.765 1236.32 124.796C1294.05 112.956 1342.75 115.474 1398.85 127.78C1470.71 143.702 1544.44 157.87 1619.73 170.221C1745.36 190.596 1904.15 214.885 2039.45 206.608C2214.74 195.936 2360.24 140.857 2535.93 129.766" stroke="url(#paint22_linear)" stroke-miterlimit="10"/>
<path d="M-525.025 121.518C-388.065 123.514 -265.114 162.039 -125.901 147.176C-2.97177 134.071 95.4485 94.6622 216.338 79.1532C342.286 62.998 491.192 82.7548 614.058 97.209C737.349 111.692 854.369 132.171 974.004 151.3C1082.12 168.596 1145.59 136.542 1238.68 118.724C1296.69 107.615 1345.75 110.276 1401.53 122.525C1472.95 138.342 1546.42 152.244 1621.54 164.158C1747.23 183.896 1906 206.865 2040.58 198.369C2214.74 187.374 2361.9 135.307 2536.06 123.352" stroke="url(#paint23_linear)" stroke-miterlimit="10"/>
<path d="M-524.978 114.695C-387.317 116.7 -264.387 155.558 -124.388 140.809C-1.54366 127.866 97.5781 89.0269 218.51 73.8885C344.394 58.1324 492.513 78.1268 615.273 92.4574C737.65 106.712 854.628 126.868 974.39 144.639C1081.74 160.575 1147.55 129.614 1241.27 113.003C1299.6 102.664 1349.05 105.524 1404.59 117.755C1475.53 133.42 1548.66 147.009 1623.54 158.437C1749.44 177.443 1907.73 198.882 2041.73 190.187C2214.68 178.973 2363.43 129.975 2536.02 117.289" stroke="url(#paint24_linear)" stroke-miterlimit="10"/>
<path d="M-524.938 108.005C-386.512 110.057 -263.476 149.286 -122.669 134.613C0.0903067 121.898 99.9348 83.6768 220.994 68.947C346.793 53.6471 494.105 73.7841 616.588 87.9531C738.115 102.018 854.965 121.717 974.77 138.12C1081.37 152.707 1149.65 122.915 1244.08 107.577C1302.77 98.0738 1352.59 101.153 1407.97 113.279C1478.43 128.758 1551.27 141.985 1625.92 152.859C1752.23 171.133 1909.61 190.757 2043.13 181.91C2214.82 170.506 2365.11 124.692 2536.08 111.349" stroke="url(#paint25_linear)" stroke-miterlimit="10"/>
<path d="M-524.893 101.467C-385.638 103.576 -262.623 143.185 -120.774 128.712C1.90022 116.187 102.531 78.6117 223.718 64.3381C349.411 49.5418 495.809 69.7453 618.122 83.7338C738.798 97.5417 855.542 116.747 975.241 131.762C1081.12 145.067 1152.01 116.491 1247.18 102.474C1306.28 93.7785 1356.49 97.1901 1411.73 109.126C1481.71 124.371 1554.19 137.193 1628.56 147.48C1755.35 164.918 1911.47 182.518 2044.6 173.566C2215.02 162.162 2366.73 119.494 2536.08 105.6" stroke="url(#paint26_linear)" stroke-miterlimit="10"/>
<path d="M-524.853 95.0899C-384.726 97.2756 -261.584 137.264 -118.843 122.991C3.89549 110.76 105.313 73.8315 226.648 60.0521C352.214 45.7975 497.591 65.9915 619.904 79.7709C739.688 93.2842 856.347 111.939 975.918 125.557C1081.08 137.54 1154.73 110.295 1250.69 97.6651C1310.21 89.8346 1360.78 93.5788 1415.98 105.458C1485.45 120.435 1557.57 132.809 1631.61 142.453C1758.9 158.998 1913.44 174.431 2046.28 165.374C2215.35 153.904 2368.43 114.561 2536.17 100.193" stroke="url(#paint27_linear)" stroke-miterlimit="10"/>
<path d="M-524.807 88.9035C-383.808 91.1557 -260.517 131.525 -116.522 117.489C6.02521 105.534 108.293 69.3271 229.756 56.0704C355.173 42.3764 499.551 62.5229 621.588 76.0267C740.5 89.217 857.074 107.254 976.39 119.484C1080.89 130.204 1157.46 104.279 1254.16 93.1037C1314.1 86.157 1365.08 90.2528 1420.3 102.046C1489.24 116.724 1560.98 128.615 1634.66 137.578C1762.77 153.163 1915.4 166.182 2048.02 157.145C2215.78 145.741 2370.07 109.705 2536.21 94.9282" stroke="url(#paint28_linear)" stroke-miterlimit="10"/>
<path d="M-524.767 82.8216C-382.748 85.2068 -259.223 125.965 -114.208 112.195C8.31823 100.573 111.479 65.0888 233.027 52.3832C358.337 39.2975 501.631 59.3299 623.498 72.6057C741.517 85.4633 858.006 102.816 977.003 113.659C1080.89 123.162 1160.47 98.6345 1257.89 88.9509C1318.29 82.9164 1369.64 87.4494 1424.95 99.0811C1493.37 113.43 1564.71 124.806 1637.99 133.055C1766.9 147.613 1917.4 158.133 2049.85 149.086C2216.29 137.73 2371.68 105.134 2536.25 90.0151" stroke="url(#paint29_linear)" stroke-miterlimit="10"/>
<path d="M-524.721 76.9394C-381.682 79.4482 -257.945 120.596 -111.717 107.131C10.702 95.8505 114.692 61.1168 236.452 48.9909C361.593 36.5228 503.781 56.4127 625.457 69.3939C742.626 81.8904 858.966 98.5113 977.58 107.967C1080.93 116.206 1163.6 93.161 1261.77 84.9218C1322.58 79.8187 1374.3 84.7983 1429.8 96.3255C1497.69 110.317 1568.61 121.145 1641.46 128.636C1771.13 142.092 1919.33 149.999 2051.72 140.99C2216.87 129.767 2373.24 100.611 2536.3 85.1878" stroke="url(#paint30_linear)" stroke-miterlimit="10"/>
<path d="M-524.682 71.2375C-380.644 73.8794 -256.587 115.417 -109.233 102.274C13.2075 91.3555 118.069 57.3915 239.978 45.8643C364.948 34.052 506.01 53.7423 627.601 66.4194C743.941 78.5548 860.111 94.3774 978.343 102.455C1081.25 109.478 1167.06 87.9343 1265.93 81.2156C1327.19 77.0437 1379.27 82.4985 1434.99 93.8546C1502.34 107.485 1572.85 117.753 1645.24 124.473C1775.78 136.761 1921.46 141.969 2053.8 133.026C2217.48 121.946 2374.78 96.3064 2536.34 80.6263" stroke="url(#paint31_linear)" stroke-miterlimit="10"/>
<path d="M-524.642 65.7161C-379.562 68.5005 -255.187 110.38 -106.621 97.6368C15.8193 87.0979 121.552 53.9037 243.61 43.0037C368.411 31.8851 508.325 51.3284 629.766 63.6823C745.32 75.4376 861.277 90.4144 978.999 97.1236C1081.54 102.968 1170.48 82.9545 1269.99 77.7563C1331.63 74.5348 1384.12 80.4837 1440.04 91.6973C1506.88 104.939 1576.96 114.62 1648.85 120.539C1780.22 131.591 1923.32 134.052 2055.67 125.177C2218.16 114.286 2376.08 92.1914 2536.23 76.2832" stroke="url(#paint32_linear)" stroke-miterlimit="10"/>
<path d="M-524.595 60.3947C-378.453 63.3216 -253.716 105.629 -103.96 93.2182C18.4593 83.0594 125.127 50.6635 247.334 40.4382C371.922 29.9848 510.667 49.2095 632.088 61.2214C746.876 72.625 862.578 86.68 979.811 92.0302C1082.16 96.7057 1174.14 78.2508 1274.41 74.5826C1336.5 72.3114 1389.2 78.7829 1445.66 89.8445C1511.98 102.692 1581.63 111.772 1653 116.871C1952.73 139.004 2246.44 101.666 2536.53 72.2067" stroke="url(#paint33_linear)" stroke-miterlimit="10"/>
<path d="M-524.556 55.2436C-377.329 58.3321 -252.231 101.01 -101.242 88.989C21.1774 79.2388 128.759 47.6506 251.115 38.024C375.49 28.2359 513.066 47.223 634.232 58.8832C748.361 69.8973 863.723 83.04 980.425 87.0027C1082.76 90.5094 1177.63 73.6984 1278.64 71.5127C1341.09 70.1823 1394.24 77.2146 1451.01 88.1146C1516.57 100.782 1586.19 108.86 1656.87 113.326C1948.96 131.791 2253.62 97.513 2536.46 68.2531" stroke="url(#paint34_linear)" stroke-miterlimit="10"/>
<path d="M-524.51 50.3022C-376.199 53.5522 -250.719 96.6011 -98.497 84.9788C23.9438 75.5993 132.419 44.8569 254.923 35.8765C379.086 26.782 515.471 45.5126 636.509 56.7832C750.022 67.3791 864.98 79.5905 981.15 82.2608C1083.67 84.6176 1181.22 69.3937 1283 68.757C1345.82 68.3673 1399.3 75.9508 1456.52 86.7177C1521.65 98.9672 1590.8 106.351 1660.89 110.019C1794.4 117.004 1929.79 111.055 2062.2 102.512C2221.08 92.258 2380.18 81.0063 2536.51 64.4995" stroke="url(#paint35_linear)" stroke-miterlimit="10"/>
<path d="M-524.47 45.56C-376.351 48.9145 -251.041 92.0394 -98.9674 81.415C22.9845 72.8622 131.672 43.3172 253.22 34.3558C376.086 25.2994 509.729 43.2696 629.704 54.1221C745.683 64.5755 863.171 76.2547 981.892 77.7182C1087.28 79.0201 1189.98 64.6325 1295.14 66.3145C1358.61 67.3313 1411.52 76.6063 1469.7 86.9076C1530.13 97.608 1593.95 103.738 1658.48 106.636C1795.85 112.803 1932.08 103.709 2067.81 95.1277C2224.47 85.2255 2382.54 77.604 2536.61 61.0497" stroke="url(#paint36_linear)" stroke-miterlimit="10"/>
<path d="M-524.447 41.027C-375.308 44.5432 -249.487 88.0291 -96.2871 77.8133C25.686 69.6787 135.245 40.9129 256.984 32.6073C379.595 24.2826 512.175 41.9963 631.98 52.4971C747.406 62.6274 864.448 73.4038 982.552 73.4038C1088.56 73.4038 1193.53 60.9263 1299.56 64.1098C1363.12 66.0104 1416.47 75.8176 1475.1 85.9003C1535.13 96.2206 1598.52 101.704 1662.5 103.871C1800.31 108.537 1934.19 96.5342 2069.89 88.1905C2225.54 78.6209 2383.59 74.5441 2536.57 57.7807" stroke="url(#paint37_linear)" stroke-miterlimit="10"/>
<path d="M-524.407 36.7129C-374.141 40.3906 -248.065 84.2282 -93.5689 74.4115C28.4468 66.657 138.856 38.699 260.766 31.0395C383.121 23.3325 514.66 40.9226 634.401 51.0814C749.19 60.841 865.785 70.6482 983.273 69.2607C1090.05 67.9968 1197.08 57.3914 1304 62.0574C1367.64 64.8418 1421.42 75.1716 1480.43 85.0358C1539.95 94.9855 1603.04 99.8225 1666.43 101.257C1804.6 104.403 1936.27 89.5497 2071.93 81.4341C2226.6 72.1781 2384.41 71.6649 2536.51 54.6924" stroke="url(#paint38_linear)" stroke-miterlimit="10"/>
<path d="M-524.361 32.6168C-373.053 36.418 -246.446 80.6262 -90.8653 71.2182C31.1716 63.8343 142.431 36.6365 264.532 29.6613C386.633 22.686 517.109 40.0386 636.531 49.8457C751.043 59.2537 867.085 68.1391 983.935 65.3547C1091.65 62.7888 1200.5 54.084 1308.32 60.2135C1372.09 63.8342 1426.25 74.7247 1485.82 84.3608C1545.38 93.9969 1607.66 98.1402 1670.45 98.8624C1808.63 100.468 1938.55 82.8307 2074.06 74.9432C2227.84 65.9913 2385.52 69.0323 2536.6 51.8127" stroke="url(#paint39_linear)" stroke-miterlimit="10"/>
<path d="M-524.339 28.7399C-371.989 32.7312 -244.936 77.2055 -88.2497 68.2346C33.851 61.2118 145.918 34.8408 268.189 28.4548C389.95 22.0972 519.618 39.3357 638.828 48.8103C752.999 57.8762 868.404 65.8302 984.68 61.6774C1093.45 57.7906 1203.93 50.9769 1312.7 58.5414C1376.28 62.9698 1431.08 74.4305 1491.07 83.848C1549.95 93.085 1612.23 96.6391 1674.35 96.6676C1812.52 96.7436 1940.78 76.407 2076.1 68.7286C2229.15 60.0428 2386.46 66.6284 2536.6 49.1332" stroke="url(#paint40_linear)" stroke-miterlimit="10"/>
<path d="M-524.321 25.0999C-370.951 29.2242 -243.515 74.0691 -85.7026 65.4403C36.4619 58.7881 149.337 33.1299 271.756 27.428C393.39 21.7262 521.761 38.8317 640.992 47.9736C754.93 56.6784 869.761 63.7392 985.357 58.2369C1095.3 53.0102 1207.2 48.0876 1316.97 57.0585C1380.53 62.2376 1435.79 74.278 1496.23 83.477C1554.83 92.3908 1616.59 95.3083 1678.13 94.6621C1816.08 93.2271 1943.01 70.2867 2078.14 62.7888C2230.32 54.35 2387.22 64.4803 2536.66 46.6335" stroke="url(#paint41_linear)" stroke-miterlimit="10"/>
<path d="M-524.277 21.6882C-369.95 25.9551 -242.068 71.1041 -83.2135 62.8554C39.0147 56.4979 152.74 31.6664 275.223 26.5062C396.601 21.3936 523.931 38.4705 643.099 47.2704C756.824 55.6426 871.081 61.8195 986.018 54.9963C1097.19 48.4012 1210.47 45.3412 1321.01 55.69C1384.5 61.6294 1440.24 74.24 1501.2 83.2489C1559.45 91.8016 1620.88 94.1584 1681.89 92.8565C1819.49 89.939 1945.33 64.5088 2080.23 57.1724C2231.68 48.9333 2388.11 62.5796 2536.83 44.3813" stroke="url(#paint42_linear)" stroke-miterlimit="10"/>
<path d="M-524.258 18.5144C-369.082 22.9143 -240.731 68.3864 -80.8568 60.4704C41.4352 54.4074 155.798 30.3266 278.558 25.7367C399.723 21.2132 526.118 38.2617 645.094 46.7574C758.671 54.8825 872.353 60.1282 986.61 52.0126C1099.08 44.03 1213.38 42.7946 1324.87 54.4833C1388.24 61.1355 1444.51 74.3162 1505.88 83.116C1563.82 91.4217 1624.92 93.1417 1685.29 91.2221C1822.4 86.8602 1947.37 59.0827 2082.01 51.8414C2232.93 43.7543 2388.73 60.8978 2536.78 42.2623" stroke="url(#paint43_linear)" stroke-miterlimit="10"/>
<path d="M-524.236 15.5969C-368.082 20.1014 -239.391 65.8776 -78.6239 58.2751C43.7744 52.4973 158.839 29.1292 281.726 25.0999C402.7 21.1371 528.117 38.1856 646.987 46.4152C760.457 54.2743 873.587 58.6457 987.206 49.2661C1100.83 39.8866 1216.25 40.4378 1328.62 53.4189C1391.83 60.7268 1448.65 74.3257 1510.36 83.0875C1567.76 91.2506 1628.94 92.2769 1688.56 89.7396C1825.12 84.0378 1949.39 54.0176 2083.75 46.8713C2234.02 38.8792 2389.37 59.4913 2536.78 40.3521" stroke="url(#paint44_linear)" stroke-miterlimit="10"/>
<path d="M-524.104 12.8792C-367.1 17.4786 -238.133 63.5589 -76.4089 56.2511C45.9469 50.7488 161.692 28.084 284.728 24.5773C405.425 21.1372 530.035 38.2427 648.777 46.2348C762.183 53.8372 874.782 57.3819 987.742 46.7669C1102.83 35.9619 1218.93 38.2142 1332.11 52.4687C1395.2 60.3943 1452.51 74.5063 1514.58 83.1446C1571.74 91.0987 1632.6 91.5548 1691.61 88.5043C1755.99 85.1687 1818.77 77.5283 1880.58 69.0515C1947.29 59.9191 2015.93 45.9876 2085.42 42.3004C2235.17 34.3463 2389.99 58.3796 2536.81 38.6702" stroke="url(#paint45_linear)" stroke-miterlimit="10"/>
<path d="M-524.104 10.5032C-366.334 15.1787 -237.134 61.5536 -74.4745 54.4928C47.9875 49.1711 164.349 27.1335 287.534 24.1495C408.04 21.194 531.756 38.4041 650.392 46.1966C763.799 53.6279 875.951 56.3363 988.252 44.524C1104.59 32.284 1221.46 36.1708 1335.47 51.6608C1398.28 60.2135 1456.08 74.7532 1518.47 83.2679C1575.39 91.0319 1635.98 90.9749 1694.41 87.4017C1758.67 83.4865 1821.08 75.1808 1882.54 66.1624C1948.75 56.4503 2017.5 41.7965 2086.97 38.0808C2236.26 30.1077 2390.58 57.5146 2536.83 37.1305" stroke="url(#paint46_linear)" stroke-miterlimit="10"/>
<path d="M-524.104 8.34595C-365.612 13.0975 -236.071 59.748 -72.7102 52.8963C49.8368 47.7456 166.751 26.3732 290.042 23.8169C410.378 21.3175 533.265 38.7271 651.816 46.3201C765.244 53.5709 876.992 55.519 988.635 42.5188C1106.31 28.8629 1223.72 34.2796 1338.53 50.9575C1401.11 60.0424 1459.33 75.0287 1522.04 83.4484C1578.73 91.0509 1638.95 90.5187 1696.96 86.4799C1761.07 82.0135 1823.17 73.0806 1884.3 63.568C1950.07 53.3332 2018.9 38.0333 2088.37 34.2606C2237.17 26.183 2391.13 56.9253 2536.89 35.8095" stroke="url(#paint47_linear)" stroke-miterlimit="10"/>
<path d="M-524.104 6.45483C-364.953 11.2064 -235.199 58.18 -71.1372 51.4898C51.5586 46.4817 169.068 25.6985 292.486 23.5603C412.695 21.4696 534.817 39.1358 653.24 46.5767C766.711 53.6944 878.14 54.9203 989.102 40.8083C1107.99 25.6889 1225.69 32.5311 1341.31 50.3113C1403.68 59.9189 1462.28 75.2948 1525.25 83.6385C1581.75 91.1174 1641.76 90.1671 1699.22 85.7007C1763.24 80.721 1824.99 71.218 1885.85 61.2493C1951.26 50.5203 2020.13 34.6977 2089.69 30.8395C2238.19 22.5908 2391.77 56.5927 2536.89 34.6406" stroke="url(#paint48_linear)" stroke-miterlimit="10"/>
<path d="M-524.104 4.8396C-364.336 9.59112 -234.455 56.8593 -69.7555 50.2737C52.9616 45.3701 171.002 25.1381 294.527 23.3325C414.608 21.6124 535.923 39.5922 654.346 46.9285C767.88 53.9608 879.097 54.531 989.421 39.3261C1109.54 22.7622 1227.31 30.8968 1343.78 49.7794C1405.87 59.8526 1464.81 75.5802 1528.01 83.8669C1584.34 91.2602 1644.05 89.9488 1701.11 85.1022C1765.05 79.657 1826.52 69.6408 1887.13 59.2539C1952.24 48.0878 2021.05 31.8566 2090.79 27.8938C2238.98 19.3885 2392.37 56.593 2536.92 33.6716" stroke="url(#paint49_linear)" stroke-miterlimit="10"/>
<path d="M-524.104 3.48999C-365.123 8.24151 -235.667 55.5097 -71.9237 49.3802C57.4681 44.5432 182.545 22.6956 313.106 23.1422C424.727 23.5224 536.73 39.9151 646.991 46.9664C764.138 54.4548 876.27 54.2457 989.719 38.214C1115.52 20.4813 1233.39 29.8038 1354.64 50.8911C1408.99 60.3371 1460.78 73.2233 1515.53 82.0706C1573.48 91.4311 1637.1 90.5188 1696.73 85.3207C1764.39 79.4288 1829.16 68.2151 1892.97 56.8115C1957.3 45.2747 2025.68 29.034 2095.04 25.2328C2241.72 17.2407 2394.26 56.6974 2536.89 32.9017" stroke="url(#paint50_linear)" stroke-miterlimit="10"/>
<path d="M-524.104 2.42554C-364.676 7.11053 -235.221 54.6923 -71.0309 48.5534C58.4034 43.7068 184.054 22.3724 314.573 23.0851C426.108 23.7028 537.538 40.5517 647.735 47.6125C764.968 55.1199 877.077 54.3786 989.974 37.3016C1117.05 18.0674 1234.3 28.4828 1356.55 50.6059C1410.65 60.394 1462.58 73.3942 1517.49 82.2511C1575.31 91.6211 1638.65 90.5187 1697.94 85.0259C1765.56 78.7634 1830.07 67.0652 1893.7 55.3574C1957.94 43.5356 2026.3 27.1143 2095.83 23.123C2242.23 14.7793 2394.94 57.1914 2536.92 32.2459" stroke="url(#paint51_linear)" stroke-miterlimit="10"/>
<path d="M-524.104 1.66528C-364.357 6.27425 -235.008 54.1412 -70.3507 47.9071C59.1049 43.0035 185.032 22.1253 315.72 23.0661C427.214 23.8643 538.112 41.2549 648.266 48.3727C765.563 55.9752 877.843 54.7683 990.016 36.6649C1118.32 15.9672 1234.64 27.2569 1357.93 50.3113C1411.91 60.394 1463.96 73.5273 1518.91 82.4886C1576.69 91.9062 1639.48 90.7183 1698.73 84.9689C1835.6 71.6646 1958.23 30.0127 2096.43 21.612C2242.57 12.7266 2395.68 57.9992 2536.92 31.7992" stroke="url(#paint52_linear)" stroke-miterlimit="10"/>
<path d="M-524.104 1.18384C-364.102 5.69778 -234.795 53.8498 -69.9468 47.4637C59.5301 42.4366 185.882 21.967 316.507 23.0598C428.022 24.0101 538.431 42.0089 648.543 49.2502C765.882 56.9667 878.544 55.4082 990.08 36.326C1119.51 14.1744 1234.54 26.1197 1359 50.1054C1412.52 60.3972 1464.71 74.0341 1519.79 82.6439C1578.28 91.7763 1639.19 91.0351 1699.07 85.0291C1836.18 71.2687 1958.13 29.5788 2096.81 20.5699C2242.76 11.0668 2396.53 59.1047 2536.83 31.5173" stroke="url(#paint53_linear)" stroke-miterlimit="10"/>
<path d="M-524.104 1.00024C-363.932 5.38114 -234.859 53.8182 -69.8406 47.1946C59.6363 41.9964 186.159 21.8689 317.038 23.0473C428.574 24.0546 538.558 42.8136 648.649 50.226C765.988 58.123 879.246 56.3079 990.123 36.266C1120.56 12.6699 1233.96 25.0428 1359.61 49.9408C1474.4 72.6722 1568.97 98.549 1698.96 85.2257C1836.43 71.1326 1957.81 29.7943 2096.98 20.0632C2242.76 9.86636 2397.34 60.4987 2537 31.4668" stroke="url(#paint54_linear)" stroke-miterlimit="10"/>
<defs>
<linearGradient id="paint0_linear" x1="-526" y1="318.54" x2="2535.02" y2="318.54" gradientUnits="userSpaceOnUse">
<stop offset="0.161458" stop-color="#B881FF"/>
<stop offset="0.5" stop-color="#0CB6FF"/>
<stop offset="0.848958" stop-color="#27F09E"/>
</linearGradient>
<linearGradient id="paint1_linear" x1="-525.984" y1="306.407" x2="2534.97" y2="306.407" gradientUnits="userSpaceOnUse">
<stop offset="0.161458" stop-color="#B881FF"/>
<stop offset="0.5" stop-color="#0CB6FF"/>
<stop offset="0.848958" stop-color="#27F09E"/>
</linearGradient>
<linearGradient id="paint2_linear" x1="-525.938" y1="295.167" x2="2535.04" y2="295.167" gradientUnits="userSpaceOnUse">
<stop offset="0.161458" stop-color="#B881FF"/>
<stop offset="0.5" stop-color="#0CB6FF"/>
<stop offset="0.848958" stop-color="#27F09E"/>
</linearGradient>
<linearGradient id="paint3_linear" x1="-525.9" y1="284.652" x2="2535.18" y2="284.652" gradientUnits="userSpaceOnUse">
<stop offset="0.161458" stop-color="#B881FF"/>
<stop offset="0.5" stop-color="#0CB6FF"/>
<stop offset="0.848958" stop-color="#27F09E"/>
</linearGradient>
<linearGradient id="paint4_linear" x1="-525.883" y1="274.867" x2="2535.14" y2="274.866" gradientUnits="userSpaceOnUse">
<stop offset="0.161458" stop-color="#B881FF"/>
<stop offset="0.5" stop-color="#0CB6FF"/>
<stop offset="0.848958" stop-color="#27F09E"/>
</linearGradient>
<linearGradient id="paint5_linear" x1="-525.828" y1="265.743" x2="2535.19" y2="265.743" gradientUnits="userSpaceOnUse">
<stop offset="0.161458" stop-color="#B881FF"/>
<stop offset="0.5" stop-color="#0CB6FF"/>
<stop offset="0.848958" stop-color="#27F09E"/>
</linearGradient>
<linearGradient id="paint6_linear" x1="-525.79" y1="257.73" x2="2535.25" y2="257.73" gradientUnits="userSpaceOnUse">
<stop offset="0.161458" stop-color="#B881FF"/>
<stop offset="0.5" stop-color="#0CB6FF"/>
<stop offset="0.848958" stop-color="#27F09E"/>
</linearGradient>
<linearGradient id="paint7_linear" x1="-525.749" y1="249.511" x2="2535.31" y2="249.511" gradientUnits="userSpaceOnUse">
<stop offset="0.161458" stop-color="#B881FF"/>
<stop offset="0.5" stop-color="#0CB6FF"/>
<stop offset="0.848958" stop-color="#27F09E"/>
</linearGradient>
<linearGradient id="paint8_linear" x1="-525.704" y1="241.689" x2="2535.23" y2="241.689" gradientUnits="userSpaceOnUse">
<stop offset="0.161458" stop-color="#B881FF"/>
<stop offset="0.5" stop-color="#0CB6FF"/>
<stop offset="0.848958" stop-color="#27F09E"/>
</linearGradient>
<linearGradient id="paint9_linear" x1="-525.664" y1="234.238" x2="2535.36" y2="234.237" gradientUnits="userSpaceOnUse">
<stop offset="0.161458" stop-color="#B881FF"/>
<stop offset="0.5" stop-color="#0CB6FF"/>
<stop offset="0.848958" stop-color="#27F09E"/>
</linearGradient>
<linearGradient id="paint10_linear" x1="-525.625" y1="227.033" x2="2535.48" y2="227.033" gradientUnits="userSpaceOnUse">
<stop offset="0.161458" stop-color="#B881FF"/>
<stop offset="0.5" stop-color="#0CB6FF"/>
<stop offset="0.848958" stop-color="#27F09E"/>
</linearGradient>
<linearGradient id="paint11_linear" x1="-525.579" y1="220" x2="2535.4" y2="220" gradientUnits="userSpaceOnUse">
<stop offset="0.161458" stop-color="#B881FF"/>
<stop offset="0.5" stop-color="#0CB6FF"/>
<stop offset="0.848958" stop-color="#27F09E"/>
</linearGradient>
<linearGradient id="paint12_linear" x1="-525.539" y1="213.496" x2="2535.48" y2="213.496" gradientUnits="userSpaceOnUse">
<stop offset="0.161458" stop-color="#B881FF"/>
<stop offset="0.5" stop-color="#0CB6FF"/>
<stop offset="0.848958" stop-color="#27F09E"/>
</linearGradient>
<linearGradient id="paint13_linear" x1="-525.493" y1="206.711" x2="2535.44" y2="206.711" gradientUnits="userSpaceOnUse">
<stop offset="0.161458" stop-color="#B881FF"/>
<stop offset="0.5" stop-color="#0CB6FF"/>
<stop offset="0.848958" stop-color="#27F09E"/>
</linearGradient>
<linearGradient id="paint14_linear" x1="-525.453" y1="199.894" x2="2535.5" y2="199.893" gradientUnits="userSpaceOnUse">
<stop offset="0.161458" stop-color="#B881FF"/>
<stop offset="0.5" stop-color="#0CB6FF"/>
<stop offset="0.848958" stop-color="#27F09E"/>
</linearGradient>
<linearGradient id="paint15_linear" x1="-525.409" y1="193.033" x2="2535.53" y2="193.033" gradientUnits="userSpaceOnUse">
<stop offset="0.161458" stop-color="#B881FF"/>
<stop offset="0.5" stop-color="#0CB6FF"/>
<stop offset="0.848958" stop-color="#27F09E"/>
</linearGradient>
<linearGradient id="paint16_linear" x1="-525.367" y1="185.969" x2="2535.74" y2="185.969" gradientUnits="userSpaceOnUse">
<stop offset="0.161458" stop-color="#B881FF"/>
<stop offset="0.5" stop-color="#0CB6FF"/>
<stop offset="0.848958" stop-color="#27F09E"/>
</linearGradient>
<linearGradient id="paint17_linear" x1="-525.328" y1="178.676" x2="2535.69" y2="178.676" gradientUnits="userSpaceOnUse">
<stop offset="0.161458" stop-color="#B881FF"/>
<stop offset="0.5" stop-color="#0CB6FF"/>
<stop offset="0.848958" stop-color="#27F09E"/>
</linearGradient>
<linearGradient id="paint18_linear" x1="-525.266" y1="171.208" x2="2535.75" y2="171.207" gradientUnits="userSpaceOnUse">
<stop offset="0.161458" stop-color="#B881FF"/>
<stop offset="0.5" stop-color="#0CB6FF"/>
<stop offset="0.848958" stop-color="#27F09E"/>
</linearGradient>
<linearGradient id="paint19_linear" x1="-525.212" y1="163.868" x2="2535.87" y2="163.868" gradientUnits="userSpaceOnUse">
<stop offset="0.161458" stop-color="#B881FF"/>
<stop offset="0.5" stop-color="#0CB6FF"/>
<stop offset="0.848958" stop-color="#27F09E"/>
</linearGradient>
<linearGradient id="paint20_linear" x1="-525.173" y1="156.696" x2="2535.85" y2="156.696" gradientUnits="userSpaceOnUse">
<stop offset="0.161458" stop-color="#B881FF"/>
<stop offset="0.5" stop-color="#0CB6FF"/>
<stop offset="0.848958" stop-color="#27F09E"/>
</linearGradient>
<linearGradient id="paint21_linear" x1="-525.127" y1="149.647" x2="2535.96" y2="149.647" gradientUnits="userSpaceOnUse">
<stop offset="0.161458" stop-color="#B881FF"/>
<stop offset="0.5" stop-color="#0CB6FF"/>
<stop offset="0.848958" stop-color="#27F09E"/>
</linearGradient>
<linearGradient id="paint22_linear" x1="-525.088" y1="142.808" x2="2535.93" y2="142.808" gradientUnits="userSpaceOnUse">
<stop offset="0.161458" stop-color="#B881FF"/>
<stop offset="0.5" stop-color="#0CB6FF"/>
<stop offset="0.848958" stop-color="#27F09E"/>
</linearGradient>
<linearGradient id="paint23_linear" x1="-525.025" y1="136.085" x2="2536.06" y2="136.085" gradientUnits="userSpaceOnUse">
<stop offset="0.161458" stop-color="#B881FF"/>
<stop offset="0.5" stop-color="#0CB6FF"/>
<stop offset="0.848958" stop-color="#27F09E"/>
</linearGradient>
<linearGradient id="paint24_linear" x1="-524.978" y1="129.602" x2="2536.02" y2="129.602" gradientUnits="userSpaceOnUse">
<stop offset="0.161458" stop-color="#B881FF"/>
<stop offset="0.5" stop-color="#0CB6FF"/>
<stop offset="0.848958" stop-color="#27F09E"/>
</linearGradient>
<linearGradient id="paint25_linear" x1="-524.938" y1="123.251" x2="2536.08" y2="123.251" gradientUnits="userSpaceOnUse">
<stop offset="0.161458" stop-color="#B881FF"/>
<stop offset="0.5" stop-color="#0CB6FF"/>
<stop offset="0.848958" stop-color="#27F09E"/>
</linearGradient>
<linearGradient id="paint26_linear" x1="-524.893" y1="117.051" x2="2536.08" y2="117.051" gradientUnits="userSpaceOnUse">
<stop offset="0.161458" stop-color="#B881FF"/>
<stop offset="0.5" stop-color="#0CB6FF"/>
<stop offset="0.848958" stop-color="#27F09E"/>
</linearGradient>
<linearGradient id="paint27_linear" x1="-524.853" y1="111.118" x2="2536.17" y2="111.118" gradientUnits="userSpaceOnUse">
<stop offset="0.161458" stop-color="#B881FF"/>
<stop offset="0.5" stop-color="#0CB6FF"/>
<stop offset="0.848958" stop-color="#27F09E"/>
</linearGradient>
<linearGradient id="paint28_linear" x1="-524.807" y1="105.327" x2="2536.21" y2="105.327" gradientUnits="userSpaceOnUse">
<stop offset="0.161458" stop-color="#B881FF"/>
<stop offset="0.5" stop-color="#0CB6FF"/>
<stop offset="0.848958" stop-color="#27F09E"/>
</linearGradient>
<linearGradient id="paint29_linear" x1="-524.767" y1="99.8248" x2="2536.25" y2="99.8247" gradientUnits="userSpaceOnUse">
<stop offset="0.161458" stop-color="#B881FF"/>
<stop offset="0.5" stop-color="#0CB6FF"/>
<stop offset="0.848958" stop-color="#27F09E"/>
</linearGradient>
<linearGradient id="paint30_linear" x1="-524.721" y1="94.4986" x2="2536.3" y2="94.4984" gradientUnits="userSpaceOnUse">
<stop offset="0.161458" stop-color="#B881FF"/>
<stop offset="0.5" stop-color="#0CB6FF"/>
<stop offset="0.848958" stop-color="#27F09E"/>
</linearGradient>
<linearGradient id="paint31_linear" x1="-524.682" y1="89.4537" x2="2536.34" y2="89.4536" gradientUnits="userSpaceOnUse">
<stop offset="0.161458" stop-color="#B881FF"/>
<stop offset="0.5" stop-color="#0CB6FF"/>
<stop offset="0.848958" stop-color="#27F09E"/>
</linearGradient>
<linearGradient id="paint32_linear" x1="-524.642" y1="84.7278" x2="2536.23" y2="84.7277" gradientUnits="userSpaceOnUse">
<stop offset="0.161458" stop-color="#B881FF"/>
<stop offset="0.5" stop-color="#0CB6FF"/>
<stop offset="0.848958" stop-color="#27F09E"/>
</linearGradient>
<linearGradient id="paint33_linear" x1="-524.595" y1="80.1205" x2="2536.53" y2="80.1204" gradientUnits="userSpaceOnUse">
<stop offset="0.161458" stop-color="#B881FF"/>
<stop offset="0.5" stop-color="#0CB6FF"/>
<stop offset="0.848958" stop-color="#27F09E"/>
</linearGradient>
<linearGradient id="paint34_linear" x1="-524.556" y1="76.5581" x2="2536.46" y2="76.558" gradientUnits="userSpaceOnUse">
<stop offset="0.161458" stop-color="#B881FF"/>
<stop offset="0.5" stop-color="#0CB6FF"/>
<stop offset="0.848958" stop-color="#27F09E"/>
</linearGradient>
<linearGradient id="paint35_linear" x1="-524.51" y1="72.9263" x2="2536.51" y2="72.9262" gradientUnits="userSpaceOnUse">
<stop offset="0.161458" stop-color="#B881FF"/>
<stop offset="0.5" stop-color="#0CB6FF"/>
<stop offset="0.848958" stop-color="#27F09E"/>
</linearGradient>
<linearGradient id="paint36_linear" x1="-524.47" y1="69.9343" x2="2536.61" y2="69.9342" gradientUnits="userSpaceOnUse">
<stop offset="0.161458" stop-color="#B881FF"/>
<stop offset="0.5" stop-color="#0CB6FF"/>
<stop offset="0.848958" stop-color="#27F09E"/>
</linearGradient>
<linearGradient id="paint37_linear" x1="-524.447" y1="67.3524" x2="2536.57" y2="67.3523" gradientUnits="userSpaceOnUse">
<stop offset="0.161458" stop-color="#B881FF"/>
<stop offset="0.5" stop-color="#0CB6FF"/>
<stop offset="0.848958" stop-color="#27F09E"/>
</linearGradient>
<linearGradient id="paint38_linear" x1="-524.407" y1="65.0937" x2="2536.51" y2="65.0937" gradientUnits="userSpaceOnUse">
<stop offset="0.161458" stop-color="#B881FF"/>
<stop offset="0.5" stop-color="#0CB6FF"/>
<stop offset="0.848958" stop-color="#27F09E"/>
</linearGradient>
<linearGradient id="paint39_linear" x1="-524.361" y1="63.1944" x2="2536.6" y2="63.1943" gradientUnits="userSpaceOnUse">
<stop offset="0.161458" stop-color="#B881FF"/>
<stop offset="0.5" stop-color="#0CB6FF"/>
<stop offset="0.848958" stop-color="#27F09E"/>
</linearGradient>
<linearGradient id="paint40_linear" x1="-524.339" y1="61.5665" x2="2536.6" y2="61.5664" gradientUnits="userSpaceOnUse">
<stop offset="0.161458" stop-color="#B881FF"/>
<stop offset="0.5" stop-color="#0CB6FF"/>
<stop offset="0.848958" stop-color="#27F09E"/>
</linearGradient>
<linearGradient id="paint41_linear" x1="-524.321" y1="59.6159" x2="2536.66" y2="59.6159" gradientUnits="userSpaceOnUse">
<stop offset="0.161458" stop-color="#B881FF"/>
<stop offset="0.5" stop-color="#0CB6FF"/>
<stop offset="0.848958" stop-color="#27F09E"/>
</linearGradient>
<linearGradient id="paint42_linear" x1="-524.277" y1="57.1232" x2="2536.83" y2="57.1232" gradientUnits="userSpaceOnUse">
<stop offset="0.161458" stop-color="#B881FF"/>
<stop offset="0.5" stop-color="#0CB6FF"/>
<stop offset="0.848958" stop-color="#27F09E"/>
</linearGradient>
<linearGradient id="paint43_linear" x1="-524.258" y1="54.8997" x2="2536.78" y2="54.8996" gradientUnits="userSpaceOnUse">
<stop offset="0.161458" stop-color="#B881FF"/>
<stop offset="0.5" stop-color="#0CB6FF"/>
<stop offset="0.848958" stop-color="#27F09E"/>
</linearGradient>
<linearGradient id="paint44_linear" x1="-524.236" y1="52.9478" x2="2536.78" y2="52.9477" gradientUnits="userSpaceOnUse">
<stop offset="0.161458" stop-color="#B881FF"/>
<stop offset="0.5" stop-color="#0CB6FF"/>
<stop offset="0.848958" stop-color="#27F09E"/>
</linearGradient>
<linearGradient id="paint45_linear" x1="-524.104" y1="51.222" x2="2536.81" y2="51.2219" gradientUnits="userSpaceOnUse">
<stop offset="0.161458" stop-color="#B881FF"/>
<stop offset="0.5" stop-color="#0CB6FF"/>
<stop offset="0.848958" stop-color="#27F09E"/>
</linearGradient>
<linearGradient id="paint46_linear" x1="-524.104" y1="49.7646" x2="2536.83" y2="49.7645" gradientUnits="userSpaceOnUse">
<stop offset="0.161458" stop-color="#B881FF"/>
<stop offset="0.5" stop-color="#0CB6FF"/>
<stop offset="0.848958" stop-color="#27F09E"/>
</linearGradient>
<linearGradient id="paint47_linear" x1="-524.104" y1="48.5048" x2="2536.89" y2="48.5048" gradientUnits="userSpaceOnUse">
<stop offset="0.161458" stop-color="#B881FF"/>
<stop offset="0.5" stop-color="#0CB6FF"/>
<stop offset="0.848958" stop-color="#27F09E"/>
</linearGradient>
<linearGradient id="paint48_linear" x1="-524.104" y1="47.441" x2="2536.89" y2="47.4409" gradientUnits="userSpaceOnUse">
<stop offset="0.161458" stop-color="#B881FF"/>
<stop offset="0.5" stop-color="#0CB6FF"/>
<stop offset="0.848958" stop-color="#27F09E"/>
</linearGradient>
<linearGradient id="paint49_linear" x1="-524.104" y1="46.5845" x2="2536.92" y2="46.5844" gradientUnits="userSpaceOnUse">
<stop offset="0.161458" stop-color="#B881FF"/>
<stop offset="0.5" stop-color="#0CB6FF"/>
<stop offset="0.848958" stop-color="#27F09E"/>
</linearGradient>
<linearGradient id="paint50_linear" x1="-524.104" y1="45.9613" x2="2536.89" y2="45.9611" gradientUnits="userSpaceOnUse">
<stop offset="0.161458" stop-color="#B881FF"/>
<stop offset="0.5" stop-color="#0CB6FF"/>
<stop offset="0.848958" stop-color="#27F09E"/>
</linearGradient>
<linearGradient id="paint51_linear" x1="-524.104" y1="45.4437" x2="2536.92" y2="45.4436" gradientUnits="userSpaceOnUse">
<stop offset="0.161458" stop-color="#B881FF"/>
<stop offset="0.5" stop-color="#0CB6FF"/>
<stop offset="0.848958" stop-color="#27F09E"/>
</linearGradient>
<linearGradient id="paint52_linear" x1="-524.104" y1="45.1578" x2="2536.92" y2="45.1577" gradientUnits="userSpaceOnUse">
<stop offset="0.161458" stop-color="#B881FF"/>
<stop offset="0.5" stop-color="#0CB6FF"/>
<stop offset="0.848958" stop-color="#27F09E"/>
</linearGradient>
<linearGradient id="paint53_linear" x1="-524.104" y1="44.9662" x2="2536.83" y2="44.9661" gradientUnits="userSpaceOnUse">
<stop offset="0.161458" stop-color="#B881FF"/>
<stop offset="0.5" stop-color="#0CB6FF"/>
<stop offset="0.848958" stop-color="#27F09E"/>
</linearGradient>
<linearGradient id="paint54_linear" x1="-524.104" y1="44.544" x2="2537" y2="44.5439" gradientUnits="userSpaceOnUse">
<stop offset="0.161458" stop-color="#B881FF"/>
<stop offset="0.5" stop-color="#0CB6FF"/>
<stop offset="0.848958" stop-color="#27F09E"/>
</linearGradient>
</defs>
</svg>
