<?xml version="1.0" standalone="no"?>
<!DOCTYPE svg PUBLIC "-//W3C//DTD SVG 20010904//EN"
 "http://www.w3.org/TR/2001/REC-SVG-20010904/DTD/svg10.dtd">
<svg version="1.0" xmlns="http://www.w3.org/2000/svg"
 width="666.000000pt" height="375.000000pt" viewBox="0 0 666.000000 375.000000"
 preserveAspectRatio="xMidYMid meet">

<g transform="translate(0.000000,375.000000) scale(0.100000,-0.100000)"
fill="#000000" stroke="none">
<path d="M0 1875 l0 -1875 3330 0 3330 0 0 1875 0 1875 -3330 0 -3330 0 0
-1875z m5631 1309 c38 -20 69 -39 69 -43 -1 -3 -9 -20 -18 -38 -30 -57 -108
-217 -126 -258 l-17 -40 31 35 30 35 -18 -51 c-31 -84 -66 -153 -77 -150 -5 1
-23 36 -39 77 -16 41 -34 86 -40 102 -7 18 -18 27 -33 27 -13 0 -23 -5 -23
-11 0 -10 -35 30 -82 93 l-17 23 -1 -32 c0 -18 -3 -33 -7 -33 -13 1 -59 29
-47 30 5 0 19 7 30 15 15 12 11 12 -18 -1 -41 -19 -43 -24 -53 -147 -6 -67
-11 -82 -34 -106 l-28 -28 -64 24 c-35 13 -80 31 -99 40 -58 28 -96 21 -225
-42 -66 -31 -143 -68 -171 -80 l-52 -23 -26 106 c-15 58 -29 108 -31 111 -13
13 -13 -12 0 -75 9 -38 22 -100 30 -139 8 -38 25 -116 38 -173 13 -57 20 -105
16 -107 -4 -3 -13 19 -19 48 -7 28 -16 57 -20 62 -6 9 -23 51 -102 257 -31 82
-48 108 -48 74 0 -8 18 -104 40 -213 22 -109 40 -205 39 -213 -1 -20 -25 61
-39 133 -7 33 -20 67 -30 77 -10 10 -32 55 -50 101 -17 46 -36 88 -41 93 -16
17 -19 0 -10 -45 5 -24 21 -102 35 -173 15 -71 25 -137 24 -145 -2 -9 -12 22
-22 69 -44 203 -51 225 -74 228 -12 2 -27 12 -32 23 -20 37 -32 21 -26 -33 l5
-53 -13 45 c-12 43 -14 45 -50 44 -20 -1 -39 -4 -43 -8 -3 -3 1 -23 10 -43 20
-45 47 -171 47 -216 l-1 -32 -13 25 c-7 14 -28 62 -46 108 l-33 84 -98 -98
-97 -97 -100 7 -99 7 -1 -95 c-1 -57 -6 -103 -14 -115 -11 -17 -8 -23 17 -43
15 -13 37 -28 48 -34 19 -11 19 -12 -9 -18 -63 -13 -267 -47 -268 -44 -2 2 -8
26 -15 53 -6 28 -15 64 -19 80 -6 23 -13 29 -30 27 -13 -2 -22 2 -22 10 0 9
-3 9 -10 -2 -8 -13 -10 -12 -10 3 0 15 -2 16 -13 5 -8 -7 -40 -35 -72 -63 -33
-27 -83 -72 -113 -100 -30 -27 -57 -51 -61 -53 -4 -1 -37 20 -74 48 l-66 50
-148 -103 c-163 -115 -336 -245 -341 -256 -3 -8 179 -162 368 -312 184 -147
577 -432 785 -570 92 -61 216 -139 222 -139 4 0 14 -6 22 -14 9 -8 76 -45 150
-82 127 -64 139 -68 223 -74 102 -8 121 -21 112 -80 -11 -69 -12 -70 -129 -33
-113 36 -390 185 -547 294 -15 11 -29 19 -32 19 -22 0 -579 396 -766 545 -36
28 -132 105 -215 170 -82 66 -152 122 -155 125 -3 4 -48 42 -100 86 -52 43
-102 86 -110 94 -9 8 -30 26 -47 40 -38 30 -210 188 -235 214 -17 18 -19 18
-36 3 -10 -9 -22 -17 -27 -17 -10 0 -237 232 -293 299 -58 71 -79 92 -88 90
-28 -5 -42 6 -62 46 -12 25 -22 61 -22 80 0 43 40 92 98 117 37 17 50 18 100
8 120 -24 371 -149 604 -301 48 -31 92 -59 98 -61 7 -2 10 -27 8 -66 l-3 -63
-85 54 c-47 30 -112 69 -145 87 -33 18 -76 43 -95 54 -106 65 -340 154 -340
130 0 -28 122 -168 308 -352 l225 -224 46 44 c25 24 55 51 65 59 18 12 19 12
14 -2 -5 -14 -2 -15 25 -5 29 10 84 42 97 56 3 3 38 27 78 54 39 27 72 52 72
55 0 4 15 12 33 19 17 7 101 54 185 104 174 105 174 95 8 122 -56 10 -100 23
-117 36 -16 11 -32 20 -38 20 -5 0 -12 7 -15 16 -3 8 -10 13 -15 10 -5 -3 -11
1 -14 8 -4 10 20 38 65 77 l70 63 -23 19 c-13 10 -51 44 -83 74 -41 38 -91 70
-165 105 -156 74 -142 71 -187 32 -21 -18 -47 -36 -56 -39 -9 -4 -57 15 -110
42 l-93 48 144 3 144 3 123 -52 c93 -39 141 -67 196 -111 40 -33 138 -108 217
-168 l143 -108 112 40 c61 22 119 43 129 45 9 3 17 9 17 14 0 12 -82 143 -92
147 -5 2 -6 8 -3 12 3 5 50 -18 104 -50 54 -33 103 -60 107 -60 15 0 312 96
429 138 61 22 180 70 265 107 153 66 160 68 490 135 184 37 376 77 425 88 55
13 148 23 240 27 116 5 301 24 334 34 1 1 34 -15 72 -35z m-333 -559 c-7 -7
-12 -6 -15 3 -3 7 -11 19 -19 27 -10 9 -12 24 -8 42 12 49 17 48 35 -8 11 -37
14 -57 7 -64z m-1110 -135 c0 -15 -6 -4 -14 25 -7 28 -13 61 -13 75 2 31 27
-64 27 -100z m434 23 c60 -38 117 -72 126 -78 10 -5 32 -20 49 -32 17 -13 34
-23 37 -23 3 0 22 -11 42 -25 l37 -25 -179 2 -179 3 -11 55 c-7 30 -19 85 -27
123 -8 37 -12 67 -9 67 2 0 54 -30 114 -67z m-409 -153 c4 -27 3 -37 -2 -25
-5 11 -11 43 -14 70 -8 61 7 21 16 -45z m115 -60 c0 -9 -3 -7 -8 5 -5 11 -8
29 -8 40 0 16 2 15 8 -5 4 -14 8 -32 8 -40z m854 -144 c6 4 8 3 5 -3 -7 -10
108 -71 147 -79 24 -4 36 -22 36 -51 0 -38 -43 -29 -98 20 -114 100 -155 139
-129 123 15 -9 33 -14 39 -10z m-3145 -387 l22 -22 -34 -18 c-19 -11 -38 -19
-41 -19 -8 0 -1 53 9 68 13 16 17 15 44 -9z m-67 -23 c0 -2 -8 -10 -17 -17
-16 -13 -17 -12 -4 4 13 16 21 21 21 13z m210 -110 c0 -5 -183 -76 -197 -76
-15 0 -22 32 -12 58 8 21 14 22 109 22 55 0 100 -2 100 -4z m2015 -176 c-4
-14 -7 -25 -8 -26 -1 -1 -26 -4 -54 -7 l-53 -6 0 39 c0 36 3 40 25 40 14 0 25
4 25 10 0 5 16 2 36 -7 30 -15 34 -21 29 -43z m-46 -96 l50 -37 -51 -96 c-29
-53 -58 -108 -65 -123 -9 -17 -20 -24 -31 -22 -11 3 -35 -15 -71 -56 -29 -33
-57 -60 -62 -60 -5 0 -34 -16 -66 -37 -55 -35 -57 -35 -70 -17 -8 10 -32 44
-54 74 l-40 55 34 3 c33 3 72 -8 152 -43 22 -9 38 -15 35 -12 -43 47 -146 161
-173 192 l-36 40 30 3 c37 4 94 42 94 62 0 8 14 19 30 24 69 21 191 71 205 83
18 16 27 13 89 -33z m-2859 -94 c-14 -4 -72 -8 -130 -7 l-105 1 95 6 c52 3
111 7 130 7 31 1 32 0 10 -7z m2848 -452 c16 -22 5 -23 -22 -3 -11 8 -29 15
-40 15 -22 0 -116 83 -116 102 0 6 7 20 16 29 16 18 20 15 83 -53 36 -39 72
-79 79 -90z m-3879 52 c93 -34 120 -40 190 -40 44 0 81 -3 81 -6 0 -17 -34
-74 -44 -74 -6 0 -45 11 -86 24 -106 33 -179 53 -222 60 -43 8 -55 21 -38 41
6 8 9 19 5 25 -9 15 -5 14 114 -30z"/>
</g>
</svg>
