<svg width="462" height="94" viewBox="0 0 462 94" fill="none" xmlns="http://www.w3.org/2000/svg">
<path d="M22.0805 3.6C26.5445 3.6 30.4085 4.344 33.6725 5.832C36.9845 7.32 39.5285 9.432 41.3045 12.168C43.0805 14.904 43.9685 18.144 43.9685 21.888C43.9685 25.584 43.0805 28.824 41.3045 31.608C39.5285 34.344 36.9845 36.456 33.6725 37.944C30.4085 39.384 26.5445 40.104 22.0805 40.104H11.9285V54H0.264452V3.6H22.0805ZM21.4325 30.6C24.9365 30.6 27.6005 29.856 29.4245 28.368C31.2485 26.832 32.1605 24.672 32.1605 21.888C32.1605 19.056 31.2485 16.896 29.4245 15.408C27.6005 13.872 24.9365 13.104 21.4325 13.104H11.9285V30.6H21.4325ZM74.9054 54.576C70.8254 54.576 67.1534 53.736 63.8894 52.056C60.6734 50.328 58.1534 47.952 56.3294 44.928C54.5054 41.904 53.5934 38.472 53.5934 34.632C53.5934 30.792 54.5054 27.36 56.3294 24.336C58.1534 21.312 60.6734 18.96 63.8894 17.28C67.1534 15.552 70.8254 14.688 74.9054 14.688C78.9854 14.688 82.6334 15.552 85.8494 17.28C89.0654 18.96 91.5854 21.312 93.4094 24.336C95.2334 27.36 96.1454 30.792 96.1454 34.632C96.1454 38.472 95.2334 41.904 93.4094 44.928C91.5854 47.952 89.0654 50.328 85.8494 52.056C82.6334 53.736 78.9854 54.576 74.9054 54.576ZM74.9054 45.36C77.7854 45.36 80.1374 44.4 81.9614 42.48C83.8334 40.512 84.7694 37.896 84.7694 34.632C84.7694 31.368 83.8334 28.776 81.9614 26.856C80.1374 24.888 77.7854 23.904 74.9054 23.904C72.0254 23.904 69.6494 24.888 67.7774 26.856C65.9054 28.776 64.9694 31.368 64.9694 34.632C64.9694 37.896 65.9054 40.512 67.7774 42.48C69.6494 44.4 72.0254 45.36 74.9054 45.36ZM127.125 54.576C123.045 54.576 119.373 53.736 116.109 52.056C112.893 50.328 110.373 47.952 108.549 44.928C106.725 41.904 105.813 38.472 105.813 34.632C105.813 30.792 106.725 27.36 108.549 24.336C110.373 21.312 112.893 18.96 116.109 17.28C119.373 15.552 123.045 14.688 127.125 14.688C131.205 14.688 134.853 15.552 138.069 17.28C141.285 18.96 143.805 21.312 145.629 24.336C147.453 27.36 148.365 30.792 148.365 34.632C148.365 38.472 147.453 41.904 145.629 44.928C143.805 47.952 141.285 50.328 138.069 52.056C134.853 53.736 131.205 54.576 127.125 54.576ZM127.125 45.36C130.005 45.36 132.357 44.4 134.181 42.48C136.053 40.512 136.989 37.896 136.989 34.632C136.989 31.368 136.053 28.776 134.181 26.856C132.357 24.888 130.005 23.904 127.125 23.904C124.245 23.904 121.869 24.888 119.997 26.856C118.125 28.776 117.189 31.368 117.189 34.632C117.189 37.896 118.125 40.512 119.997 42.48C121.869 44.4 124.245 45.36 127.125 45.36ZM160.913 0.575997H172.145V54H160.913V0.575997ZM204.961 54.864C200.977 54.864 197.113 54.336 193.369 53.28C189.673 52.176 186.697 50.76 184.441 49.032L188.401 40.248C190.561 41.832 193.129 43.104 196.105 44.064C199.081 45.024 202.057 45.504 205.033 45.504C208.345 45.504 210.793 45.024 212.377 44.064C213.961 43.056 214.753 41.736 214.753 40.104C214.753 38.904 214.273 37.92 213.313 37.152C212.401 36.336 211.201 35.688 209.713 35.208C208.273 34.728 206.305 34.2 203.809 33.624C199.969 32.712 196.825 31.8 194.377 30.888C191.929 29.976 189.817 28.512 188.041 26.496C186.313 24.48 185.449 21.792 185.449 18.432C185.449 15.504 186.241 12.864 187.825 10.512C189.409 8.112 191.785 6.216 194.953 4.824C198.169 3.432 202.081 2.736 206.689 2.736C209.905 2.736 213.049 3.12 216.121 3.888C219.193 4.656 221.881 5.76 224.185 7.2L220.585 16.056C215.929 13.416 211.273 12.096 206.617 12.096C203.353 12.096 200.929 12.624 199.345 13.68C197.809 14.736 197.041 16.128 197.041 17.856C197.041 19.584 197.929 20.88 199.705 21.744C201.529 22.56 204.289 23.376 207.985 24.192C211.825 25.104 214.969 26.016 217.417 26.928C219.865 27.84 221.953 29.28 223.681 31.248C225.457 33.216 226.345 35.88 226.345 39.24C226.345 42.12 225.529 44.76 223.897 47.16C222.313 49.512 219.913 51.384 216.697 52.776C213.481 54.168 209.569 54.864 204.961 54.864ZM262.107 14.688C266.907 14.688 270.771 16.128 273.699 19.008C276.675 21.888 278.163 26.16 278.163 31.824V54H266.931V33.552C266.931 30.48 266.259 28.2 264.915 26.712C263.571 25.176 261.627 24.408 259.083 24.408C256.251 24.408 253.995 25.296 252.315 27.072C250.635 28.8 249.795 31.392 249.795 34.848V54H238.563V0.575997H249.795V19.296C251.283 17.808 253.083 16.68 255.195 15.912C257.307 15.096 259.611 14.688 262.107 14.688ZM309.008 14.688C315.008 14.688 319.616 16.128 322.832 19.008C326.048 21.84 327.656 26.136 327.656 31.896V54H317.144V49.176C315.032 52.776 311.096 54.576 305.336 54.576C302.36 54.576 299.768 54.072 297.56 53.064C295.4 52.056 293.744 50.664 292.592 48.888C291.44 47.112 290.864 45.096 290.864 42.84C290.864 39.24 292.208 36.408 294.896 34.344C297.632 32.28 301.832 31.248 307.496 31.248H316.424C316.424 28.8 315.68 26.928 314.192 25.632C312.704 24.288 310.472 23.616 307.496 23.616C305.432 23.616 303.392 23.952 301.376 24.624C299.408 25.248 297.728 26.112 296.336 27.216L292.304 19.368C294.416 17.88 296.936 16.728 299.864 15.912C302.84 15.096 305.888 14.688 309.008 14.688ZM308.144 47.016C310.064 47.016 311.768 46.584 313.256 45.72C314.744 44.808 315.8 43.488 316.424 41.76V37.8H308.72C304.112 37.8 301.808 39.312 301.808 42.336C301.808 43.776 302.36 44.928 303.464 45.792C304.616 46.608 306.176 47.016 308.144 47.016ZM353.59 20.376C354.934 18.504 356.734 17.088 358.99 16.128C361.294 15.168 363.934 14.688 366.91 14.688V25.056C365.662 24.96 364.822 24.912 364.39 24.912C361.174 24.912 358.654 25.824 356.83 27.648C355.006 29.424 354.094 32.112 354.094 35.712V54H342.862V15.264H353.59V20.376ZM395.26 38.808L389.86 44.136V54H378.628V0.575997H389.86V30.816L406.276 15.264H419.668L403.54 31.68L421.108 54H407.5L395.26 38.808ZM442.966 54.576C439.75 54.576 436.606 54.192 433.534 53.424C430.462 52.608 428.014 51.6 426.19 50.4L429.934 42.336C431.662 43.44 433.75 44.352 436.198 45.072C438.646 45.744 441.046 46.08 443.398 46.08C448.15 46.08 450.526 44.904 450.526 42.552C450.526 41.448 449.878 40.656 448.582 40.176C447.286 39.696 445.294 39.288 442.606 38.952C439.438 38.472 436.822 37.92 434.758 37.296C432.694 36.672 430.894 35.568 429.358 33.984C427.87 32.4 427.126 30.144 427.126 27.216C427.126 24.768 427.822 22.608 429.214 20.736C430.654 18.816 432.718 17.328 435.406 16.272C438.142 15.216 441.358 14.688 445.054 14.688C447.79 14.688 450.502 15 453.19 15.624C455.926 16.2 458.182 17.016 459.958 18.072L456.214 26.064C452.806 24.144 449.086 23.184 445.054 23.184C442.654 23.184 440.854 23.52 439.654 24.192C438.454 24.864 437.854 25.728 437.854 26.784C437.854 27.984 438.502 28.824 439.798 29.304C441.094 29.784 443.158 30.24 445.99 30.672C449.158 31.2 451.75 31.776 453.766 32.4C455.782 32.976 457.534 34.056 459.022 35.64C460.51 37.224 461.254 39.432 461.254 42.264C461.254 44.664 460.534 46.8 459.094 48.672C457.654 50.544 455.542 52.008 452.758 53.064C450.022 54.072 446.758 54.576 442.966 54.576Z" fill="url(#paint0_linear)"/>
<path d="M324.341 67.74C326.189 67.74 327.845 68.148 329.309 68.964C330.773 69.78 331.913 70.92 332.729 72.384C333.569 73.848 333.989 75.54 333.989 77.46C333.989 79.38 333.569 81.084 332.729 82.572C331.913 84.036 330.773 85.176 329.309 85.992C327.845 86.808 326.189 87.216 324.341 87.216C322.973 87.216 321.713 86.952 320.561 86.424C319.433 85.896 318.473 85.128 317.681 84.12V93.984H314.225V67.92H317.537V70.944C318.305 69.888 319.277 69.096 320.453 68.568C321.629 68.016 322.925 67.74 324.341 67.74ZM324.053 84.192C325.277 84.192 326.369 83.916 327.329 83.364C328.313 82.788 329.081 81.996 329.633 80.988C330.209 79.956 330.497 78.78 330.497 77.46C330.497 76.14 330.209 74.976 329.633 73.968C329.081 72.936 328.313 72.144 327.329 71.592C326.369 71.04 325.277 70.764 324.053 70.764C322.853 70.764 321.761 71.052 320.777 71.628C319.817 72.18 319.049 72.96 318.473 73.968C317.921 74.976 317.645 76.14 317.645 77.46C317.645 78.78 317.921 79.956 318.473 80.988C319.025 81.996 319.793 82.788 320.777 83.364C321.761 83.916 322.853 84.192 324.053 84.192ZM342.076 71.124C342.676 70.02 343.564 69.18 344.74 68.604C345.916 68.028 347.344 67.74 349.024 67.74V71.088C348.832 71.064 348.568 71.052 348.232 71.052C346.36 71.052 344.884 71.616 343.804 72.744C342.748 73.848 342.22 75.432 342.22 77.496V87H338.764V67.92H342.076V71.124ZM361.28 87.216C359.384 87.216 357.68 86.796 356.168 85.956C354.656 85.116 353.468 83.964 352.604 82.5C351.764 81.012 351.344 79.332 351.344 77.46C351.344 75.588 351.764 73.92 352.604 72.456C353.468 70.968 354.656 69.816 356.168 69C357.68 68.16 359.384 67.74 361.28 67.74C363.176 67.74 364.868 68.16 366.356 69C367.868 69.816 369.044 70.968 369.884 72.456C370.748 73.92 371.18 75.588 371.18 77.46C371.18 79.332 370.748 81.012 369.884 82.5C369.044 83.964 367.868 85.116 366.356 85.956C364.868 86.796 363.176 87.216 361.28 87.216ZM361.28 84.192C362.504 84.192 363.596 83.916 364.556 83.364C365.54 82.788 366.308 81.996 366.86 80.988C367.412 79.956 367.688 78.78 367.688 77.46C367.688 76.14 367.412 74.976 366.86 73.968C366.308 72.936 365.54 72.144 364.556 71.592C363.596 71.04 362.504 70.764 361.28 70.764C360.056 70.764 358.952 71.04 357.968 71.592C357.008 72.144 356.24 72.936 355.664 73.968C355.112 74.976 354.836 76.14 354.836 77.46C354.836 78.78 355.112 79.956 355.664 80.988C356.24 81.996 357.008 82.788 357.968 83.364C358.952 83.916 360.056 84.192 361.28 84.192ZM386.688 85.884C386.184 86.316 385.56 86.652 384.816 86.892C384.072 87.108 383.304 87.216 382.512 87.216C380.592 87.216 379.104 86.7 378.048 85.668C376.992 84.636 376.464 83.16 376.464 81.24V70.764H373.224V67.92H376.464V63.744H379.92V67.92H385.392V70.764H379.92V81.096C379.92 82.128 380.172 82.92 380.676 83.472C381.204 84.024 381.948 84.3 382.908 84.3C383.964 84.3 384.864 84 385.608 83.4L386.688 85.884ZM398.405 87.216C396.509 87.216 394.805 86.796 393.293 85.956C391.781 85.116 390.593 83.964 389.729 82.5C388.889 81.012 388.469 79.332 388.469 77.46C388.469 75.588 388.889 73.92 389.729 72.456C390.593 70.968 391.781 69.816 393.293 69C394.805 68.16 396.509 67.74 398.405 67.74C400.301 67.74 401.993 68.16 403.481 69C404.993 69.816 406.169 70.968 407.009 72.456C407.873 73.92 408.305 75.588 408.305 77.46C408.305 79.332 407.873 81.012 407.009 82.5C406.169 83.964 404.993 85.116 403.481 85.956C401.993 86.796 400.301 87.216 398.405 87.216ZM398.405 84.192C399.629 84.192 400.721 83.916 401.681 83.364C402.665 82.788 403.433 81.996 403.985 80.988C404.537 79.956 404.813 78.78 404.813 77.46C404.813 76.14 404.537 74.976 403.985 73.968C403.433 72.936 402.665 72.144 401.681 71.592C400.721 71.04 399.629 70.764 398.405 70.764C397.181 70.764 396.077 71.04 395.093 71.592C394.133 72.144 393.365 72.936 392.789 73.968C392.237 74.976 391.961 76.14 391.961 77.46C391.961 78.78 392.237 79.956 392.789 80.988C393.365 81.996 394.133 82.788 395.093 83.364C396.077 83.916 397.181 84.192 398.405 84.192ZM421.401 87.216C419.457 87.216 417.717 86.796 416.181 85.956C414.669 85.116 413.481 83.964 412.617 82.5C411.753 81.012 411.321 79.332 411.321 77.46C411.321 75.588 411.753 73.92 412.617 72.456C413.481 70.968 414.669 69.816 416.181 69C417.717 68.16 419.457 67.74 421.401 67.74C423.129 67.74 424.665 68.088 426.009 68.784C427.377 69.48 428.433 70.488 429.177 71.808L426.549 73.5C425.949 72.588 425.205 71.904 424.317 71.448C423.429 70.992 422.445 70.764 421.365 70.764C420.117 70.764 418.989 71.04 417.981 71.592C416.997 72.144 416.217 72.936 415.641 73.968C415.089 74.976 414.813 76.14 414.813 77.46C414.813 78.804 415.089 79.992 415.641 81.024C416.217 82.032 416.997 82.812 417.981 83.364C418.989 83.916 420.117 84.192 421.365 84.192C422.445 84.192 423.429 83.964 424.317 83.508C425.205 83.052 425.949 82.368 426.549 81.456L429.177 83.112C428.433 84.432 427.377 85.452 426.009 86.172C424.665 86.868 423.129 87.216 421.401 87.216ZM441.542 87.216C439.646 87.216 437.942 86.796 436.43 85.956C434.918 85.116 433.73 83.964 432.866 82.5C432.026 81.012 431.606 79.332 431.606 77.46C431.606 75.588 432.026 73.92 432.866 72.456C433.73 70.968 434.918 69.816 436.43 69C437.942 68.16 439.646 67.74 441.542 67.74C443.438 67.74 445.13 68.16 446.618 69C448.13 69.816 449.306 70.968 450.146 72.456C451.01 73.92 451.442 75.588 451.442 77.46C451.442 79.332 451.01 81.012 450.146 82.5C449.306 83.964 448.13 85.116 446.618 85.956C445.13 86.796 443.438 87.216 441.542 87.216ZM441.542 84.192C442.766 84.192 443.858 83.916 444.818 83.364C445.802 82.788 446.57 81.996 447.122 80.988C447.674 79.956 447.95 78.78 447.95 77.46C447.95 76.14 447.674 74.976 447.122 73.968C446.57 72.936 445.802 72.144 444.818 71.592C443.858 71.04 442.766 70.764 441.542 70.764C440.318 70.764 439.214 71.04 438.23 71.592C437.27 72.144 436.502 72.936 435.926 73.968C435.374 74.976 435.098 76.14 435.098 77.46C435.098 78.78 435.374 79.956 435.926 80.988C436.502 81.996 437.27 82.788 438.23 83.364C439.214 83.916 440.318 84.192 441.542 84.192ZM456.221 60.288H459.677V87H456.221V60.288Z" fill="white"/>
<defs>
<linearGradient id="paint0_linear" x1="-16" y1="40.6018" x2="463" y2="40.6018" gradientUnits="userSpaceOnUse">
<stop offset="0.161458" stop-color="#B881FF"/>
<stop offset="0.5" stop-color="#0CB6FF"/>
<stop offset="0.848958" stop-color="#27F09E"/>
</linearGradient>
</defs>
</svg>
