<svg width="221" height="57" viewBox="0 0 221 57" fill="none" xmlns="http://www.w3.org/2000/svg">
<g filter="url(#filter0_d)">
<rect x="8" y="8.5" width="205" height="40" rx="8" fill="#DFF0FF"/>
<path d="M42.3277 20L34.7527 37.5H30.7527L23.2027 20H27.5777L32.9027 32.5L38.3027 20H42.3277ZM45.4139 20H49.4639V37.5H45.4139V20ZM68.792 34.25V37.5H55.242V20H68.467V23.25H59.267V27.05H67.392V30.2H59.267V34.25H68.792ZM99.8453 20L94.1203 37.5H89.7703L85.9203 25.65L81.9453 37.5H77.6203L71.8703 20H76.0703L80.0203 32.3L84.1453 20H87.8953L91.8953 32.4L95.9703 20H99.8453ZM112.803 20H120.753C122.653 20 124.328 20.3667 125.778 21.1C127.244 21.8167 128.378 22.8333 129.178 24.15C129.994 25.4667 130.403 27 130.403 28.75C130.403 30.5 129.994 32.0333 129.178 33.35C128.378 34.6667 127.244 35.6917 125.778 36.425C124.328 37.1417 122.653 37.5 120.753 37.5H112.803V20ZM120.553 34.175C122.303 34.175 123.694 33.6917 124.728 32.725C125.778 31.7417 126.303 30.4167 126.303 28.75C126.303 27.0833 125.778 25.7667 124.728 24.8C123.694 23.8167 122.303 23.325 120.553 23.325H116.853V34.175H120.553ZM148.632 34.25V37.5H135.082V20H148.307V23.25H139.107V27.05H147.232V30.2H139.107V34.25H148.632ZM169.404 37.5L169.379 27L164.229 35.65H162.404L157.279 27.225V37.5H153.479V20H156.829L163.379 30.875L169.829 20H173.154L173.204 37.5H169.404ZM187.456 37.8C185.64 37.8 183.998 37.4083 182.531 36.625C181.081 35.8417 179.94 34.7667 179.106 33.4C178.29 32.0167 177.881 30.4667 177.881 28.75C177.881 27.0333 178.29 25.4917 179.106 24.125C179.94 22.7417 181.081 21.6583 182.531 20.875C183.998 20.0917 185.64 19.7 187.456 19.7C189.273 19.7 190.906 20.0917 192.356 20.875C193.806 21.6583 194.948 22.7417 195.781 24.125C196.615 25.4917 197.031 27.0333 197.031 28.75C197.031 30.4667 196.615 32.0167 195.781 33.4C194.948 34.7667 193.806 35.8417 192.356 36.625C190.906 37.4083 189.273 37.8 187.456 37.8ZM187.456 34.35C188.49 34.35 189.423 34.1167 190.256 33.65C191.09 33.1667 191.74 32.5 192.206 31.65C192.69 30.8 192.931 29.8333 192.931 28.75C192.931 27.6667 192.69 26.7 192.206 25.85C191.74 25 191.09 24.3417 190.256 23.875C189.423 23.3917 188.49 23.15 187.456 23.15C186.423 23.15 185.49 23.3917 184.656 23.875C183.823 24.3417 183.165 25 182.681 25.85C182.215 26.7 181.981 27.6667 181.981 28.75C181.981 29.8333 182.215 30.8 182.681 31.65C183.165 32.5 183.823 33.1667 184.656 33.65C185.49 34.1167 186.423 34.35 187.456 34.35Z" fill="black"/>
</g>
<defs>
<filter id="filter0_d" x="0" y="0.5" width="221" height="56" filterUnits="userSpaceOnUse" color-interpolation-filters="sRGB">
<feFlood flood-opacity="0" result="BackgroundImageFix"/>
<feColorMatrix in="SourceAlpha" type="matrix" values="0 0 0 0 0 0 0 0 0 0 0 0 0 0 0 0 0 0 127 0" result="hardAlpha"/>
<feOffset/>
<feGaussianBlur stdDeviation="4"/>
<feComposite in2="hardAlpha" operator="out"/>
<feColorMatrix type="matrix" values="0 0 0 0 0.807843 0 0 0 0 0.847059 0 0 0 0 0.968627 0 0 0 1 0"/>
<feBlend mode="normal" in2="BackgroundImageFix" result="effect1_dropShadow"/>
<feBlend mode="normal" in="SourceGraphic" in2="effect1_dropShadow" result="shape"/>
</filter>
</defs>
</svg>
