<svg width="90" height="12" viewBox="0 0 90 12" fill="none" xmlns="http://www.w3.org/2000/svg">
<path d="M4.89564 1.2C5.76364 1.2 6.51497 1.34467 7.14964 1.634C7.79364 1.92333 8.28831 2.334 8.63364 2.866C8.97897 3.398 9.15164 4.028 9.15164 4.756C9.15164 5.47467 8.97897 6.10467 8.63364 6.646C8.28831 7.178 7.79364 7.58867 7.14964 7.878C6.51497 8.158 5.76364 8.298 4.89564 8.298H2.92164V11H0.653638V1.2H4.89564ZM4.76964 6.45C5.45097 6.45 5.96897 6.30533 6.32364 6.016C6.67831 5.71733 6.85564 5.29733 6.85564 4.756C6.85564 4.20533 6.67831 3.78533 6.32364 3.496C5.96897 3.19733 5.45097 3.048 4.76964 3.048H2.92164V6.45H4.76964ZM15.0972 11.112C14.3038 11.112 13.5898 10.9487 12.9552 10.622C12.3298 10.286 11.8398 9.824 11.4852 9.236C11.1305 8.648 10.9532 7.98067 10.9532 7.234C10.9532 6.48733 11.1305 5.82 11.4852 5.232C11.8398 4.644 12.3298 4.18667 12.9552 3.86C13.5898 3.524 14.3038 3.356 15.0972 3.356C15.8905 3.356 16.5998 3.524 17.2252 3.86C17.8505 4.18667 18.3405 4.644 18.6952 5.232C19.0498 5.82 19.2272 6.48733 19.2272 7.234C19.2272 7.98067 19.0498 8.648 18.6952 9.236C18.3405 9.824 17.8505 10.286 17.2252 10.622C16.5998 10.9487 15.8905 11.112 15.0972 11.112ZM15.0972 9.32C15.6572 9.32 16.1145 9.13333 16.4692 8.76C16.8332 8.37733 17.0152 7.86867 17.0152 7.234C17.0152 6.59933 16.8332 6.09533 16.4692 5.722C16.1145 5.33933 15.6572 5.148 15.0972 5.148C14.5372 5.148 14.0752 5.33933 13.7112 5.722C13.3472 6.09533 13.1652 6.59933 13.1652 7.234C13.1652 7.86867 13.3472 8.37733 13.7112 8.76C14.0752 9.13333 14.5372 9.32 15.0972 9.32ZM25.181 11.112C24.3876 11.112 23.6736 10.9487 23.039 10.622C22.4136 10.286 21.9236 9.824 21.569 9.236C21.2143 8.648 21.037 7.98067 21.037 7.234C21.037 6.48733 21.2143 5.82 21.569 5.232C21.9236 4.644 22.4136 4.18667 23.039 3.86C23.6736 3.524 24.3876 3.356 25.181 3.356C25.9743 3.356 26.6836 3.524 27.309 3.86C27.9343 4.18667 28.4243 4.644 28.779 5.232C29.1336 5.82 29.311 6.48733 29.311 7.234C29.311 7.98067 29.1336 8.648 28.779 9.236C28.4243 9.824 27.9343 10.286 27.309 10.622C26.6836 10.9487 25.9743 11.112 25.181 11.112ZM25.181 9.32C25.741 9.32 26.1983 9.13333 26.553 8.76C26.917 8.37733 27.099 7.86867 27.099 7.234C27.099 6.59933 26.917 6.09533 26.553 5.722C26.1983 5.33933 25.741 5.148 25.181 5.148C24.621 5.148 24.159 5.33933 23.795 5.722C23.431 6.09533 23.249 6.59933 23.249 7.234C23.249 7.86867 23.431 8.37733 23.795 8.76C24.159 9.13333 24.621 9.32 25.181 9.32ZM31.6808 0.611999H33.8648V11H31.6808V0.611999ZM40.1757 11.168C39.4011 11.168 38.6497 11.0653 37.9217 10.86C37.2031 10.6453 36.6244 10.37 36.1857 10.034L36.9557 8.326C37.3757 8.634 37.8751 8.88133 38.4537 9.068C39.0324 9.25467 39.6111 9.348 40.1897 9.348C40.8337 9.348 41.3097 9.25467 41.6177 9.068C41.9257 8.872 42.0797 8.61533 42.0797 8.298C42.0797 8.06467 41.9864 7.87333 41.7997 7.724C41.6224 7.56533 41.3891 7.43933 41.0997 7.346C40.8197 7.25267 40.4371 7.15 39.9517 7.038C39.2051 6.86067 38.5937 6.68333 38.1177 6.506C37.6417 6.32867 37.2311 6.044 36.8857 5.652C36.5497 5.26 36.3817 4.73733 36.3817 4.084C36.3817 3.51467 36.5357 3.00133 36.8437 2.544C37.1517 2.07733 37.6137 1.70867 38.2297 1.438C38.8551 1.16733 39.6157 1.032 40.5117 1.032C41.1371 1.032 41.7484 1.10667 42.3457 1.256C42.9431 1.40533 43.4657 1.62 43.9137 1.9L43.2137 3.622C42.3084 3.10867 41.4031 2.852 40.4977 2.852C39.8631 2.852 39.3917 2.95467 39.0837 3.16C38.7851 3.36533 38.6357 3.636 38.6357 3.972C38.6357 4.308 38.8084 4.56 39.1537 4.728C39.5084 4.88667 40.0451 5.04533 40.7637 5.204C41.5104 5.38133 42.1217 5.55867 42.5977 5.736C43.0737 5.91333 43.4797 6.19333 43.8157 6.576C44.1611 6.95867 44.3337 7.47667 44.3337 8.13C44.3337 8.69 44.1751 9.20333 43.8577 9.67C43.5497 10.1273 43.0831 10.4913 42.4577 10.762C41.8324 11.0327 41.0717 11.168 40.1757 11.168ZM51.2175 3.356C52.1508 3.356 52.9021 3.636 53.4715 4.196C54.0501 4.756 54.3395 5.58667 54.3395 6.688V11H52.1555V7.024C52.1555 6.42667 52.0248 5.98333 51.7635 5.694C51.5021 5.39533 51.1241 5.246 50.6295 5.246C50.0788 5.246 49.6401 5.41867 49.3135 5.764C48.9868 6.1 48.8235 6.604 48.8235 7.276V11H46.6395V0.611999H48.8235V4.252C49.1128 3.96267 49.4628 3.74333 49.8735 3.594C50.2841 3.43533 50.7321 3.356 51.2175 3.356ZM60.2672 3.356C61.4338 3.356 62.3298 3.636 62.9552 4.196C63.5805 4.74667 63.8932 5.582 63.8932 6.702V11H61.8492V10.062C61.4385 10.762 60.6732 11.112 59.5532 11.112C58.9745 11.112 58.4705 11.014 58.0412 10.818C57.6212 10.622 57.2992 10.3513 57.0752 10.006C56.8512 9.66067 56.7392 9.26867 56.7392 8.83C56.7392 8.13 57.0005 7.57933 57.5232 7.178C58.0552 6.77667 58.8718 6.576 59.9732 6.576H61.7092C61.7092 6.1 61.5645 5.736 61.2752 5.484C60.9858 5.22267 60.5518 5.092 59.9732 5.092C59.5718 5.092 59.1752 5.15733 58.7832 5.288C58.4005 5.40933 58.0738 5.57733 57.8032 5.792L57.0192 4.266C57.4298 3.97667 57.9198 3.75267 58.4892 3.594C59.0678 3.43533 59.6605 3.356 60.2672 3.356ZM60.0992 9.642C60.4725 9.642 60.8038 9.558 61.0932 9.39C61.3825 9.21267 61.5878 8.956 61.7092 8.62V7.85H60.2112C59.3152 7.85 58.8672 8.144 58.8672 8.732C58.8672 9.012 58.9745 9.236 59.1892 9.404C59.4132 9.56267 59.7165 9.642 60.0992 9.642ZM68.8658 4.462C69.1271 4.098 69.4771 3.82267 69.9158 3.636C70.3638 3.44933 70.8771 3.356 71.4558 3.356V5.372C71.2131 5.35333 71.0498 5.344 70.9658 5.344C70.3405 5.344 69.8505 5.52133 69.4958 5.876C69.1411 6.22133 68.9638 6.744 68.9638 7.444V11H66.7798V3.468H68.8658V4.462ZM76.8984 8.046L75.8484 9.082V11H73.6644V0.611999H75.8484V6.492L79.0404 3.468H81.6444L78.5084 6.66L81.9244 11H79.2784L76.8984 8.046ZM86.1045 11.112C85.4792 11.112 84.8678 11.0373 84.2705 10.888C83.6732 10.7293 83.1972 10.5333 82.8425 10.3L83.5705 8.732C83.9065 8.94667 84.3125 9.124 84.7885 9.264C85.2645 9.39467 85.7312 9.46 86.1885 9.46C87.1125 9.46 87.5745 9.23133 87.5745 8.774C87.5745 8.55933 87.4485 8.40533 87.1965 8.312C86.9445 8.21867 86.5572 8.13933 86.0345 8.074C85.4185 7.98067 84.9098 7.87333 84.5085 7.752C84.1072 7.63067 83.7572 7.416 83.4585 7.108C83.1692 6.8 83.0245 6.36133 83.0245 5.792C83.0245 5.316 83.1598 4.896 83.4305 4.532C83.7105 4.15867 84.1118 3.86933 84.6345 3.664C85.1665 3.45867 85.7918 3.356 86.5105 3.356C87.0425 3.356 87.5698 3.41667 88.0925 3.538C88.6245 3.65 89.0632 3.80867 89.4085 4.014L88.6805 5.568C88.0178 5.19467 87.2945 5.008 86.5105 5.008C86.0438 5.008 85.6938 5.07333 85.4605 5.204C85.2272 5.33467 85.1105 5.50267 85.1105 5.708C85.1105 5.94133 85.2365 6.10467 85.4885 6.198C85.7405 6.29133 86.1418 6.38 86.6925 6.464C87.3085 6.56667 87.8125 6.67867 88.2045 6.8C88.5965 6.912 88.9372 7.122 89.2265 7.43C89.5158 7.738 89.6605 8.16733 89.6605 8.718C89.6605 9.18467 89.5205 9.6 89.2405 9.964C88.9605 10.328 88.5498 10.6127 88.0085 10.818C87.4765 11.014 86.8418 11.112 86.1045 11.112Z" fill="#27F09E"/>
</svg>
