<svg width="105" height="40" viewBox="0 0 105 40" fill="none" xmlns="http://www.w3.org/2000/svg">
<path d="M0 0H42V30C42 35.5228 37.5228 40 32 40H10C4.47715 40 0 35.5228 0 30V0Z" fill="#232844"/>
<path d="M63 0H105V30C105 35.5228 100.523 40 95 40H73C67.4772 40 63 35.5228 63 30V0Z" fill="#232844"/>
<path fill-rule="evenodd" clip-rule="evenodd" d="M93 4C93.2573 4 93.5041 4.11891 93.686 4.33056C93.8679 4.54221 93.9701 4.82927 93.9701 5.12859V10.8063H92.0299V5.12859C92.0299 4.82927 92.1321 4.54221 92.314 4.33056C92.4959 4.11891 92.7427 4 93 4ZM92.0299 10.8063H93.9701C94.5085 10.8063 95.0248 11.0551 95.4055 11.4979C95.7861 11.9408 96 12.5414 96 13.1677V26.8323C96 27.4586 95.7861 28.0592 95.4055 28.5021C95.0248 28.9449 94.5085 29.1937 93.9701 29.1937H92.0299C91.4915 29.1937 90.9752 28.9449 90.5945 28.5021C90.2139 28.0592 90 27.4586 90 26.8323V13.1677C90 12.5414 90.2139 11.9408 90.5945 11.4979C90.9752 11.0551 91.4915 10.8063 92.0299 10.8063ZM93 36C92.7427 36 92.4959 35.8811 92.314 35.6694C92.1321 35.4578 92.0299 35.1707 92.0299 34.8714V29.1937H93.9701V34.8714C93.9701 35.1707 93.8679 35.4578 93.686 35.6694C93.5041 35.8811 93.2573 36 93 36Z" fill="#8B94C4"/>
<path fill-rule="evenodd" clip-rule="evenodd" d="M83.3682 20.86H85.6318C86.2599 20.86 86.8623 21.1107 87.3064 21.5571C87.7505 22.0034 88 22.6088 88 23.24V25.76C88 26.3912 87.7505 26.9966 87.3064 27.4429C86.8623 27.8893 86.2599 28.14 85.6318 28.14H83.3682C82.7401 28.14 82.1377 27.8893 81.6936 27.4429C81.2495 26.9966 81 26.3912 81 25.76V23.24C81 22.6088 81.2495 22.0034 81.6936 21.5571C82.1377 21.1107 82.7401 20.86 83.3682 20.86ZM84.5 14C84.6486 14 84.7958 14.0294 84.9331 14.0866C85.0705 14.1438 85.1952 14.2275 85.3003 14.3332C85.4054 14.4388 85.4888 14.5642 85.5457 14.7022C85.6026 14.8402 85.6318 14.9881 85.6318 15.1375V20.86H83.3682V15.1375C83.3682 14.8358 83.4874 14.5465 83.6997 14.3332C83.9119 14.1198 84.1998 14 84.5 14ZM84.5 35C84.1998 35 83.9119 34.8802 83.6997 34.6668C83.4874 34.4535 83.3682 34.1642 83.3682 33.8625V28.14H85.6318V33.8625C85.6318 34.0119 85.6026 34.1598 85.5457 34.2978C85.4888 34.4358 85.4054 34.5612 85.3003 34.6668C85.1952 34.7725 85.0705 34.8562 84.9331 34.9134C84.7958 34.9706 84.6486 35 84.5 35Z" fill="#8B94C4"/>
<path fill-rule="evenodd" clip-rule="evenodd" d="M74.3682 13.6026H76.6318C77.2599 13.6026 77.8623 13.844 78.3064 14.2736C78.7505 14.7031 79 15.2858 79 15.8933V25.1067C79 25.7142 78.7505 26.2969 78.3064 26.7264C77.8623 27.156 77.2599 27.3974 76.6318 27.3974H74.3682C73.7401 27.3974 73.1377 27.156 72.6936 26.7264C72.2495 26.2969 72 25.7142 72 25.1067V15.8933C72 15.2858 72.2495 14.7031 72.6936 14.2736C73.1377 13.844 73.7401 13.6026 74.3682 13.6026ZM75.5 7C75.8002 7 76.0881 7.11535 76.3003 7.32067C76.5126 7.52598 76.6318 7.80446 76.6318 8.09482V13.6026H74.3682V8.09482C74.3682 7.80446 74.4874 7.52598 74.6997 7.32067C74.9119 7.11535 75.1998 7 75.5 7ZM75.5 34C75.1998 34 74.9119 33.8847 74.6997 33.6793C74.4874 33.474 74.3682 33.1955 74.3682 32.9052V27.3974H76.6318V32.9052C76.6318 33.1955 76.5126 33.474 76.3003 33.6793C76.0881 33.8847 75.8002 34 75.5 34Z" fill="#8B94C4"/>
<path d="M23.2781 6C15.6971 6 9.57143 12.2689 9.57143 20H5L10.9352 26.0589L11.0419 26.2844L17.1905 20H12.6191C12.6191 13.9878 17.3962 9.11114 23.2857 9.11114C29.1752 9.11114 33.9524 13.9878 33.9524 20C33.9524 26.0122 29.1752 30.8889 23.2857 30.8889C20.3371 30.8889 17.6781 29.66 15.7505 27.6922L13.5943 29.8933C16.0705 32.4289 19.4914 34 23.2781 34C30.8591 34 37 27.7311 37 20C37 12.2689 30.8591 6 23.2781 6Z" fill="#8B94C4"/>
<path d="M21.7617 13.7778V21.5556L28.2836 25.5067L29.3807 23.6167L24.0474 20.3889V13.7778H21.7617Z" fill="#8B94C4"/>
</svg>
