<svg width="1945" height="315" viewBox="0 0 1945 315" fill="none" xmlns="http://www.w3.org/2000/svg">
<g opacity="0.4">
<path d="M-585.254 440.687C-477.751 439.672 -362.419 449.054 -256.736 433.678C-89.1306 409.291 64.873 351.793 230.58 322.577C293.736 311.412 351.803 306.433 413.216 324.539C465.823 340.052 510.425 366.771 552.326 393.311C626.011 439.946 705.449 504.481 809.528 514.617C875.756 521.077 941.064 496.402 996.88 474.401C1059.41 449.712 1118.55 421.169 1181.04 396.494C1238.5 373.807 1306.3 348.144 1374.48 355.962C1433.47 362.738 1484.71 390.897 1528.41 417.685C1612.46 469.121 1702.45 551.445 1826.92 543.791C1973.88 534.766 2083.69 446.969 2232.92 440.769" stroke="url(#paint0_linear)" stroke-opacity="0.4" stroke-width="4" stroke-miterlimit="10"/>
<path d="M-585.214 425.174C-476.967 424.2 -361.694 436.065 -255.267 419.907C-91.4978 395.067 58.0241 336.979 219.837 307.257C283.246 295.611 340.217 291.236 402.14 308.82C455.686 324.018 501.952 349.969 545.478 376.029C622.235 421.828 704.452 485.429 808.824 497.431C874.269 504.947 938.423 481.342 993.691 459.492C1054.85 435.297 1112.49 407 1173.61 382.778C1230.85 360.077 1297.33 335.69 1365.11 344.372C1424.37 351.985 1476.66 380.034 1521.68 406.452C1607.42 456.749 1700.61 536.549 1824.42 528.937C1972.28 519.843 2082.93 431.456 2233.06 425.215" stroke="url(#paint1_linear)" stroke-opacity="0.4" stroke-width="4" stroke-miterlimit="10"/>
<path d="M-585.195 409.962C-476.068 409.194 -360.834 423.912 -253.448 407.055C-93.7887 381.995 50.9775 323.386 208.621 293.498C271.992 281.456 328.18 277.711 390.416 294.527C444.921 309.258 492.811 334.304 538.118 359.569C618.359 404.325 703.081 466.404 807.844 480.134C934.273 496.717 1062.03 410.415 1164.49 369.733C1221.52 347.074 1286.2 324.374 1353.38 333.879C1413.11 342.342 1466.5 370.117 1513.06 396.136C1600.98 445.254 1697.66 522.202 1821.15 514.548C1970.1 505.331 2081.81 416.299 2233.02 409.962" stroke="url(#paint2_linear)" stroke-opacity="0.4" stroke-width="4" stroke-miterlimit="10"/>
<path d="M-585.156 395.067C-475.07 394.642 -359.816 412.514 -251.315 395.067C-95.9416 369.994 43.8341 311.11 197.094 281.127C260.249 268.782 315.89 265.71 378.301 281.552C433.805 295.666 483.358 319.6 530.446 344.07C614.17 387.55 701.418 447.558 806.709 462.989C931.219 481.204 1053.48 397.398 1154.03 357.375C1209.64 335.278 1274.45 313.003 1339.8 324.387C1400.47 334.949 1453.92 360.557 1503.12 386.618C1593.56 434.487 1693.96 508.321 1817.45 500.585C1967.68 491.19 2080.58 401.486 2233.06 394.971" stroke="url(#paint3_linear)" stroke-opacity="0.4" stroke-width="4" stroke-miterlimit="10"/>
<path d="M-585.116 380.459C-473.992 380.459 -358.622 401.761 -248.907 383.669C-97.9563 358.774 36.6918 299.644 185.431 269.825C443.767 217.992 578.533 409.346 805.458 445.968C927.776 465.733 1043.85 384.945 1142.59 345.73C1197.93 323.784 1260.25 303.8 1324.77 315.829C1386.21 327.282 1440.91 352.327 1492.08 377.894C1585.34 424.529 1689.63 495.003 1813.38 487.144C1965 477.542 2079.23 387.139 2233.12 380.459" stroke="url(#paint4_linear)" stroke-opacity="0.4" stroke-width="4" stroke-miterlimit="10"/>
<path d="M-585.077 366.167C-472.877 366.743 -357.311 391.542 -246.285 372.915C-99.8354 348.35 29.6654 289.082 173.766 259.524C426.76 207.65 580.842 389.827 804.107 429.069C924.312 450.219 1033.42 373.011 1130.35 334.551C1185.47 312.688 1245.06 295.337 1308.67 307.915C1370.92 320.259 1427.01 344.674 1480.24 369.706C1576.49 414.969 1684.76 482.055 1809.04 474.017C1962.14 464.128 2077.8 373.066 2233.18 366.167" stroke="url(#paint5_linear)" stroke-opacity="0.4" stroke-width="4" stroke-miterlimit="10"/>
<path d="M-585.036 352.176C-471.72 353.342 -355.919 381.762 -243.504 362.669C-101.536 338.556 22.661 279.22 162.3 250.06C409.931 198.336 583.075 370.556 802.719 412.418C920.771 434.912 1022.46 361.503 1117.69 323.798C1172.61 302.058 1229.25 287.491 1291.88 300.48C1354.99 313.634 1412.53 337.514 1467.88 361.929C1567.22 405.82 1679.48 469.408 1804.38 461.192C1958.99 451.001 2076.18 359.254 2233.1 352.122" stroke="url(#paint6_linear)" stroke-opacity="0.4" stroke-width="4" stroke-miterlimit="10"/>
<path d="M-584.997 338.488C-470.585 340.257 -354.451 372.312 -240.549 352.821C-102.965 329.257 16.1048 269.893 151.242 241.227C393.609 189.805 585.267 351.683 801.31 396.055C917.229 419.866 1011.29 350.366 1104.89 313.387C1159.58 291.784 1213.45 280.085 1275.04 293.54C1339.04 307.531 1398.09 330.807 1455.51 354.618C1557.96 397.138 1674.17 457.215 1799.86 448.793C1956.09 438.314 2074.73 345.922 2233.22 338.488" stroke="url(#paint7_linear)" stroke-opacity="0.4" stroke-width="4" stroke-miterlimit="10"/>
<path d="M-584.959 325.115C-469.49 327.474 -352.965 363.081 -237.751 343.261C-104.395 320.314 9.64527 260.964 140.477 232.86C378.049 181.836 587.477 333.18 800.018 380.034C913.823 405.135 1000.23 339.544 1092.31 303.224C1146.76 281.758 1197.99 272.925 1258.41 286.764C1323.29 301.605 1383.82 324.347 1443.29 347.499C1548.76 388.566 1668.85 445.254 1795.4 436.654C1953.2 425.887 2073.3 332.741 2233.33 325.142" stroke="url(#paint8_linear)" stroke-opacity="0.4" stroke-width="4" stroke-miterlimit="10"/>
<path d="M-584.918 312.029C-468.295 314.951 -351.495 353.973 -234.872 333.879C-105.528 311.59 3.69754 252.282 130.458 224.781C363.47 174.223 589.651 315.061 798.63 364.398C910.536 390.815 989.212 328.859 1080.02 293.266C1134.29 272.006 1182.85 265.833 1242.24 280.071C1307.96 295.762 1369.96 318.051 1431.38 340.532C1539.74 380.185 1663.53 433.541 1790.95 424.721C1950.24 413.68 2071.76 319.861 2233.26 312.029" stroke="url(#paint9_linear)" stroke-opacity="0.4" stroke-width="4" stroke-miterlimit="10"/>
<path d="M-584.88 299.26C-467.161 302.661 -350.029 344.893 -232.094 324.593C-106.449 302.977 -1.74433 243.668 121.22 216.812C240.505 190.751 367.403 220.172 478.82 251.61C586.264 281.936 688.405 321.713 797.454 349.214C907.952 377.085 978.427 318.051 1068.55 283.376C1188.23 237.359 1310.8 295.721 1420.34 333.564C1531.33 371.859 1658.59 422.033 1786.86 413.021C1947.56 401.747 2070.41 307.27 2233.33 299.246" stroke="url(#paint10_linear)" stroke-opacity="0.4" stroke-width="4" stroke-miterlimit="10"/>
<path d="M-584.841 286.778C-466.026 290.577 -348.874 335.731 -229.433 315.28C-107.134 294.322 -6.59793 235.054 113.059 208.788C231.248 182.81 361.492 211.024 473.438 239.814C583.055 268.014 687.387 305.254 796.417 334.551C905.447 363.849 969.131 307.709 1058.1 273.528C1175.06 228.608 1302.74 291.359 1410.38 326.541C1523.69 363.575 1654.19 410.703 1783.16 401.568C1945.11 390.088 2069.17 294.98 2233.3 286.778" stroke="url(#paint11_linear)" stroke-opacity="0.4" stroke-width="4" stroke-miterlimit="10"/>
<path d="M-584.801 274.612C-464.87 278.727 -347.816 326.404 -226.985 305.83C-107.603 285.516 -10.7656 226.276 105.721 200.517C223.009 174.662 356.228 201.724 468.683 228.128C580.237 254.339 686.664 289.343 795.518 320.437C846.872 335.1 884.507 335.704 934.158 316.789C974.514 301.413 1008.65 279.083 1048.94 263.598C1102.7 242.914 1145.52 243.49 1201.83 258.866C1269.49 277.369 1335.4 298.642 1401.79 319.313C1517 355.084 1650.34 399.47 1779.9 390.253C1942.96 378.649 2068.06 282.91 2233.36 274.612" stroke="url(#paint12_linear)" stroke-opacity="0.4" stroke-width="4" stroke-miterlimit="10"/>
<path d="M-584.763 262.734C-463.716 266.849 -347.015 316.803 -224.775 296.16C-107.76 276.395 -14.2308 216.935 99.9069 191.835C216.589 166.172 352.255 192.109 465.159 216.524C578.064 240.939 686.467 274.132 794.969 307.051C845.109 322.262 881.766 324.415 930.987 305.597C970.011 290.674 1002.58 268.645 1041.5 253.613C1094.97 232.956 1137.13 235.151 1192.45 251.034C1260.44 270.552 1327.38 291.785 1395.01 311.879C1511.68 346.526 1647.62 388.442 1777.37 379.198C1941.34 367.525 2067.28 271.21 2233.37 262.857" stroke="url(#paint13_linear)" stroke-opacity="0.4" stroke-width="4" stroke-miterlimit="10"/>
<path d="M-584.724 251.184C-462.542 255.19 -346.506 306.872 -222.896 286.174C-107.623 266.848 -17.0099 206.936 95.5425 182.576C212.068 157.325 349.201 182.082 462.811 204.755C577.34 227.593 686.683 259.4 794.734 294.13C843.857 309.903 880.102 313.223 928.951 294.404C966.919 279.796 998.174 257.905 1036.02 243.16C1089.24 222.435 1131.35 225.796 1185.84 242.283C1253.93 262.857 1321.64 284.144 1390.32 303.813C1507.74 337.459 1645.95 377.208 1775.61 368.032C1940.22 356.374 2066.77 259.51 2233.57 251.184" stroke="url(#paint14_linear)" stroke-opacity="0.4" stroke-width="4" stroke-miterlimit="10"/>
<path d="M-584.684 239.924C-461.387 243.558 -346.349 296.489 -221.369 275.736C-107.29 256.794 -18.6334 196.622 92.5687 172.55C208.722 147.422 347.656 171.645 461.559 192.905C577.262 214.508 687.095 245.451 794.637 282.06C842.958 298.519 879.399 302.497 927.993 283.555C965.178 269.057 995.454 247.152 1032.58 232.517C1085.6 211.613 1128.3 215.564 1182.14 232.805C1250.09 254.559 1318.32 275.997 1387.75 295.337C1505.53 328.132 1645.35 366.098 1774.48 357.059C1939.48 345.524 2066.34 248.14 2233.53 239.924" stroke="url(#paint15_linear)" stroke-opacity="0.4" stroke-width="4" stroke-miterlimit="10"/>
<path d="M-584.624 228.951C-460.701 232.215 -346.465 285.722 -220.722 264.777C-107.034 245.849 -18.9065 185.731 91.9433 161.797C207.979 136.751 347.54 161.467 461.482 182.275C577.596 203.48 687.076 234.19 794.755 270.963C842.9 287.423 879.849 290.852 928.111 272.033C965.042 257.631 995.122 235.919 1032.05 221.476C1084.89 200.819 1128.38 204.66 1181.71 222.395C1249.37 244.889 1317.67 266.492 1387.4 285.64C1504.61 317.832 1646.25 355.373 1774.38 345.991C1939.15 333.948 2066.83 238.209 2233.59 228.992" stroke="url(#paint16_linear)" stroke-opacity="0.4" stroke-width="4" stroke-miterlimit="10"/>
<path d="M-584.586 218.156C-460.389 221.256 -346.486 275.119 -220.449 253.928C-106.938 234.835 -18.3595 175.225 92.5685 151.441C208.605 126.56 347.852 152.36 461.618 173.304C577.36 194.619 686.37 225.275 794.793 260.306C897.423 293.458 948.288 242.475 1032.82 210.681C1085.66 190.806 1129.42 194.427 1182.26 212.231C1249.62 234.931 1317.81 256.479 1387.52 275.407C1504.04 307.037 1647.52 344.756 1774.73 334.579C1938.79 321.439 2068.04 229.595 2233.69 218.362" stroke="url(#paint17_linear)" stroke-opacity="0.4" stroke-width="4" stroke-miterlimit="10"/>
<path d="M-584.547 207.526C-459.978 210.516 -346.349 264.777 -219.921 243.407C-106.409 224.205 -17.4791 165.225 93.5077 141.661C209.544 116.972 348.38 143.759 461.97 164.773C577.262 186.101 685.861 216.62 794.91 249.881C896.679 280.935 949.364 230.857 1033.95 200.503C1086.79 181.493 1130.94 185.004 1183.32 202.835C1250.37 225.659 1318.35 247.042 1388.05 265.641C1504.1 296.626 1649.01 333.948 1775.16 323.084C1938.4 309.039 2069.23 221.187 2233.67 208.17" stroke="url(#paint18_linear)" stroke-opacity="0.4" stroke-width="4" stroke-miterlimit="10"/>
<path d="M-584.508 197.088C-459.508 199.996 -346.056 254.696 -219.158 233.23C-105.783 214.055 -16.3244 155.748 94.7407 132.43C210.777 108.153 349.163 135.612 462.537 156.639C577.282 177.899 685.646 208.184 795.087 239.608C896.131 268.59 950.617 219.624 1035.42 190.683C1088.4 172.618 1132.88 176.13 1184.86 193.947C1251.54 216.812 1319.39 237.949 1388.97 256.109C1504.73 286.353 1650.51 322.755 1775.81 311.33C1938.24 296.53 2070.58 212.807 2233.77 198.185" stroke="url(#paint19_linear)" stroke-opacity="0.4" stroke-width="4" stroke-miterlimit="10"/>
<path d="M-584.469 186.829C-458.941 189.709 -345.703 244.834 -218.16 223.355C-104.883 204.289 -14.8763 146.64 96.2866 123.789C212.284 99.9367 349.965 128.014 463.3 148.972C577.418 170.095 685.45 200.065 795.341 229.595C895.622 256.548 952.026 208.87 1037.22 181.493C1090.37 164.403 1135.21 168.037 1186.86 185.8C1253.01 208.781 1320.9 229.23 1390.22 247.056C1505.88 276.464 1652.08 311.522 1776.65 299.575C1938.03 284.172 2071.99 204.673 2233.75 188.666" stroke="url(#paint20_linear)" stroke-opacity="0.4" stroke-width="4" stroke-miterlimit="10"/>
<path d="M-584.409 176.761C-458.314 179.641 -345.115 235.246 -216.945 213.794C-103.767 194.88 -13.1532 137.999 98.1467 115.614C214.104 92.2966 351.199 120.813 464.319 141.675C577.83 162.578 685.568 192.137 795.714 219.747C895.251 244.711 953.69 198.446 1039.39 172.728C1092.8 156.694 1137.97 160.534 1189.32 178.215C1255.08 201.043 1322.72 221.109 1391.88 238.305C1507.61 266.794 1653.78 299.945 1777.69 287.683C1938.03 271.814 2073.52 196.663 2233.86 179.408" stroke="url(#paint21_linear)" stroke-opacity="0.4" stroke-width="4" stroke-miterlimit="10"/>
<path d="M-584.37 166.912C-457.629 169.807 -344.45 225.892 -215.556 204.604C-102.455 185.923 -11.1961 129.865 100.143 108.015C216.042 85.274 352.412 114.133 465.434 134.817C578.104 155.391 685.803 184.483 796.066 210.132C894.899 233.134 955.491 188.447 1041.78 164.471C1095.48 149.548 1141 153.676 1192.14 171.329C1257.45 193.94 1324.79 213.554 1393.72 230.048C1509.64 257.48 1655.37 288.424 1778.74 275.874C1937.97 259.689 2074.93 188.968 2233.83 170.657" stroke="url(#paint22_linear)" stroke-opacity="0.4" stroke-width="4" stroke-miterlimit="10"/>
<path d="M-584.332 157.256C-456.886 160.219 -343.609 216.839 -213.972 195.661C-100.949 177.309 -9.02469 122.143 102.432 100.883C218.253 78.7997 353.879 107.864 466.647 128.315C578.534 148.615 686.116 177.048 796.417 200.723C894.566 221.777 957.427 178.777 1044.36 156.639C1098.4 142.923 1144.27 147.367 1195.25 164.869C1260.13 187.211 1327.18 206.301 1395.91 221.996C1512.2 248.372 1657.11 276.696 1780.03 263.927C1938.11 247.467 2076.47 181.342 2233.88 162.084" stroke="url(#paint23_linear)" stroke-opacity="0.4" stroke-width="4" stroke-miterlimit="10"/>
<path d="M-584.292 147.82C-456.083 150.865 -342.826 208.034 -212.229 187.144C-99.2851 169.066 -6.63635 114.832 104.938 94.2307C220.66 72.8747 355.446 102.035 468.057 122.225C579.161 142.155 686.644 169.875 796.848 191.547C894.331 210.749 959.6 169.505 1047.22 149.274C1101.63 136.723 1147.85 141.647 1198.72 158.875C1263.14 180.879 1329.88 199.386 1398.34 214.233C1515.08 239.402 1658.81 264.805 1781.38 251.884C1938.28 235.425 2077.96 173.839 2233.88 153.786" stroke="url(#paint24_linear)" stroke-opacity="0.4" stroke-width="4" stroke-miterlimit="10"/>
<path d="M-584.252 138.616C-455.24 141.771 -341.866 199.488 -210.447 178.887C-97.4445 161.234 -4.07163 107.933 107.639 88.0445C223.245 67.4703 357.09 96.6171 469.701 116.506C579.984 136.01 687.389 162.935 797.475 182.59C894.293 199.886 962.106 160.562 1050.45 142.333C1105.25 131.031 1151.81 136.435 1202.63 153.58C1266.59 175.198 1332.99 193.058 1401.16 206.977C1518.35 230.857 1660.63 253.132 1782.93 240.061C1938.6 223.505 2079.53 166.72 2233.96 145.982" stroke="url(#paint25_linear)" stroke-opacity="0.4" stroke-width="4" stroke-miterlimit="10"/>
<path d="M-584.214 129.687C-454.4 132.938 -340.888 191.204 -208.315 170.945C-95.4884 153.69 -1.33268 101.432 110.496 82.2978C225.964 62.5328 358.89 91.6111 471.247 111.102C580.726 130.14 688.054 156.173 797.905 173.826C894.116 189.298 964.61 151.88 1053.64 135.75C1108.83 125.723 1155.76 131.635 1206.61 148.657C1270.08 169.842 1336.12 187.005 1403.96 199.941C1521.91 222.436 1662.43 241.227 1784.53 228.183C1938.99 211.723 2081.03 159.712 2234 138.383" stroke="url(#paint26_linear)" stroke-opacity="0.4" stroke-width="4" stroke-miterlimit="10"/>
<path d="M-584.176 120.908C-453.422 124.351 -339.696 183.18 -206.183 163.305C-93.3759 146.53 1.60181 95.3141 113.508 76.9756C228.879 58.0884 360.807 87.0021 473.007 106.164C581.665 124.721 688.913 149.767 798.471 165.417C894.115 179.133 967.388 143.732 1057.08 129.755C1112.68 121.046 1159.97 127.588 1210.89 144.377C1273.88 165.087 1339.56 181.507 1407.03 193.412C1525.71 214.425 1664.27 229.609 1786.22 216.551C1939.46 200.16 2082.52 153.114 2234.04 131.292" stroke="url(#paint27_linear)" stroke-opacity="0.4" stroke-width="4" stroke-miterlimit="10"/>
<path d="M-584.137 112.418C-452.444 116.039 -338.521 175.43 -203.893 155.994C-91.1839 139.713 4.55714 89.5807 116.659 72.0789C231.874 54.0833 362.783 82.7912 474.808 101.527C582.683 119.564 689.794 143.554 799 157.201C894.154 169.093 970.265 135.832 1060.64 123.94C1116.64 116.574 1164.25 123.761 1215.35 140.399C1277.85 160.594 1343.15 176.222 1410.22 187.034C1529.6 206.456 1666.05 217.868 1787.94 204.865C1939.99 188.666 2083.95 146.585 2234.08 124.324" stroke="url(#paint28_linear)" stroke-opacity="0.4" stroke-width="4" stroke-miterlimit="10"/>
<path d="M-584.098 104.189C-451.485 108.002 -337.269 167.955 -201.603 148.986C-88.8748 133.226 7.66867 84.2044 119.908 67.5666C234.965 50.5175 364.838 78.9373 476.784 97.2347C583.896 114.75 690.851 137.588 799.704 149.246C894.447 159.383 973.455 128.288 1064.48 118.591C1120.88 112.569 1168.83 120.442 1220.13 136.833C1282.14 156.506 1347.06 171.327 1413.7 181.027C1533.89 198.762 1668.01 206.278 1789.86 193.371C1940.55 177.378 2085.38 140.372 2234.12 117.74" stroke="url(#paint29_linear)" stroke-opacity="0.4" stroke-width="4" stroke-miterlimit="10"/>
<path d="M-584.059 96.2195C-450.487 100.238 -335.977 160.685 -199.196 142.292C-86.4677 127.081 10.8782 79.1703 123.254 63.4379C238.155 47.39 366.971 75.4532 478.78 93.2842C585.168 110.251 691.927 131.868 800.311 141.551C894.721 149.987 976.606 121.101 1068.22 113.598C1124.97 108.948 1173.29 117.534 1224.78 133.719C1286.31 152.832 1350.84 166.805 1417.03 175.348C1537.98 191.3 1669.73 194.852 1791.58 182.041C1941.18 166.323 2086.57 134.433 2234.02 111.472" stroke="url(#paint30_linear)" stroke-opacity="0.4" stroke-width="4" stroke-miterlimit="10"/>
<path d="M-584.02 88.5384C-449.469 92.763 -334.627 153.827 -196.75 135.914C-84.0409 121.251 14.1662 74.4931 126.679 59.7345C241.385 44.6468 369.124 72.3945 480.913 89.7317C586.596 106.191 693.121 126.477 801.055 134.199C895.289 140.948 979.972 114.311 1072.29 109.017C1129.46 105.738 1177.97 115.079 1229.95 131.045C1291.01 149.588 1355.14 162.693 1420.85 170.053C1696.8 201.998 1967.21 148.108 2234.29 105.588" stroke="url(#paint31_linear)" stroke-opacity="0.4" stroke-width="4" stroke-miterlimit="10"/>
<path d="M-583.98 81.1045C-448.432 85.5622 -333.257 147.161 -194.245 129.81C-81.5358 115.738 17.5127 70.1453 130.163 56.2508C244.673 42.1232 371.336 69.528 482.89 86.3577C587.966 102.255 694.178 121.224 801.622 126.944C895.837 132.005 983.182 107.741 1076.18 104.586C1133.68 102.666 1182.61 112.816 1234.88 128.549C1295.24 146.832 1359.34 158.491 1424.41 164.938C1693.33 191.588 1973.82 142.114 2234.23 99.8819" stroke="url(#paint32_linear)" stroke-opacity="0.4" stroke-width="4" stroke-miterlimit="10"/>
<path d="M-583.94 73.9722C-447.394 78.6631 -331.867 140.797 -191.719 124.022C-78.9908 110.485 20.8797 66.1128 133.667 53.1511C247.981 40.0247 373.548 67.0592 484.985 83.3266C589.494 98.6201 695.333 116.245 802.288 120.1C896.679 123.501 986.49 101.528 1080.2 100.609C1138.03 100.047 1187.27 110.992 1239.95 126.532C1299.92 144.212 1363.58 154.87 1428.11 160.164C1551.03 170.246 1675.68 161.659 1797.59 149.329C1943.86 134.529 2090.35 118.289 2234.27 94.4641" stroke="url(#paint33_linear)" stroke-opacity="0.4" stroke-width="4" stroke-miterlimit="10"/>
<path d="M-583.902 67.1276C-447.532 71.9694 -332.161 134.213 -192.151 118.879C-79.8724 106.534 20.1938 63.8906 132.1 50.9562C245.22 37.8847 368.263 63.822 478.721 79.4858C585.5 94.5736 693.669 111.431 802.973 113.543C900.005 115.422 994.553 94.6559 1091.37 97.0837C1149.81 98.5513 1198.52 111.938 1252.09 126.807C1307.73 142.251 1366.48 151.098 1425.9 155.281C1552.36 164.183 1677.79 151.057 1802.75 138.671C1946.99 124.379 2092.52 113.378 2234.37 89.4849" stroke="url(#paint34_linear)" stroke-opacity="0.4" stroke-width="4" stroke-miterlimit="10"/>
<path d="M-583.883 60.5851C-446.573 65.6601 -330.733 128.425 -189.685 113.68C-77.3871 101.939 23.4816 60.4205 135.564 48.4326C248.449 36.4173 370.513 61.9842 480.815 77.1405C587.085 91.7619 694.843 107.316 803.579 107.316C901.179 107.316 997.82 89.3067 1095.44 93.9016C1153.96 96.6449 1203.08 110.8 1257.06 125.353C1312.33 140.248 1370.69 148.163 1429.59 151.29C1556.47 158.025 1679.73 140.701 1804.67 128.658C1947.97 114.846 2093.48 108.962 2234.33 84.7667" stroke="url(#paint35_linear)" stroke-opacity="0.4" stroke-width="4" stroke-miterlimit="10"/>
<path d="M-583.844 54.358C-445.497 59.6661 -329.422 122.939 -187.18 108.77C-74.8428 97.5775 26.8087 57.2246 139.048 46.1694C251.698 35.0456 372.803 60.4342 483.046 75.0968C588.729 89.1833 696.076 103.338 804.245 101.336C902.549 99.5115 1001.09 84.2043 1099.53 90.9389C1158.13 94.9577 1207.64 109.867 1261.97 124.105C1316.77 138.465 1374.85 145.447 1433.22 147.518C1560.43 152.058 1681.65 130.62 1806.55 118.906C1948.95 105.547 2094.24 104.806 2234.27 80.3089" stroke="url(#paint36_linear)" stroke-opacity="0.4" stroke-width="4" stroke-miterlimit="10"/>
<path d="M-583.804 48.4459C-444.498 53.9324 -327.933 117.74 -184.694 104.161C-72.3368 93.5035 30.0975 54.2478 142.513 44.1802C254.928 34.1125 375.055 59.1582 485.004 73.3133C590.433 86.8923 697.271 99.7169 804.852 95.6981C904.018 91.9947 1004.24 79.4307 1103.5 88.2776C1162.22 93.5035 1212.08 109.222 1266.92 123.13C1321.76 137.039 1379.1 143.019 1436.92 144.061C1564.13 146.379 1683.74 120.922 1808.51 109.538C1950.08 96.617 2095.26 101.006 2234.35 76.1525" stroke="url(#paint37_linear)" stroke-opacity="0.4" stroke-width="4" stroke-miterlimit="10"/>
<path d="M-583.784 42.8502C-443.519 48.611 -326.544 112.803 -182.286 99.8545C-69.8709 89.7183 33.3071 51.656 145.879 42.4387C257.981 33.2626 377.364 58.1437 487.118 71.8187C592.234 84.9039 698.484 96.3843 805.537 90.3904C905.682 84.7805 1007.39 74.946 1107.54 85.8641C1166.07 92.2558 1216.53 108.797 1271.76 122.39C1325.97 135.722 1383.31 140.852 1440.5 140.893C1567.71 141.003 1685.8 111.65 1810.39 100.568C1951.3 88.0312 2096.12 97.5365 2234.35 72.2851" stroke="url(#paint38_linear)" stroke-opacity="0.4" stroke-width="4" stroke-miterlimit="10"/>
<path d="M-583.765 37.5967C-442.56 43.5495 -325.232 108.276 -179.938 95.8218C-67.4636 86.2205 36.458 49.1868 149.167 40.9571C261.152 32.7274 379.341 57.4165 489.114 70.6115C594.014 83.1755 699.737 93.3666 806.163 85.4249C907.384 77.881 1010.41 70.7761 1111.47 83.7241C1169.99 91.1994 1220.87 108.578 1276.51 121.855C1330.47 134.721 1387.32 138.932 1443.98 137.999C1571 135.928 1687.85 102.817 1812.27 91.995C1952.37 79.815 2096.83 94.4364 2234.41 68.6775" stroke="url(#paint39_linear)" stroke-opacity="0.4" stroke-width="4" stroke-miterlimit="10"/>
<path d="M-583.727 32.6724C-441.642 38.8309 -323.903 103.996 -177.649 92.0907C-65.1164 82.9146 39.5881 47.0743 152.356 39.6264C264.106 32.2472 381.336 56.8951 491.05 69.5962C595.755 81.6802 700.949 90.5957 806.769 80.7475C909.125 71.2285 1013.42 66.8119 1115.19 81.7487C1173.65 90.3213 1224.96 108.523 1281.09 121.526C1334.71 133.87 1391.27 137.272 1447.44 135.393C1574.13 131.182 1689.99 94.4773 1814.18 83.8885C1953.63 71.9966 2097.65 91.6929 2234.57 65.4265" stroke="url(#paint40_linear)" stroke-opacity="0.4" stroke-width="4" stroke-miterlimit="10"/>
<path d="M-583.706 28.0913C-440.838 34.4419 -322.669 100.074 -175.476 88.6481C-62.8843 79.8972 42.4074 45.1405 155.43 38.5156C266.984 31.9867 383.353 56.5934 492.891 68.8557C597.459 80.583 702.124 88.1543 807.318 76.4407C910.868 64.9191 1016.1 63.136 1118.75 80.0069C1177.09 89.6082 1228.9 108.632 1285.4 121.334C1338.75 133.322 1394.99 135.804 1450.58 133.033C1576.81 126.738 1691.87 86.6455 1815.83 76.1938C1954.78 64.5214 2098.22 89.2653 2234.53 62.3679" stroke="url(#paint41_linear)" stroke-opacity="0.4" stroke-width="4" stroke-miterlimit="10"/>
<path d="M-583.687 23.8804C-439.918 30.3818 -321.436 96.4525 -173.421 85.4796C-60.7315 77.1401 45.206 43.4122 158.346 37.5965C269.724 31.8769 385.192 56.4836 494.633 68.3618C599.103 79.7051 703.259 86.0145 807.866 72.4767C912.473 58.9388 1018.74 59.7344 1122.19 78.4706C1180.4 89.0183 1232.71 108.646 1289.53 121.292C1342.37 133.075 1398.69 134.556 1453.59 130.894C1579.31 122.664 1693.72 79.3347 1817.43 69.0202C1955.78 57.4849 2098.8 87.2352 2234.53 59.6109" stroke="url(#paint42_linear)" stroke-opacity="0.4" stroke-width="4" stroke-miterlimit="10"/>
<path d="M-583.569 19.9575C-439.018 26.5961 -320.282 93.1058 -171.386 82.558C-58.7355 74.6164 47.8283 41.9034 161.105 36.8421C272.229 31.8769 386.954 56.5659 496.277 68.1012C600.688 79.0741 704.355 84.1903 808.355 68.8693C914.312 53.2741 1021.21 56.5248 1125.4 77.099C1183.49 88.5383 1236.25 108.907 1293.4 121.375C1346.03 132.855 1402.06 133.514 1456.39 129.111C1515.67 124.296 1573.46 113.269 1630.37 101.034C1691.79 87.8525 1754.98 67.7446 1818.96 62.4227C1956.84 50.9423 2099.37 85.6305 2234.55 57.1832" stroke="url(#paint43_linear)" stroke-opacity="0.4" stroke-width="4" stroke-miterlimit="10"/>
<path d="M-583.569 16.5283C-438.314 23.2767 -319.362 90.2115 -169.605 80.0204C-56.8567 72.3393 50.2747 40.5316 163.688 36.2247C274.636 31.959 388.539 56.7989 497.764 68.0462C602.175 78.7722 705.431 82.6813 808.825 65.6321C915.936 47.9657 1023.54 53.5756 1128.5 75.933C1186.33 88.2775 1239.54 109.263 1296.98 121.553C1349.39 132.759 1405.17 132.677 1458.97 127.519C1518.13 121.868 1575.59 109.88 1632.17 96.8638C1693.14 82.8459 1756.43 61.6956 1820.39 56.3326C1957.83 44.8247 2099.92 84.3821 2234.57 54.961" stroke="url(#paint44_linear)" stroke-opacity="0.4" stroke-width="4" stroke-miterlimit="10"/>
<path d="M-583.569 13.415C-437.648 20.2731 -318.383 87.6057 -167.98 77.7164C-55.154 70.2822 52.4861 39.4346 165.998 35.7449C276.789 32.1376 389.928 57.2656 499.075 68.2248C603.506 78.6902 706.39 81.502 809.177 62.7383C917.522 43.0282 1025.61 50.8464 1131.31 74.9183C1188.93 88.0309 1242.54 109.661 1300.27 121.814C1352.47 132.787 1407.91 132.019 1461.32 126.189C1520.35 119.743 1577.51 106.849 1633.8 93.1196C1694.35 78.3473 1757.72 56.2643 1821.68 50.819C1958.68 39.1603 2100.43 83.532 2234.63 53.0547" stroke="url(#paint45_linear)" stroke-opacity="0.4" stroke-width="4" stroke-miterlimit="10"/>
<path d="M-583.569 10.6855C-437.042 17.5436 -317.581 85.3425 -166.532 75.6864C-53.5688 68.458 54.6193 38.4607 168.248 35.3746C278.922 32.3571 391.357 57.8554 500.387 68.5951C604.856 78.8685 707.447 80.6379 809.607 60.2694C919.068 38.447 1027.43 48.3227 1133.88 73.9856C1191.3 87.8526 1245.26 110.045 1303.23 122.088C1355.25 132.883 1410.49 131.511 1463.39 125.065C1522.34 117.877 1579.2 104.161 1635.23 89.7729C1695.45 74.2873 1758.86 51.4499 1822.89 45.8812C1959.62 33.9756 2101.02 83.0519 2234.63 51.3676" stroke="url(#paint46_linear)" stroke-opacity="0.4" stroke-width="4" stroke-miterlimit="10"/>
<path d="M-583.569 8.35352C-436.474 15.2116 -316.896 83.4357 -165.26 73.9304C-52.2771 66.8529 56.4002 37.6512 170.127 35.0451C280.683 32.5625 392.375 58.5135 501.404 69.1023C605.933 79.2523 708.328 80.0753 809.901 58.1294C920.496 34.2222 1028.92 45.9632 1136.15 73.2172C1193.32 87.7563 1247.59 110.457 1305.77 122.417C1357.63 133.088 1412.61 131.195 1465.14 124.2C1524.01 116.341 1580.6 101.884 1636.4 86.8922C1696.35 70.7757 1759.7 47.3485 1823.91 41.6289C1960.34 29.3529 2101.56 83.0517 2234.65 49.9683" stroke="url(#paint47_linear)" stroke-opacity="0.4" stroke-width="4" stroke-miterlimit="10"/>
<path d="M-583.569 6.40625C-437.198 13.2643 -318.011 81.4885 -167.256 72.6415C-48.1281 65.66 67.0273 34.1266 187.232 34.7713C289.999 35.3199 393.118 58.9803 494.633 69.1576C602.488 79.966 705.725 79.6642 810.175 56.5251C925.996 30.9307 1034.52 44.3863 1146.15 74.8224C1196.19 88.4563 1243.87 107.055 1294.28 119.825C1347.63 133.336 1406.21 132.019 1461.1 124.516C1523.4 116.012 1583.03 99.827 1641.78 83.3676C1701 66.7162 1763.96 43.2753 1827.82 37.7888C1962.86 26.2535 2103.31 83.203 2234.63 48.8577" stroke="url(#paint48_linear)" stroke-opacity="0.4" stroke-width="4" stroke-miterlimit="10"/>
<path d="M-583.569 4.87012C-436.787 11.6322 -317.6 80.3089 -166.434 71.4483C-47.267 64.453 68.4168 33.6603 188.582 34.689C291.271 35.5806 393.862 59.8993 495.318 70.0904C603.251 80.9261 706.469 79.8563 810.41 55.2084C927.405 27.4469 1035.36 42.4798 1147.91 74.411C1197.72 88.5386 1245.53 107.302 1296.08 120.086C1349.31 133.61 1407.64 132.019 1462.22 124.091C1524.47 115.052 1583.87 98.1673 1642.45 81.269C1701.59 64.2061 1764.53 40.5047 1828.55 34.7439C1963.33 22.7011 2103.93 83.9162 2234.65 47.9114" stroke="url(#paint49_linear)" stroke-opacity="0.4" stroke-width="4" stroke-miterlimit="10"/>
<path d="M-583.569 3.77246C-436.494 10.4248 -317.405 79.513 -165.808 70.5152C-46.6211 63.4377 69.3171 33.3033 189.639 34.6612C292.289 35.8134 394.39 60.9139 495.807 71.1873C603.799 82.1603 707.173 80.4183 810.449 54.289C928.579 24.4153 1035.67 40.7101 1149.18 73.9854C1198.87 88.5383 1246.8 107.494 1297.39 120.428C1350.59 134.021 1408.4 132.307 1462.94 124.008C1588.96 104.806 1701.87 44.6877 1829.1 32.5627C1963.65 19.7381 2104.62 85.0818 2234.65 47.2664" stroke="url(#paint50_linear)" stroke-opacity="0.4" stroke-width="4" stroke-miterlimit="10"/>
<path d="M-583.569 3.07422C-436.259 9.58939 -317.209 79.0891 -165.436 69.8719C-46.2297 62.616 70.1 33.0714 190.363 34.6488C293.033 36.0204 394.684 61.9988 496.062 72.4505C604.093 83.588 707.819 81.3386 810.508 53.7966C929.675 21.8242 1035.57 39.0654 1150.16 73.685C1199.44 88.5396 1247.49 108.222 1298.2 120.649C1352.06 133.83 1408.13 132.76 1463.26 124.092C1589.49 104.231 1701.77 44.0581 1829.45 31.0552C1963.82 17.339 2105.4 86.6742 2234.57 46.8562" stroke="url(#paint51_linear)" stroke-opacity="0.4" stroke-width="4" stroke-miterlimit="10"/>
<path d="M-583.569 2.8125C-436.102 9.13564 -317.268 79.0468 -165.338 69.4867C-46.1319 61.984 70.3543 32.9332 190.853 34.634C293.541 36.0879 394.801 63.1635 496.159 73.8621C604.191 85.2603 708.465 82.6405 810.547 53.7131C930.634 19.6559 1035.04 37.5144 1150.73 73.4507C1256.41 106.26 1343.48 143.609 1463.16 124.379C1589.72 104.038 1701.47 44.3724 1829.61 30.3271C1963.82 15.6097 2106.14 88.6893 2234.72 46.7865" stroke="url(#paint52_linear)" stroke-opacity="0.4" stroke-width="4" stroke-miterlimit="10"/>
</g>
<defs>
<linearGradient id="paint0_linear" x1="2.02853e+06" y1="116904" x2="2.02853e+06" y2="113986" gradientUnits="userSpaceOnUse">
<stop stop-color="#151B3A"/>
<stop offset="1" stop-color="#00A1FF"/>
</linearGradient>
<linearGradient id="paint1_linear" x1="2.0286e+06" y1="117218" x2="2.0286e+06" y2="114292" gradientUnits="userSpaceOnUse">
<stop stop-color="#151B3A"/>
<stop offset="1" stop-color="#00A1FF"/>
</linearGradient>
<linearGradient id="paint2_linear" x1="2.02856e+06" y1="116962" x2="2.02856e+06" y2="114043" gradientUnits="userSpaceOnUse">
<stop stop-color="#151B3A"/>
<stop offset="1" stop-color="#00A1FF"/>
</linearGradient>
<linearGradient id="paint3_linear" x1="2.02856e+06" y1="116190" x2="2.02856e+06" y2="113289" gradientUnits="userSpaceOnUse">
<stop stop-color="#151B3A"/>
<stop offset="1" stop-color="#00A1FF"/>
</linearGradient>
<linearGradient id="paint4_linear" x1="2.02857e+06" y1="114353" x2="2.02857e+06" y2="111498" gradientUnits="userSpaceOnUse">
<stop stop-color="#151B3A"/>
<stop offset="1" stop-color="#00A1FF"/>
</linearGradient>
<linearGradient id="paint5_linear" x1="2.02859e+06" y1="113137" x2="2.02859e+06" y2="110312" gradientUnits="userSpaceOnUse">
<stop stop-color="#151B3A"/>
<stop offset="1" stop-color="#00A1FF"/>
</linearGradient>
<linearGradient id="paint6_linear" x1="2.0285e+06" y1="111658" x2="2.0285e+06" y2="108870" gradientUnits="userSpaceOnUse">
<stop stop-color="#151B3A"/>
<stop offset="1" stop-color="#00A1FF"/>
</linearGradient>
<linearGradient id="paint7_linear" x1="2.02856e+06" y1="110083" x2="2.02856e+06" y2="107335" gradientUnits="userSpaceOnUse">
<stop stop-color="#151B3A"/>
<stop offset="1" stop-color="#00A1FF"/>
</linearGradient>
<linearGradient id="paint8_linear" x1="2.02861e+06" y1="108415" x2="2.02861e+06" y2="105707" gradientUnits="userSpaceOnUse">
<stop stop-color="#151B3A"/>
<stop offset="1" stop-color="#00A1FF"/>
</linearGradient>
<linearGradient id="paint9_linear" x1="2.02853e+06" y1="106722" x2="2.02853e+06" y2="104057" gradientUnits="userSpaceOnUse">
<stop stop-color="#151B3A"/>
<stop offset="1" stop-color="#00A1FF"/>
</linearGradient>
<linearGradient id="paint10_linear" x1="2.02856e+06" y1="104504" x2="2.02856e+06" y2="101894" gradientUnits="userSpaceOnUse">
<stop stop-color="#151B3A"/>
<stop offset="1" stop-color="#00A1FF"/>
</linearGradient>
<linearGradient id="paint11_linear" x1="2.0285e+06" y1="102928" x2="2.0285e+06" y2="100357" gradientUnits="userSpaceOnUse">
<stop stop-color="#151B3A"/>
<stop offset="1" stop-color="#00A1FF"/>
</linearGradient>
<linearGradient id="paint12_linear" x1="2.02852e+06" y1="101528" x2="2.02852e+06" y2="98992" gradientUnits="userSpaceOnUse">
<stop stop-color="#151B3A"/>
<stop offset="1" stop-color="#00A1FF"/>
</linearGradient>
<linearGradient id="paint13_linear" x1="2.0285e+06" y1="100436" x2="2.0285e+06" y2="97927.6" gradientUnits="userSpaceOnUse">
<stop stop-color="#151B3A"/>
<stop offset="1" stop-color="#00A1FF"/>
</linearGradient>
<linearGradient id="paint14_linear" x1="2.02861e+06" y1="99501.2" x2="2.02861e+06" y2="97015.6" gradientUnits="userSpaceOnUse">
<stop stop-color="#151B3A"/>
<stop offset="1" stop-color="#00A1FF"/>
</linearGradient>
<linearGradient id="paint15_linear" x1="2.02856e+06" y1="99059.1" x2="2.02856e+06" y2="96584.3" gradientUnits="userSpaceOnUse">
<stop stop-color="#151B3A"/>
<stop offset="1" stop-color="#00A1FF"/>
</linearGradient>
<linearGradient id="paint16_linear" x1="2.02856e+06" y1="98869.7" x2="2.02856e+06" y2="96399.4" gradientUnits="userSpaceOnUse">
<stop stop-color="#151B3A"/>
<stop offset="1" stop-color="#00A1FF"/>
</linearGradient>
<linearGradient id="paint17_linear" x1="2.0286e+06" y1="98272.8" x2="2.0286e+06" y2="95817.2" gradientUnits="userSpaceOnUse">
<stop stop-color="#151B3A"/>
<stop offset="1" stop-color="#00A1FF"/>
</linearGradient>
<linearGradient id="paint18_linear" x1="2.02856e+06" y1="97353.6" x2="2.02856e+06" y2="94920.7" gradientUnits="userSpaceOnUse">
<stop stop-color="#151B3A"/>
<stop offset="1" stop-color="#00A1FF"/>
</linearGradient>
<linearGradient id="paint19_linear" x1="2.0286e+06" y1="95993.2" x2="2.0286e+06" y2="93594.2" gradientUnits="userSpaceOnUse">
<stop stop-color="#151B3A"/>
<stop offset="1" stop-color="#00A1FF"/>
</linearGradient>
<linearGradient id="paint20_linear" x1="2.02856e+06" y1="94354.6" x2="2.02856e+06" y2="91996.4" gradientUnits="userSpaceOnUse">
<stop stop-color="#151B3A"/>
<stop offset="1" stop-color="#00A1FF"/>
</linearGradient>
<linearGradient id="paint21_linear" x1="2.0286e+06" y1="92387.3" x2="2.0286e+06" y2="90078.1" gradientUnits="userSpaceOnUse">
<stop stop-color="#151B3A"/>
<stop offset="1" stop-color="#00A1FF"/>
</linearGradient>
<linearGradient id="paint22_linear" x1="2.02854e+06" y1="90188.1" x2="2.02854e+06" y2="87933.8" gradientUnits="userSpaceOnUse">
<stop stop-color="#151B3A"/>
<stop offset="1" stop-color="#00A1FF"/>
</linearGradient>
<linearGradient id="paint23_linear" x1="2.02856e+06" y1="87692.3" x2="2.02856e+06" y2="85500.2" gradientUnits="userSpaceOnUse">
<stop stop-color="#151B3A"/>
<stop offset="1" stop-color="#00A1FF"/>
</linearGradient>
<linearGradient id="paint24_linear" x1="2.02853e+06" y1="84917.4" x2="2.02853e+06" y2="82794.6" gradientUnits="userSpaceOnUse">
<stop stop-color="#151B3A"/>
<stop offset="1" stop-color="#00A1FF"/>
</linearGradient>
<linearGradient id="paint25_linear" x1="2.02856e+06" y1="82052.7" x2="2.02856e+06" y2="80001.4" gradientUnits="userSpaceOnUse">
<stop stop-color="#151B3A"/>
<stop offset="1" stop-color="#00A1FF"/>
</linearGradient>
<linearGradient id="paint26_linear" x1="2.02856e+06" y1="78953" x2="2.02856e+06" y2="76979.2" gradientUnits="userSpaceOnUse">
<stop stop-color="#151B3A"/>
<stop offset="1" stop-color="#00A1FF"/>
</linearGradient>
<linearGradient id="paint27_linear" x1="2.02856e+06" y1="75827.6" x2="2.02856e+06" y2="73931.9" gradientUnits="userSpaceOnUse">
<stop stop-color="#151B3A"/>
<stop offset="1" stop-color="#00A1FF"/>
</linearGradient>
<linearGradient id="paint28_linear" x1="2.02856e+06" y1="72536.2" x2="2.02856e+06" y2="70722.7" gradientUnits="userSpaceOnUse">
<stop stop-color="#151B3A"/>
<stop offset="1" stop-color="#00A1FF"/>
</linearGradient>
<linearGradient id="paint29_linear" x1="2.02856e+06" y1="69258.2" x2="2.02856e+06" y2="67526.7" gradientUnits="userSpaceOnUse">
<stop stop-color="#151B3A"/>
<stop offset="1" stop-color="#00A1FF"/>
</linearGradient>
<linearGradient id="paint30_linear" x1="2.02846e+06" y1="66047.9" x2="2.02846e+06" y2="64396.6" gradientUnits="userSpaceOnUse">
<stop stop-color="#151B3A"/>
<stop offset="1" stop-color="#00A1FF"/>
</linearGradient>
<linearGradient id="paint31_linear" x1="2.02863e+06" y1="62607" x2="2.02863e+06" y2="61041.7" gradientUnits="userSpaceOnUse">
<stop stop-color="#151B3A"/>
<stop offset="1" stop-color="#00A1FF"/>
</linearGradient>
<linearGradient id="paint32_linear" x1="2.02856e+06" y1="60489.7" x2="2.02856e+06" y2="58977.3" gradientUnits="userSpaceOnUse">
<stop stop-color="#151B3A"/>
<stop offset="1" stop-color="#00A1FF"/>
</linearGradient>
<linearGradient id="paint33_linear" x1="2.02856e+06" y1="57876.2" x2="2.02856e+06" y2="56429.2" gradientUnits="userSpaceOnUse">
<stop stop-color="#151B3A"/>
<stop offset="1" stop-color="#00A1FF"/>
</linearGradient>
<linearGradient id="paint34_linear" x1="2.0286e+06" y1="55799.4" x2="2.0286e+06" y2="54404.3" gradientUnits="userSpaceOnUse">
<stop stop-color="#151B3A"/>
<stop offset="1" stop-color="#00A1FF"/>
</linearGradient>
<linearGradient id="paint35_linear" x1="2.02856e+06" y1="54120.4" x2="2.02856e+06" y2="52767.2" gradientUnits="userSpaceOnUse">
<stop stop-color="#151B3A"/>
<stop offset="1" stop-color="#00A1FF"/>
</linearGradient>
<linearGradient id="paint36_linear" x1="2.02849e+06" y1="52725" x2="2.02849e+06" y2="51406.7" gradientUnits="userSpaceOnUse">
<stop stop-color="#151B3A"/>
<stop offset="1" stop-color="#00A1FF"/>
</linearGradient>
<linearGradient id="paint37_linear" x1="2.02852e+06" y1="51538" x2="2.02852e+06" y2="50249.4" gradientUnits="userSpaceOnUse">
<stop stop-color="#151B3A"/>
<stop offset="1" stop-color="#00A1FF"/>
</linearGradient>
<linearGradient id="paint38_linear" x1="2.0285e+06" y1="50572.8" x2="2.0285e+06" y2="49308.3" gradientUnits="userSpaceOnUse">
<stop stop-color="#151B3A"/>
<stop offset="1" stop-color="#00A1FF"/>
</linearGradient>
<linearGradient id="paint39_linear" x1="2.02853e+06" y1="50614.5" x2="2.02853e+06" y2="49348.9" gradientUnits="userSpaceOnUse">
<stop stop-color="#151B3A"/>
<stop offset="1" stop-color="#00A1FF"/>
</linearGradient>
<linearGradient id="paint40_linear" x1="2.02862e+06" y1="51956.1" x2="2.02862e+06" y2="50656.8" gradientUnits="userSpaceOnUse">
<stop stop-color="#151B3A"/>
<stop offset="1" stop-color="#00A1FF"/>
</linearGradient>
<linearGradient id="paint41_linear" x1="2.02857e+06" y1="53344" x2="2.02857e+06" y2="52009.8" gradientUnits="userSpaceOnUse">
<stop stop-color="#151B3A"/>
<stop offset="1" stop-color="#00A1FF"/>
</linearGradient>
<linearGradient id="paint42_linear" x1="2.02856e+06" y1="54754.6" x2="2.02856e+06" y2="53385.1" gradientUnits="userSpaceOnUse">
<stop stop-color="#151B3A"/>
<stop offset="1" stop-color="#00A1FF"/>
</linearGradient>
<linearGradient id="paint43_linear" x1="2.02849e+06" y1="56204.2" x2="2.02849e+06" y2="54798.3" gradientUnits="userSpaceOnUse">
<stop stop-color="#151B3A"/>
<stop offset="1" stop-color="#00A1FF"/>
</linearGradient>
<linearGradient id="paint44_linear" x1="2.0285e+06" y1="57546.9" x2="2.0285e+06" y2="56107.3" gradientUnits="userSpaceOnUse">
<stop stop-color="#151B3A"/>
<stop offset="1" stop-color="#00A1FF"/>
</linearGradient>
<linearGradient id="paint45_linear" x1="2.02855e+06" y1="58858.8" x2="2.02855e+06" y2="57386.3" gradientUnits="userSpaceOnUse">
<stop stop-color="#151B3A"/>
<stop offset="1" stop-color="#00A1FF"/>
</linearGradient>
<linearGradient id="paint46_linear" x1="2.02855e+06" y1="60068.3" x2="2.02855e+06" y2="58565.4" gradientUnits="userSpaceOnUse">
<stop stop-color="#151B3A"/>
<stop offset="1" stop-color="#00A1FF"/>
</linearGradient>
<linearGradient id="paint47_linear" x1="2.02856e+06" y1="61177.7" x2="2.02856e+06" y2="59647" gradientUnits="userSpaceOnUse">
<stop stop-color="#151B3A"/>
<stop offset="1" stop-color="#00A1FF"/>
</linearGradient>
<linearGradient id="paint48_linear" x1="2.02855e+06" y1="62240.2" x2="2.02855e+06" y2="60682.8" gradientUnits="userSpaceOnUse">
<stop stop-color="#151B3A"/>
<stop offset="1" stop-color="#00A1FF"/>
</linearGradient>
<linearGradient id="paint49_linear" x1="2.02856e+06" y1="63039.9" x2="2.02856e+06" y2="61462.6" gradientUnits="userSpaceOnUse">
<stop stop-color="#151B3A"/>
<stop offset="1" stop-color="#00A1FF"/>
</linearGradient>
<linearGradient id="paint50_linear" x1="2.02856e+06" y1="63733.9" x2="2.02856e+06" y2="62139.2" gradientUnits="userSpaceOnUse">
<stop stop-color="#151B3A"/>
<stop offset="1" stop-color="#00A1FF"/>
</linearGradient>
<linearGradient id="paint51_linear" x1="2.0285e+06" y1="64158" x2="2.0285e+06" y2="62552.6" gradientUnits="userSpaceOnUse">
<stop stop-color="#151B3A"/>
<stop offset="1" stop-color="#00A1FF"/>
</linearGradient>
<linearGradient id="paint52_linear" x1="2.02862e+06" y1="63808" x2="2.02862e+06" y2="62211.4" gradientUnits="userSpaceOnUse">
<stop stop-color="#151B3A"/>
<stop offset="1" stop-color="#00A1FF"/>
</linearGradient>
</defs>
</svg>
