<svg width="40" height="40" viewBox="0 0 40 40" fill="none" xmlns="http://www.w3.org/2000/svg">
<path d="M40 20C40 31.0457 31.0457 40 20 40C8.9543 40 0 31.0457 0 20C0 8.9543 8.9543 0 20 0C31.0457 0 40 8.9543 40 20Z" fill="#080A16" fill-opacity="0.5"/>
<path fill-rule="evenodd" clip-rule="evenodd" d="M15.3047 27.5003L18.165 28.1968V27.2861L18.3985 27.0718H20.0329V28.1432V28.8932H18.2817L16.1219 28.0361L15.3047 27.5003Z" fill="#CDBDB2"/>
<path fill-rule="evenodd" clip-rule="evenodd" d="M24.6445 27.5003L21.8426 28.1968V27.2861L21.6092 27.0718H19.9747V28.1432V28.8932H21.7259L23.8856 28.0361L24.6445 27.5003Z" fill="#CDBDB2"/>
<path fill-rule="evenodd" clip-rule="evenodd" d="M18.3985 25.5179L18.165 27.2857L18.4569 27.0714H21.4922L21.8425 27.2857L21.609 25.5179L21.142 25.25L18.8071 25.3036L18.3985 25.5179Z" fill="#393939"/>
<path fill-rule="evenodd" clip-rule="evenodd" d="M16.8223 13.5718L18.2232 16.5718L18.8654 25.304H21.1418L21.8423 16.5718L23.1265 13.5718H16.8223Z" fill="#F89C35"/>
<path fill-rule="evenodd" clip-rule="evenodd" d="M10.693 20.1609L9.05859 24.5001L13.1447 24.2858H15.7714V22.4109L15.6547 18.5537L15.0709 18.9823L10.693 20.1609Z" fill="#F89D35"/>
<path fill-rule="evenodd" clip-rule="evenodd" d="M13.7871 20.6431L18.5737 20.7502L18.0484 23.0002L15.7718 22.4645L13.7871 20.6431Z" fill="#D87C30"/>
<path fill-rule="evenodd" clip-rule="evenodd" d="M13.7871 20.6968L15.7718 22.4111V24.1253L13.7871 20.6968Z" fill="#EA8D3A"/>
<path fill-rule="evenodd" clip-rule="evenodd" d="M15.7715 22.4644L18.1064 23.0001L18.8653 25.3037L18.3399 25.5715L15.7715 24.1786V22.4644Z" fill="#F89D35"/>
<path fill-rule="evenodd" clip-rule="evenodd" d="M15.7717 24.1787L15.3047 27.5001L18.3985 25.518L15.7717 24.1787Z" fill="#EB8F35"/>
<path fill-rule="evenodd" clip-rule="evenodd" d="M18.573 20.75L18.8649 25.3036L17.9893 22.9732L18.573 20.75Z" fill="#EA8E3A"/>
<path fill-rule="evenodd" clip-rule="evenodd" d="M13.0859 24.2323L15.7711 24.1787L15.3041 27.5001L13.0859 24.2323Z" fill="#D87C30"/>
<path fill-rule="evenodd" clip-rule="evenodd" d="M10.3428 28.9467L15.3044 27.5002L13.0863 24.2324L9.05859 24.5002L10.3428 28.9467Z" fill="#EB8F35"/>
<path fill-rule="evenodd" clip-rule="evenodd" d="M18.2234 16.5718L15.7135 18.5003L13.7871 20.6432L18.5737 20.804L18.2234 16.5718Z" fill="#E8821E"/>
<path fill-rule="evenodd" clip-rule="evenodd" d="M15.3047 27.5002L18.3985 25.5181L18.165 27.2324V28.1966L16.0636 27.8216L15.3047 27.5002Z" fill="#DFCEC3"/>
<path fill-rule="evenodd" clip-rule="evenodd" d="M24.6445 27.5002L21.6092 25.5181L21.8426 27.2324V28.1966L23.9441 27.8216L24.6445 27.5002Z" fill="#DFCEC3"/>
<path fill-rule="evenodd" clip-rule="evenodd" d="M17.2895 21.7144L17.9316 22.9465L15.6551 22.4108L17.2895 21.7144Z" fill="#393939"/>
<path fill-rule="evenodd" clip-rule="evenodd" d="M10.2842 11.0537L18.2229 16.5715L16.8803 13.5715L10.2842 11.0537Z" fill="#E88F35"/>
<path fill-rule="evenodd" clip-rule="evenodd" d="M10.2841 11.0537L9.2334 14.0001L9.81712 17.2144L9.40852 17.4287L9.99224 17.9109L9.52526 18.2859L10.1674 18.8216L9.75875 19.143L10.6927 20.2144L15.0707 18.9823C17.211 17.4109 18.2617 16.6073 18.2228 16.5716C18.1839 16.5359 15.5376 14.6966 10.2841 11.0537Z" fill="#8E5A30"/>
<path fill-rule="evenodd" clip-rule="evenodd" d="M29.2552 20.1609L30.8896 24.5001L26.8036 24.2858H24.1768V22.4109L24.2936 18.5537L24.8773 18.9823L29.2552 20.1609Z" fill="#F89D35"/>
<path fill-rule="evenodd" clip-rule="evenodd" d="M26.1611 20.6431L21.3746 20.7502L21.8999 23.0002L24.1765 22.4645L26.1611 20.6431Z" fill="#D87C30"/>
<path fill-rule="evenodd" clip-rule="evenodd" d="M26.1611 20.6968L24.1765 22.4111V24.1253L26.1611 20.6968Z" fill="#EA8D3A"/>
<path fill-rule="evenodd" clip-rule="evenodd" d="M24.1768 22.4644L21.8419 23.0001L21.083 25.3037L21.6084 25.5715L24.1768 24.1786V22.4644Z" fill="#F89D35"/>
<path fill-rule="evenodd" clip-rule="evenodd" d="M24.1766 24.1787L24.6436 27.5001L21.6082 25.5716L24.1766 24.1787Z" fill="#EB8F35"/>
<path fill-rule="evenodd" clip-rule="evenodd" d="M21.3753 20.75L21.0833 25.3036L21.959 22.9732L21.3753 20.75Z" fill="#EA8E3A"/>
<path fill-rule="evenodd" clip-rule="evenodd" d="M26.8623 24.2323L24.1772 24.1787L24.6441 27.5001L26.8623 24.2323Z" fill="#D87C30"/>
<path fill-rule="evenodd" clip-rule="evenodd" d="M29.6055 28.9467L24.6438 27.5002L26.862 24.2324L30.8896 24.5002L29.6055 28.9467Z" fill="#EB8F35"/>
<path fill-rule="evenodd" clip-rule="evenodd" d="M21.7248 16.5718L24.2348 18.5003L26.1611 20.6432L21.3746 20.804L21.7248 16.5718Z" fill="#E8821E"/>
<path fill-rule="evenodd" clip-rule="evenodd" d="M22.6588 21.7144L22.0166 22.9465L24.2932 22.4108L22.6588 21.7144Z" fill="#393939"/>
<path fill-rule="evenodd" clip-rule="evenodd" d="M29.6641 11.0537L21.7254 16.5715L23.0679 13.5715L29.6641 11.0537Z" fill="#E88F35"/>
<path fill-rule="evenodd" clip-rule="evenodd" d="M29.6641 11.0537L30.7148 14.0001L30.1311 17.2144L30.5397 17.4287L29.956 17.9109L30.423 18.2859L29.7809 18.8216L30.1895 19.143L29.2555 20.2144L24.8776 18.9823C22.7373 17.4109 21.6865 16.6073 21.7255 16.5716C21.7644 16.5359 24.4106 14.6966 29.6641 11.0537Z" fill="#8E5A30"/>
</svg>
