<svg width="161" height="640" viewBox="0 0 161 640" fill="none" xmlns="http://www.w3.org/2000/svg">
<g opacity="0.5">
<path d="M40.7873 -321C40.9679 -256.389 38.7161 -185.98 43.9737 -122.45C52.7416 -16.7243 74.3613 81.4697 85.0411 186.126C88.8701 223.688 91.1643 260.752 84.1117 297.09C78.1054 327.976 67.3725 353.113 56.9264 376.765C38.424 418.651 13.5966 462.878 11.2812 526.111C9.78885 566.928 19.518 606.735 28.0788 641.221C37.7867 680.304 48.8966 717.533 58.6099 756.604C67.33 791.66 77.638 833.202 75.4075 874.839C73.4851 910.714 62.784 940.828 52.1839 966.416C31.4245 1016.51 -1.89466 1067.91 1.20146 1144.97C4.74899 1233.57 38.3337 1299.64 40.7872 1389.62" stroke="url(#paint0_linear)" stroke-width="0.5" stroke-miterlimit="10"/>
<path d="M47.0174 -320.991C47.3466 -256.106 44.5054 -185.912 50.1294 -122.155C59.2903 -18.3069 81.2659 77.6777 92.3227 180.421C96.4173 218.435 98.5468 254.524 91.4465 291.386C85.3976 322.83 74.7762 348.858 64.4204 373.377C46.1198 416.653 21.0428 462.744 17.883 525.978C15.8543 566.545 25.61 606.495 34.1655 640.684C43.8256 679.292 54.9462 715.963 64.6169 754.559C73.3848 789.543 83.6132 831.085 80.9632 872.662C78.6849 908.431 67.8299 938.984 57.3466 964.929C37.0067 1015.28 4.31419 1068.17 7.32003 1144.31C10.8304 1233.12 44.6063 1299.4 47.0173 1389.59" stroke="url(#paint1_linear)" stroke-width="0.5" stroke-miterlimit="10"/>
<path d="M53.1404 -320.965C53.5334 -255.712 49.9009 -185.708 55.8541 -121.56C65.2965 -19.8257 87.5589 73.6522 98.8706 174.234C103.193 212.568 105.121 247.814 98.1112 285.091C92.1048 317.023 81.7596 344.096 71.4834 369.529C53.4271 414.255 28.4404 462.473 24.5158 525.647C22.0145 565.846 31.5684 605.487 40.0867 639.367C49.6459 677.321 60.6975 713.22 70.2514 751.151C79.0352 786.029 88.9715 827.178 85.9444 868.566C83.3209 904.37 72.4181 935.47 62.0463 961.996C42.1313 1013.02 10.2566 1067.64 13.22 1143.19C16.7144 1232.39 50.708 1299.05 53.1085 1389.63" stroke="url(#paint2_linear)" stroke-width="0.5" stroke-miterlimit="10"/>
<path d="M59.1462 -320.945C59.5232 -255.241 54.9295 -185.272 61.1854 -120.672C70.8031 -21.2664 93.2938 69.4913 104.802 167.709C109.311 206.198 111.005 240.779 104.197 278.365C98.3123 310.866 88.2645 338.949 78.1743 365.368C60.4419 411.959 35.8163 461.864 31.1695 525.216C28.2592 564.94 37.3989 603.88 45.8588 637.427C55.2268 674.55 66.1828 709.535 75.5614 746.634C84.3506 781.38 93.7929 821.734 90.4313 862.872C87.4838 898.843 76.6235 930.584 66.3952 957.906C46.9209 1009.95 16.0234 1066.52 18.9708 1141.67C22.4918 1231.41 56.7138 1298.58 59.1301 1389.71" stroke="url(#paint3_linear)" stroke-width="0.5" stroke-miterlimit="10"/>
<path d="M65.0368 -320.933C65.3342 -254.694 59.6358 -184.749 66.1626 -119.568C75.8652 -22.6565 98.5577 65.2145 110.13 160.902C114.792 199.367 116.242 233.472 109.731 271.249C104.028 304.332 94.3304 333.401 84.5481 360.901C67.2194 409.606 43.1833 461.032 37.8673 524.622C31.4467 601.362 64.8615 678.91 80.6129 741.098C89.3861 775.714 98.1753 814.975 94.495 855.756C91.2183 892.012 80.4642 924.418 70.3899 952.679C51.3723 1006.04 21.5795 1064.72 24.5428 1139.68C28.1116 1230.1 62.5832 1297.9 65.0367 1389.68" stroke="url(#paint4_linear)" stroke-width="0.5" stroke-miterlimit="10"/>
<path d="M70.8035 -320.905C70.9681 -254.084 64.0483 -184.127 70.8035 -118.269C80.5114 -23.9591 103.31 60.8826 114.919 153.909C119.699 192.244 120.888 226.016 114.755 263.899C109.29 297.589 100.023 327.667 90.5486 356.249C73.7137 407.068 50.4795 460.026 44.505 523.937C37.4524 599.513 69.9007 673.722 85.3972 734.758C93.9527 768.507 102.577 807.851 98.1694 847.516C94.0801 884.342 84.1651 916.784 74.0748 946.649C55.5406 1001.54 26.9532 1062.48 29.9484 1137.44C33.5862 1228.63 68.3181 1297.16 70.8406 1389.71" stroke="url(#paint5_linear)" stroke-width="0.5" stroke-miterlimit="10"/>
<path d="M76.4584 -320.882C76.4584 -253.431 68.2109 -183.403 75.2157 -116.808C84.8546 -25.183 107.749 56.5464 119.294 146.829C139.363 303.635 65.2741 385.436 51.0946 523.176C43.4419 597.422 74.7218 667.877 89.905 727.808C98.4021 761.403 106.14 799.227 101.482 838.393C97.0479 875.682 87.3506 908.884 77.4515 939.948C59.3952 996.553 32.1089 1059.86 35.1519 1134.97C38.8694 1227 73.8721 1296.34 76.4584 1389.75" stroke="url(#paint6_linear)" stroke-width="0.5" stroke-miterlimit="10"/>
<path d="M81.9931 -320.86C81.77 -252.756 72.1684 -182.609 79.3802 -115.218C88.8917 -26.3256 111.839 52.2795 123.284 139.747C143.369 293.31 72.8322 386.836 57.6383 522.354C49.4493 595.317 79.343 661.544 94.2341 720.382C102.699 753.834 109.417 790.006 104.547 828.614C99.7679 866.402 90.3149 900.448 80.6229 932.759C63.0977 991.182 37.1232 1056.9 40.2352 1132.33C44.0642 1225.26 79.3218 1295.47 81.993 1389.78" stroke="url(#paint7_linear)" stroke-width="0.5" stroke-miterlimit="10"/>
<path d="M87.41 -320.834C86.9586 -252.053 75.9549 -181.763 83.3473 -113.529C92.6835 -27.3566 115.657 48.0293 126.948 132.788C146.974 283.096 80.2936 388.192 64.0855 521.513C55.3759 593.169 83.7987 654.894 98.3977 712.698C106.815 746.032 112.455 780.41 107.426 818.424C102.333 856.735 93.087 891.66 83.634 925.254C66.6399 985.553 42.0196 1053.69 45.2007 1129.51C49.1465 1223.35 84.6696 1294.49 87.4311 1389.73" stroke="url(#paint8_linear)" stroke-width="0.5" stroke-miterlimit="10"/>
<path d="M92.7102 -320.812C92.0252 -251.366 79.6141 -180.874 87.1606 -111.737C96.2843 -28.2256 119.269 44.0479 130.368 126.074C150.278 273.187 87.6013 389.521 70.4213 520.656C61.202 591.017 88.1112 648.109 102.429 704.927C110.793 738.118 115.323 770.822 110.113 808.206C104.696 847.051 95.6842 882.891 86.4648 917.745C70.0017 979.933 46.741 1050.47 50.0017 1126.76C54.0591 1221.59 89.8318 1293.6 92.7102 1389.8" stroke="url(#paint9_linear)" stroke-width="0.5" stroke-miterlimit="10"/>
<path d="M97.887 -320.792C96.9736 -250.704 83.187 -179.975 90.861 -110.042C99.7457 -29.0965 122.725 40.124 133.607 119.537C153.362 263.739 94.7643 390.859 76.623 519.868C66.9045 588.946 92.3001 641.393 106.363 697.285C114.674 730.333 118.094 761.433 112.736 798.105C106.989 837.484 98.1843 874.227 89.2199 910.328C73.3198 974.345 51.3707 1047.24 54.7005 1124.05C58.8694 1219.83 94.9342 1292.73 97.8763 1389.87" stroke="url(#paint10_linear)" stroke-width="0.5" stroke-miterlimit="10"/>
<path d="M102.955 -320.766C101.824 -249.977 86.715 -179.082 94.4951 -108.293C103.125 -29.7828 126.088 36.5154 136.736 113.457C156.311 254.892 101.781 392.181 82.6788 519.028C72.4505 586.953 96.4388 634.708 110.22 689.828C118.452 722.769 120.841 752.242 115.329 788.295C109.253 828.186 100.624 865.819 91.9194 903.097C76.5662 968.872 55.9077 1044.01 59.3224 1121.35C63.5975 1218.04 99.9226 1291.8 102.955 1389.83" stroke="url(#paint11_linear)" stroke-width="0.5" stroke-miterlimit="10"/>
<path d="M107.897 -320.742C106.58 -249.288 90.2285 -178.191 98.0883 -106.606C106.458 -30.3415 129.421 33.2126 139.82 107.85C149.91 180.254 138.518 257.279 126.346 324.908C114.605 390.125 99.2035 452.123 88.5556 518.315C77.7644 585.385 100.621 628.162 114.047 682.866C131.864 755.508 109.267 829.908 94.6151 896.396C79.7877 963.764 60.3612 1041.01 63.8504 1118.87C68.2157 1216.41 104.796 1290.98 107.902 1389.87" stroke="url(#paint12_linear)" stroke-width="0.5" stroke-miterlimit="10"/>
<path d="M112.731 -320.716C111.26 -248.597 93.7773 -177.487 101.695 -104.988C109.81 -30.7547 132.758 30.2692 142.928 102.899C152.986 174.638 142.062 253.695 130.915 321.644C119.996 388.18 105.578 451.508 94.2339 517.688C82.8903 583.867 104.627 622.522 117.861 676.525C135.254 747.516 110.957 825.016 97.3354 890.352C82.9965 959.133 64.7491 1038.34 68.286 1116.63C72.731 1214.93 109.555 1290.23 112.731 1389.85" stroke="url(#paint13_linear)" stroke-width="0.5" stroke-miterlimit="10"/>
<path d="M117.441 -320.694C115.848 -247.898 97.3877 -176.848 105.354 -103.506C113.219 -31.042 136.156 27.7366 146.129 98.4421C156.14 169.635 145.662 250.497 135.439 318.755C125.29 386.467 111.737 451.066 99.6978 517.139C94.0207 548.31 93.787 571.154 101.11 601.292C107.064 625.787 115.709 646.504 121.705 670.964C129.714 703.596 129.491 729.588 123.537 763.764C116.373 804.831 108.136 844.84 100.133 885.135C86.283 955.068 69.0977 1036 72.6664 1114.64C77.1593 1213.62 114.228 1289.55 117.441 1389.89" stroke="url(#paint14_linear)" stroke-width="0.5" stroke-miterlimit="10"/>
<path d="M122.042 -320.669C120.449 -247.196 101.107 -176.36 109.1 -102.162C116.752 -31.1354 139.774 25.6356 149.493 94.9155C159.429 165.74 149.387 248.087 139.934 316.618C130.481 385.15 117.629 450.949 104.883 516.808C98.9935 547.243 98.1597 569.492 105.446 599.369C111.224 623.056 119.753 642.823 125.573 666.451C133.571 698.905 132.722 724.493 126.572 758.076C119.015 799.344 110.794 839.972 103.014 881.026C89.5989 951.839 73.3695 1034.35 76.9489 1113.11C81.4682 1212.64 118.76 1289.08 121.994 1389.9" stroke="url(#paint15_linear)" stroke-width="0.5" stroke-miterlimit="10"/>
<path d="M126.512 -320.647C124.962 -246.485 104.951 -176.053 112.965 -101.024C120.448 -31.0546 143.645 23.9464 153.076 92.2641C162.853 162.993 153.268 246.231 144.489 315.19C135.647 384.708 123.331 451.077 109.885 516.663C103.777 546.48 102.492 568.48 109.778 598.131C115.434 621.177 123.91 640.148 129.619 663.122C137.644 695.422 136.342 720.986 129.959 754.058C121.993 795.386 113.751 836.489 106.135 878.173C93.1083 949.449 77.7179 1033.34 81.2708 1112.04C85.7848 1211.96 123.289 1288.77 126.512 1390.01" stroke="url(#paint16_linear)" stroke-width="0.5" stroke-miterlimit="10"/>
<path d="M130.873 -320.625C129.466 -245.786 108.972 -175.96 117.007 -100.099C124.341 -30.8544 147.639 22.9587 156.959 90.4567C166.688 160.96 157.31 245.291 149.078 314.429C140.714 384.659 128.733 451.325 114.559 516.602C108.186 545.932 106.646 568.051 113.98 597.547C119.593 620.118 128.074 638.495 133.741 661.03C141.834 693.211 140.305 719.132 133.629 751.811C125.207 793.056 116.906 834.467 109.418 876.615C96.72 948.104 82.0201 1032.97 85.5198 1111.35C89.9861 1211.5 127.692 1288.5 130.873 1389.99" stroke="url(#paint17_linear)" stroke-width="0.5" stroke-miterlimit="10"/>
<path d="M135.12 -320.589C133.856 -245.369 113.14 -176.03 121.249 -99.7057C128.578 -30.699 151.854 22.7934 161.121 90.0776C170.819 160.51 161.249 245.221 153.193 314.382C144.982 384.862 133.092 451.314 118.854 516.674C112.481 545.897 111.153 568.325 118.44 597.619C124.016 620.036 132.423 638.294 138.015 660.71C146.013 692.784 144.526 719.18 137.659 751.551C128.949 792.618 120.585 834.076 113.171 876.402C100.707 947.547 86.1719 1033.52 89.8044 1111.29C94.4672 1211.3 131.536 1288.8 135.104 1390.03" stroke="url(#paint18_linear)" stroke-width="0.5" stroke-miterlimit="10"/>
<path d="M139.3 -320.56C138.1 -245.174 117.245 -176.037 125.45 -99.5343C132.842 -30.6345 155.922 23.1311 165.131 90.4629C174.765 160.895 164.775 245.416 156.666 314.47C148.413 384.724 136.544 450.892 122.98 516.703C110.144 578.998 129.884 609.872 142.194 661.179C149.889 693.253 148.487 719.815 141.594 751.889C132.805 792.778 124.462 834.165 117.133 876.479C104.887 947.208 90.2823 1034.3 94.2228 1111.51C99.3104 1211.09 134.871 1289.55 139.22 1390.09" stroke="url(#paint19_linear)" stroke-width="0.5" stroke-miterlimit="10"/>
<path d="M143.416 -320.538C142.258 -244.926 121.249 -175.955 129.523 -99.2149C136.958 -30.3151 159.794 23.6643 168.917 91.0316C178.477 161.464 168.105 245.735 159.969 314.683C151.711 384.663 139.895 450.582 127.016 516.773C114.993 578.545 134.382 610.524 146.135 661.866C153.495 693.94 152.136 720.74 145.232 752.529C136.395 793.227 128.116 834.496 120.914 876.798C108.917 947.242 94.4671 1035.2 98.6731 1111.77C104.111 1210.85 138.126 1290.27 143.166 1390.08" stroke="url(#paint20_linear)" stroke-width="0.5" stroke-miterlimit="10"/>
<path d="M147.458 -320.512C146.333 -244.639 125.154 -175.775 133.465 -98.7494C140.889 -29.9328 163.465 24.3674 172.493 91.7823C181.893 162.215 171.261 246.213 163.12 315.029C154.888 384.678 143.162 450.453 130.995 516.882C119.774 578.215 138.733 611.287 149.938 662.76C156.933 694.917 155.573 721.918 148.674 753.47C139.822 793.942 131.638 835.128 124.606 877.359C112.896 947.625 98.8019 1036.11 103.226 1112.16C108.956 1210.76 141.372 1291.09 147.033 1390.14" stroke="url(#paint21_linear)" stroke-width="0.5" stroke-miterlimit="10"/>
<path d="M151.43 -320.49C150.315 -244.296 128.971 -175.563 137.287 -98.1454C144.669 -29.3882 166.99 25.2446 175.838 92.7188C185.073 163.127 174.202 246.698 166.087 315.491C157.909 384.759 146.305 450.332 134.871 517.035C124.436 577.904 142.895 612.14 153.496 663.85C160.113 696.115 158.705 723.33 151.828 754.679C142.93 794.836 135.013 836.042 128.111 878.117C116.724 948.323 103.15 1037.06 107.776 1112.67C113.74 1210.63 144.521 1291.94 150.718 1390.13" stroke="url(#paint22_linear)" stroke-width="0.5" stroke-miterlimit="10"/>
<path d="M155.328 -320.453C154.213 -243.915 132.683 -175.205 140.989 -97.4079C148.312 -28.71 170.336 26.291 179.003 93.8484C188.031 164.233 176.99 247.447 168.913 316.11C160.819 385.009 149.375 450.405 138.684 517.261C129.019 577.679 146.932 613.151 156.889 665.17C163.097 697.589 161.61 725.006 154.765 756.177C145.926 796.092 138.157 837.148 131.499 879.128C120.469 949.37 107.633 1038.1 112.38 1113.3C118.525 1210.63 147.622 1292.87 154.303 1390.2" stroke="url(#paint23_linear)" stroke-width="0.5" stroke-miterlimit="10"/>
<path d="M159.142 -320.427C158.021 -243.497 136.306 -174.799 144.548 -96.5624C151.781 -27.912 173.486 27.481 181.946 95.0622C190.751 165.411 179.577 248.186 171.569 316.789C163.603 385.178 152.339 450.549 142.408 517.477C133.502 577.468 150.804 614.246 160.087 666.621C165.865 699.218 164.267 726.849 157.432 757.89C148.677 797.532 141.083 838.403 134.697 880.246C124.075 950.607 112.095 1039.06 116.954 1113.95C123.22 1210.6 150.602 1293.73 157.692 1390.18" stroke="url(#paint24_linear)" stroke-width="0.5" stroke-miterlimit="10"/>
<path d="M162.88 -320.406C161.733 -243.048 139.811 -174.291 148.01 -95.6029C155.116 -27.0001 176.475 28.7968 184.707 96.4493C193.257 166.751 182.004 249.074 174.086 317.523C166.226 385.436 155.217 450.737 146.051 517.688C137.899 577.263 154.548 615.419 163.119 668.187C168.43 700.985 166.709 728.83 159.933 759.776C151.282 799.155 143.891 839.856 137.814 881.574C127.601 952.161 116.635 1040.11 121.579 1114.73C127.952 1210.68 153.555 1294.66 161.011 1390.21" stroke="url(#paint25_linear)" stroke-width="0.5" stroke-miterlimit="10"/>
<path d="M166.535 -320.38C165.356 -242.559 143.221 -173.814 151.309 -94.5435C158.308 -25.9882 179.307 30.2483 187.283 97.972C195.552 168.214 184.262 250.027 176.444 318.38C168.728 385.819 157.995 451.06 149.604 517.952C142.169 577.123 158.138 616.74 165.972 669.923C170.831 702.948 168.924 731.007 162.254 761.881C153.735 800.985 146.569 841.493 140.82 883.049C131.075 953.909 121.24 1041.15 126.242 1115.55C132.615 1210.79 156.46 1295.57 164.224 1390.21" stroke="url(#paint26_linear)" stroke-width="0.5" stroke-miterlimit="10"/>
<path d="M170.097 -320.359C168.876 -242.051 146.528 -173.234 154.505 -93.4648C161.34 -24.8739 181.977 31.8021 189.678 99.609C197.644 169.78 186.358 251.022 178.658 319.375C171.106 386.315 160.681 451.509 153.071 518.329C146.374 577.096 161.6 618.258 168.658 671.881C173.034 705.143 170.942 733.404 164.303 764.254C155.933 803.073 149.018 843.38 143.629 884.758C134.383 955.891 125.758 1042.25 130.819 1116.49C137.229 1210.97 159.216 1296.52 167.245 1390.26" stroke="url(#paint27_linear)" stroke-width="0.5" stroke-miterlimit="10"/>
<path d="M173.554 -320.334C172.295 -241.539 149.736 -172.639 157.579 -92.1688C164.26 -23.6848 184.494 33.4664 191.902 101.345C199.555 171.432 188.296 252.116 180.75 320.315C173.379 386.768 163.299 451.914 156.464 518.592C150.474 576.991 164.961 619.78 171.207 673.818C175.089 707.318 172.8 735.805 166.209 766.667C158.007 805.193 151.361 845.283 146.353 886.457C137.643 958.054 130.368 1043.35 135.418 1117.46C141.791 1211.21 161.929 1297.43 170.187 1390.28" stroke="url(#paint28_linear)" stroke-width="0.5" stroke-miterlimit="10"/>
<path d="M176.953 -320.31C175.62 -240.944 152.842 -171.914 160.538 -90.8733C167.033 -22.4012 186.863 35.2489 193.963 103.175C201.276 173.203 190.081 253.281 182.662 321.385C175.476 387.339 165.779 452.437 159.72 518.937C154.409 576.991 168.116 621.467 173.527 675.91C176.9 709.659 174.367 738.359 167.866 769.269C159.848 807.502 153.49 847.37 148.881 888.323C140.745 960.359 134.866 1044.46 139.921 1118.48C146.268 1211.5 164.483 1298.34 172.933 1390.31" stroke="url(#paint29_linear)" stroke-width="0.5" stroke-miterlimit="10"/>
<path d="M180.24 -320.286C178.838 -240.35 155.843 -171.201 163.368 -89.4833C169.672 -21.0706 189.082 37.0429 195.858 105.087C202.826 175.021 191.711 254.481 184.456 322.478C177.473 387.956 168.185 452.972 162.9 519.258C158.296 577.015 171.174 623.214 175.779 678.072C178.631 712.059 175.848 740.961 169.406 771.978C161.587 809.913 155.536 849.55 151.35 890.26C143.83 962.723 139.411 1045.55 144.446 1119.53C150.718 1211.82 167.011 1299.2 175.63 1390.33" stroke="url(#paint30_linear)" stroke-width="0.5" stroke-miterlimit="10"/>
<path d="M183.426 -320.263C181.95 -239.769 158.737 -170.441 166.081 -88.0942C172.183 -19.6696 191.164 38.9308 197.605 107.058C204.207 176.897 193.203 255.728 186.118 323.677C179.337 388.692 170.494 453.612 165.98 519.685C162.056 577.192 174.095 625.149 177.85 680.4C180.181 714.636 177.133 743.74 170.786 774.875C163.17 812.516 157.431 851.92 153.675 892.373C146.809 965.324 143.898 1046.73 148.896 1120.69C155.088 1212.16 169.416 1300.07 178.179 1390.35" stroke="url(#paint31_linear)" stroke-width="0.5" stroke-miterlimit="10"/>
<path d="M186.512 -320.241C184.956 -239.165 161.552 -169.659 168.674 -86.6349C174.563 -18.2103 193.113 40.8773 199.205 109.088C205.418 178.831 194.553 257.021 187.649 324.887C181.079 389.463 172.71 454.264 168.961 520.051C165.694 577.357 176.879 627.06 179.784 682.667C181.584 717.117 178.259 746.447 171.993 777.701C164.593 815.049 159.183 854.215 155.875 894.391C149.699 967.805 148.323 1047.78 153.283 1121.74C159.369 1212.54 171.717 1300.79 180.607 1390.29" stroke="url(#paint32_linear)" stroke-width="0.5" stroke-miterlimit="10"/>
<path d="M189.485 -320.214C187.849 -238.544 164.206 -168.837 171.142 -85.1473C176.819 -16.7346 194.923 42.8756 200.638 111.17C206.479 180.794 195.736 258.33 189.023 326.184C182.65 390.332 174.796 454.991 171.806 520.505C169.193 577.704 179.506 629.106 181.556 685.14C182.826 719.84 179.209 749.288 173.027 780.84C165.848 817.899 160.773 856.827 157.924 896.71C145.555 1064.21 166.421 1228.34 182.884 1390.46" stroke="url(#paint33_linear)" stroke-width="0.5" stroke-miterlimit="10"/>
<path d="M192.364 -320.194C190.638 -237.919 166.788 -168.009 173.506 -83.6305C178.954 -15.2178 196.607 44.9032 201.987 113.28C207.457 182.786 196.846 259.669 190.33 327.38C184.175 391.16 176.83 455.629 174.615 520.846C172.656 578.033 182.05 631.05 183.272 687.501C184.015 722.402 180.085 752.1 173.994 783.829C166.915 820.465 162.401 859.37 159.905 898.868C149.586 1062.1 168.742 1232.36 185.093 1390.42" stroke="url(#paint34_linear)" stroke-width="0.5" stroke-miterlimit="10"/>
<path d="M195.126 -320.167C193.309 -237.286 169.252 -167.162 175.747 -82.095C180.989 -13.6704 198.169 46.9495 203.187 115.41C208.269 184.797 197.802 261.014 191.504 328.655C185.582 392.09 178.758 456.333 177.266 521.253C175.949 578.547 184.456 633.061 184.812 689.939C185.03 725.042 180.792 754.93 174.775 786.909C167.93 823.307 163.803 861.951 161.753 901.117C157.85 975.73 161.174 1051.39 165.949 1125.39C171.679 1214.17 177.967 1303.09 187.191 1390.45" stroke="url(#paint35_linear)" stroke-width="0.5" stroke-miterlimit="10"/>
<path d="M197.777 -320.146C195.902 -237.371 171.802 -167.343 177.74 -82.3586C182.519 -14.2072 199.03 46.5316 204.038 114.457C209.099 183.119 199.057 257.804 192.992 324.851C187.15 389.664 180.623 455.321 179.805 521.667C179.078 580.564 187.118 637.953 186.178 696.72C185.61 732.191 180.427 761.759 174.67 794.273C168.69 828.045 165.265 863.707 163.645 899.772C160.198 976.536 165.281 1052.67 170.076 1128.52C175.61 1216.07 179.869 1304.4 189.12 1390.51" stroke="url(#paint36_linear)" stroke-width="0.5" stroke-miterlimit="10"/>
</g>
<defs>
<linearGradient id="paint0_linear" x1="45.2244" y1="-321" x2="45.2243" y2="1389.62" gradientUnits="userSpaceOnUse">
<stop offset="0.161458" stop-color="#B881FF"/>
<stop offset="0.5" stop-color="#0CB6FF"/>
<stop offset="0.848958" stop-color="#27F09E"/>
</linearGradient>
<linearGradient id="paint1_linear" x1="52.0048" y1="-320.991" x2="52.0047" y2="1389.59" gradientUnits="userSpaceOnUse">
<stop offset="0.161458" stop-color="#B881FF"/>
<stop offset="0.5" stop-color="#0CB6FF"/>
<stop offset="0.848958" stop-color="#27F09E"/>
</linearGradient>
<linearGradient id="paint2_linear" x1="58.2866" y1="-320.965" x2="58.2865" y2="1389.63" gradientUnits="userSpaceOnUse">
<stop offset="0.161458" stop-color="#B881FF"/>
<stop offset="0.5" stop-color="#0CB6FF"/>
<stop offset="0.848958" stop-color="#27F09E"/>
</linearGradient>
<linearGradient id="paint3_linear" x1="64.1618" y1="-320.945" x2="64.1617" y2="1389.71" gradientUnits="userSpaceOnUse">
<stop offset="0.161458" stop-color="#B881FF"/>
<stop offset="0.5" stop-color="#0CB6FF"/>
<stop offset="0.848958" stop-color="#27F09E"/>
</linearGradient>
<linearGradient id="paint4_linear" x1="69.631" y1="-320.933" x2="69.6309" y2="1389.68" gradientUnits="userSpaceOnUse">
<stop offset="0.161458" stop-color="#B881FF"/>
<stop offset="0.5" stop-color="#0CB6FF"/>
<stop offset="0.848958" stop-color="#27F09E"/>
</linearGradient>
<linearGradient id="paint5_linear" x1="74.7294" y1="-320.905" x2="74.7292" y2="1389.71" gradientUnits="userSpaceOnUse">
<stop offset="0.161458" stop-color="#B881FF"/>
<stop offset="0.5" stop-color="#0CB6FF"/>
<stop offset="0.848958" stop-color="#27F09E"/>
</linearGradient>
<linearGradient id="paint6_linear" x1="79.2068" y1="-320.882" x2="79.2066" y2="1389.75" gradientUnits="userSpaceOnUse">
<stop offset="0.161458" stop-color="#B881FF"/>
<stop offset="0.5" stop-color="#0CB6FF"/>
<stop offset="0.848958" stop-color="#27F09E"/>
</linearGradient>
<linearGradient id="paint7_linear" x1="83.8009" y1="-320.86" x2="83.8008" y2="1389.78" gradientUnits="userSpaceOnUse">
<stop offset="0.161458" stop-color="#B881FF"/>
<stop offset="0.5" stop-color="#0CB6FF"/>
<stop offset="0.848958" stop-color="#27F09E"/>
</linearGradient>
<linearGradient id="paint8_linear" x1="88.1718" y1="-320.834" x2="88.1717" y2="1389.73" gradientUnits="userSpaceOnUse">
<stop offset="0.161458" stop-color="#B881FF"/>
<stop offset="0.5" stop-color="#0CB6FF"/>
<stop offset="0.848958" stop-color="#27F09E"/>
</linearGradient>
<linearGradient id="paint9_linear" x1="92.3362" y1="-320.812" x2="92.3361" y2="1389.8" gradientUnits="userSpaceOnUse">
<stop offset="0.161458" stop-color="#B881FF"/>
<stop offset="0.5" stop-color="#0CB6FF"/>
<stop offset="0.848958" stop-color="#27F09E"/>
</linearGradient>
<linearGradient id="paint10_linear" x1="96.361" y1="-320.792" x2="96.3609" y2="1389.87" gradientUnits="userSpaceOnUse">
<stop offset="0.161458" stop-color="#B881FF"/>
<stop offset="0.5" stop-color="#0CB6FF"/>
<stop offset="0.848958" stop-color="#27F09E"/>
</linearGradient>
<linearGradient id="paint11_linear" x1="100.293" y1="-320.766" x2="100.293" y2="1389.83" gradientUnits="userSpaceOnUse">
<stop offset="0.161458" stop-color="#B881FF"/>
<stop offset="0.5" stop-color="#0CB6FF"/>
<stop offset="0.848958" stop-color="#27F09E"/>
</linearGradient>
<linearGradient id="paint12_linear" x1="103.926" y1="-320.742" x2="103.926" y2="1389.87" gradientUnits="userSpaceOnUse">
<stop offset="0.161458" stop-color="#B881FF"/>
<stop offset="0.5" stop-color="#0CB6FF"/>
<stop offset="0.848958" stop-color="#27F09E"/>
</linearGradient>
<linearGradient id="paint13_linear" x1="107.719" y1="-320.716" x2="107.719" y2="1389.85" gradientUnits="userSpaceOnUse">
<stop offset="0.161458" stop-color="#B881FF"/>
<stop offset="0.5" stop-color="#0CB6FF"/>
<stop offset="0.848958" stop-color="#27F09E"/>
</linearGradient>
<linearGradient id="paint14_linear" x1="111.528" y1="-320.694" x2="111.528" y2="1389.89" gradientUnits="userSpaceOnUse">
<stop offset="0.161458" stop-color="#B881FF"/>
<stop offset="0.5" stop-color="#0CB6FF"/>
<stop offset="0.848958" stop-color="#27F09E"/>
</linearGradient>
<linearGradient id="paint15_linear" x1="115.364" y1="-320.669" x2="115.363" y2="1389.9" gradientUnits="userSpaceOnUse">
<stop offset="0.161458" stop-color="#B881FF"/>
<stop offset="0.5" stop-color="#0CB6FF"/>
<stop offset="0.848958" stop-color="#27F09E"/>
</linearGradient>
<linearGradient id="paint16_linear" x1="119.31" y1="-320.647" x2="119.31" y2="1390.01" gradientUnits="userSpaceOnUse">
<stop offset="0.161458" stop-color="#B881FF"/>
<stop offset="0.5" stop-color="#0CB6FF"/>
<stop offset="0.848958" stop-color="#27F09E"/>
</linearGradient>
<linearGradient id="paint17_linear" x1="123.386" y1="-320.625" x2="123.386" y2="1389.99" gradientUnits="userSpaceOnUse">
<stop offset="0.161458" stop-color="#B881FF"/>
<stop offset="0.5" stop-color="#0CB6FF"/>
<stop offset="0.848958" stop-color="#27F09E"/>
</linearGradient>
<linearGradient id="paint18_linear" x1="127.559" y1="-320.589" x2="127.559" y2="1390.03" gradientUnits="userSpaceOnUse">
<stop offset="0.161458" stop-color="#B881FF"/>
<stop offset="0.5" stop-color="#0CB6FF"/>
<stop offset="0.848958" stop-color="#27F09E"/>
</linearGradient>
<linearGradient id="paint19_linear" x1="131.661" y1="-320.56" x2="131.661" y2="1390.09" gradientUnits="userSpaceOnUse">
<stop offset="0.161458" stop-color="#B881FF"/>
<stop offset="0.5" stop-color="#0CB6FF"/>
<stop offset="0.848958" stop-color="#27F09E"/>
</linearGradient>
<linearGradient id="paint20_linear" x1="135.669" y1="-320.538" x2="135.669" y2="1390.08" gradientUnits="userSpaceOnUse">
<stop offset="0.161458" stop-color="#B881FF"/>
<stop offset="0.5" stop-color="#0CB6FF"/>
<stop offset="0.848958" stop-color="#27F09E"/>
</linearGradient>
<linearGradient id="paint21_linear" x1="139.609" y1="-320.512" x2="139.609" y2="1390.14" gradientUnits="userSpaceOnUse">
<stop offset="0.161458" stop-color="#B881FF"/>
<stop offset="0.5" stop-color="#0CB6FF"/>
<stop offset="0.848958" stop-color="#27F09E"/>
</linearGradient>
<linearGradient id="paint22_linear" x1="143.43" y1="-320.49" x2="143.43" y2="1390.13" gradientUnits="userSpaceOnUse">
<stop offset="0.161458" stop-color="#B881FF"/>
<stop offset="0.5" stop-color="#0CB6FF"/>
<stop offset="0.848958" stop-color="#27F09E"/>
</linearGradient>
<linearGradient id="paint23_linear" x1="147.187" y1="-320.453" x2="147.187" y2="1390.2" gradientUnits="userSpaceOnUse">
<stop offset="0.161458" stop-color="#B881FF"/>
<stop offset="0.5" stop-color="#0CB6FF"/>
<stop offset="0.848958" stop-color="#27F09E"/>
</linearGradient>
<linearGradient id="paint24_linear" x1="150.811" y1="-320.427" x2="150.811" y2="1390.18" gradientUnits="userSpaceOnUse">
<stop offset="0.161458" stop-color="#B881FF"/>
<stop offset="0.5" stop-color="#0CB6FF"/>
<stop offset="0.848958" stop-color="#27F09E"/>
</linearGradient>
<linearGradient id="paint25_linear" x1="154.36" y1="-320.406" x2="154.36" y2="1390.21" gradientUnits="userSpaceOnUse">
<stop offset="0.161458" stop-color="#B881FF"/>
<stop offset="0.5" stop-color="#0CB6FF"/>
<stop offset="0.848958" stop-color="#27F09E"/>
</linearGradient>
<linearGradient id="paint26_linear" x1="157.825" y1="-320.38" x2="157.825" y2="1390.21" gradientUnits="userSpaceOnUse">
<stop offset="0.161458" stop-color="#B881FF"/>
<stop offset="0.5" stop-color="#0CB6FF"/>
<stop offset="0.848958" stop-color="#27F09E"/>
</linearGradient>
<linearGradient id="paint27_linear" x1="161.14" y1="-320.359" x2="161.14" y2="1390.26" gradientUnits="userSpaceOnUse">
<stop offset="0.161458" stop-color="#B881FF"/>
<stop offset="0.5" stop-color="#0CB6FF"/>
<stop offset="0.848958" stop-color="#27F09E"/>
</linearGradient>
<linearGradient id="paint28_linear" x1="164.376" y1="-320.334" x2="164.376" y2="1390.28" gradientUnits="userSpaceOnUse">
<stop offset="0.161458" stop-color="#B881FF"/>
<stop offset="0.5" stop-color="#0CB6FF"/>
<stop offset="0.848958" stop-color="#27F09E"/>
</linearGradient>
<linearGradient id="paint29_linear" x1="167.451" y1="-320.31" x2="167.451" y2="1390.31" gradientUnits="userSpaceOnUse">
<stop offset="0.161458" stop-color="#B881FF"/>
<stop offset="0.5" stop-color="#0CB6FF"/>
<stop offset="0.848958" stop-color="#27F09E"/>
</linearGradient>
<linearGradient id="paint30_linear" x1="170.427" y1="-320.286" x2="170.427" y2="1390.33" gradientUnits="userSpaceOnUse">
<stop offset="0.161458" stop-color="#B881FF"/>
<stop offset="0.5" stop-color="#0CB6FF"/>
<stop offset="0.848958" stop-color="#27F09E"/>
</linearGradient>
<linearGradient id="paint31_linear" x1="173.246" y1="-320.263" x2="173.246" y2="1390.35" gradientUnits="userSpaceOnUse">
<stop offset="0.161458" stop-color="#B881FF"/>
<stop offset="0.5" stop-color="#0CB6FF"/>
<stop offset="0.848958" stop-color="#27F09E"/>
</linearGradient>
<linearGradient id="paint32_linear" x1="175.888" y1="-320.241" x2="175.888" y2="1390.29" gradientUnits="userSpaceOnUse">
<stop offset="0.161458" stop-color="#B881FF"/>
<stop offset="0.5" stop-color="#0CB6FF"/>
<stop offset="0.848958" stop-color="#27F09E"/>
</linearGradient>
<linearGradient id="paint33_linear" x1="178.462" y1="-320.214" x2="178.461" y2="1390.46" gradientUnits="userSpaceOnUse">
<stop offset="0.161458" stop-color="#B881FF"/>
<stop offset="0.5" stop-color="#0CB6FF"/>
<stop offset="0.848958" stop-color="#27F09E"/>
</linearGradient>
<linearGradient id="paint34_linear" x1="180.452" y1="-320.194" x2="180.452" y2="1390.42" gradientUnits="userSpaceOnUse">
<stop offset="0.161458" stop-color="#B881FF"/>
<stop offset="0.5" stop-color="#0CB6FF"/>
<stop offset="0.848958" stop-color="#27F09E"/>
</linearGradient>
<linearGradient id="paint35_linear" x1="182.482" y1="-320.167" x2="182.482" y2="1390.45" gradientUnits="userSpaceOnUse">
<stop offset="0.161458" stop-color="#B881FF"/>
<stop offset="0.5" stop-color="#0CB6FF"/>
<stop offset="0.848958" stop-color="#27F09E"/>
</linearGradient>
<linearGradient id="paint36_linear" x1="184.155" y1="-320.146" x2="184.155" y2="1390.51" gradientUnits="userSpaceOnUse">
<stop offset="0.161458" stop-color="#B881FF"/>
<stop offset="0.5" stop-color="#0CB6FF"/>
<stop offset="0.848958" stop-color="#27F09E"/>
</linearGradient>
</defs>
</svg>
